<svg height="512" viewBox="0 0 58 58" width="512" xmlns="http://www.w3.org/2000/svg"><g fill-rule="nonzero" transform="translate(0 -1)" fill="none"><path d="M13.93 10.26A8.31 8.31 0 0110 5c1.46-2.19 4.31-3.26 6.8-3.64 2.24-.37 4.53-.21 6.69.47a6.93 6.93 0 013.95 3.75A19.69 19.69 0 0129 13.9v.1z" fill="#805333"/><path d="M44.07 10.26A8.31 8.31 0 0048 5c-1.46-2.19-4.31-3.26-6.8-3.64a14.44 14.44 0 00-6.69.47 6.93 6.93 0 00-3.95 3.75 19.69 19.69 0 00-1.55 8.01l-.01.31v.1z" fill="#805333"/><path d="M33.73 2.16a7.21 7.21 0 00-3.17 3.42 19.69 19.69 0 00-1.55 8.01l-.01.31-.01-.31c.05-2.75-.48-5.48-1.55-8.01a7.21 7.21 0 00-3.17-3.42A9 9 0 0129 1a9 9 0 014.73 1.16zM42 14v16a8.95 8.95 0 01-4.44 7.75L34 38.94c-.33.04-.67.06-1 .06h-8c-.33 0-.67-.02-1-.06l-3.56-1.19A8.95 8.95 0 0116 30V14z" fill="#a56a43"/><path d="M37 29c.05 3.54-1 7-2.98 9.93l-.02.01c-.33.04-.67.06-1 .06h-8c-.33 0-.67-.02-1-.06l-.02-.01A17.3 17.3 0 0121 29c0-5.02.57-8.73 3.94-10.28l7.8-.13C36.39 20.05 37 23.83 37 29z" fill="#cf976a"/><circle cx="21" cy="14" fill="#ecf0f1" r="8"/><circle cx="37" cy="14" fill="#ecf0f1" r="8"/><circle cx="22" cy="14" fill="#f0c419" r="5"/><circle cx="36" cy="14" fill="#f0c419" r="5"/><circle cx="22" cy="14" fill="#35495e" r="2"/><circle cx="36" cy="14" fill="#35495e" r="2"/><path d="M32.72 20.76C32.11 22.37 30.56 26 29 26s-3.11-3.63-3.72-5.24A8 8 0 0029 14a8 8 0 003.72 6.76z" fill="#f0c419"/><path d="M58 57c0 1.1-.9 2-2 2H10.31A10.2 10.2 0 01.03 49.72 10 10 0 0110 39h46a2 2 0 012 2c0 1.1-.9 2-2 2H10c-3.25 0-5.9 2.6-6 5.84A6.2 6.2 0 0010.25 55H56a2 2 0 012 2z" fill="#955ba5"/><path d="M53 49c-.02 2.06.39 4.1 1.21 6H10.25A6.2 6.2 0 014 48.84 6.01 6.01 0 0110 43h44.21A14.65 14.65 0 0053 49z" fill="#f9eab0"/><path d="M48 50H24a1 1 0 010-2h24a1 1 0 010 2zM20 50H10a1 1 0 010-2h10a1 1 0 010 2z" fill="#fac176"/><rect fill="#f0c419" height="8" rx="2" width="4" x="16" y="37"/><rect fill="#f3d55b" height="8" rx="2" width="4" x="20" y="37"/><rect fill="#f3d55b" height="8" rx="2" width="4" x="34" y="37"/><rect fill="#f0c419" height="8" rx="2" width="4" x="38" y="37"/><g fill="#ecf0f1"><circle cx="19" cy="12" r="2"/><circle cx="33" cy="12" r="2"/></g></g></svg>