<svg xmlns="http://www.w3.org/2000/svg" viewBox="0 0 600 600"><style>.st2{fill:#e09433}.st3{fill:#e9b36b}.st5{fill:#fff}.st6{fill:#dcb886}.st8{fill:#1a2d3c}.st9{fill:#5a7f6a}.st10{fill:#cb8173}.st11{fill:#c27d33}.st13{fill:#5b8a72}.st14{fill:#4a775f}.st15{fill:#82be9b}.st16{fill:#8f2429}.st18{fill:#bc6a5c}.st19{fill:#ba233e}.st23{enable-background:new}.st24{fill:#a76330}</style><switch><g><linearGradient id="SVGID_1_" gradientUnits="userSpaceOnUse" x1="0" y1="0" x2=".7" y2=".7"><stop offset="0" stop-color="#dddee2"/><stop offset=".2" stop-color="#d9dade"/><stop offset=".4" stop-color="#cdced2"/><stop offset=".6" stop-color="#b8babd"/><stop offset=".7" stop-color="#9b9ea0"/><stop offset=".9" stop-color="#777a7c"/><stop offset="1" stop-color="#676b6c"/></linearGradient><g id="BACKGROUND"><path d="M521.7 447.7c-13.4 53-78.1-9-79.2 42.4S341.3 544.6 286.3 538c-55-6.7-31.3-51.4-74-54.5-42.6-3-103.7 11-126.3-51.7S72.6 251 74 187.2s40.6-29.3 41.7-76.5c.5-23.5 6.4-42 22-56.1l.2-.2c2.4-2 22.8-18.6 49.6-15.5 28.5 3.3 37.4 14.1 40.7 43.9 3.3 29.8 52.8 27.6 49.6-19.7-3.2-47.3 83.7-37.4 110.1-35 18.8 3.6 32.3 9 35 16.8 10.8 30.8.5 71 23.7 69.9 23-1 68.3-2.6 74.5 46.7 6.1 49.4 13.8 233.3.5 286.2z" opacity=".6" fill="#efd4a6"/><g opacity=".5"><path class="st2" d="M258.5 509.5c53.4 0 41.7-66.4 43-90.5s-9.8-57.9-44.3-57.9-30.5 48.8-30.5 78.1-1.3 70.3 31.8 70.3zM268.4 297.4c41.2 0 42.9-61.8 42-107.3-.8-45.5 1.7-102.1-48-102.1s-39.5 73.8-40.4 112.4c-.8 38.6-3.4 97 46.4 97z"/><path class="st3" d="M268.4 275c23.6 0 28.9-69.6-2.4-69.6s-29 69.7 2.4 69.7z"/><g><path class="st2" d="M430.7 515.2c-47-6-44-58-44-139.6S394 226.2 412 191.1s72.6-72.7 103.7-62.9 44 49.8 18.7 75.1c-25.3 25.3-40 49-42.4 98-2.5 49-3.3 94.7-7.4 153.5s-28.5 63.7-53.9 60.4z"/><path class="st3" d="M433.2 482.7c-36.3 0-39-114.3 5.3-113.5s42.4 113.5-5.3 113.5z"/></g></g></g><g id="LEFT_LEG"><path d="M363.3 445.7l-21.7-1.8-25.2-2-13-47.7s-83.7-40.7-94.9-56.4c-11.1-15.8-20.7-71.8 7.7-76.4 28.4-4.7 43.4 12.2 51.5 31l18.4 14.3c16.4 13 40.2 31.9 55.1 45a76.9 76.9 0 0113.6 13.7 90 90 0 013.4 18.6c2.8 24 5 61.7 5 61.7z" fill="#416050"/><path class="st5" d="M252.7 374c4.7 4 9.2 8 14.5 11.1 5.1 3 10.7 5.2 16 8.2 6 3.3 10.5 7.7 13.4 14 3 6.4 4.1 13.6 7.2 20 .7 1.5 2.8.4 2.5-1-1.3-6.6-4-13.6-6.8-19.7-2.5-5.5-6-10-11-13.4-5.2-3.5-11-5.7-16.6-8.4-6.6-3-12.8-7.3-18.7-11.5-.4-.3-.8.3-.5.6zM303.6 432.5c.1 3.7-.1 7.9.9 11.5.2 1 1.7 1 2 0 1-3.7 0-8.1-.8-11.8-.3-1.1-2.2-.9-2.1.3zM304.2 453.7c-.2 5.4-.3 10.8.7 16.2.7 3.5 1.6 4.1 4.4 5.8 5 3 2.8 12.6 2.7 17.6 0 6-1 12.5.4 18.2.2.8 1.4.8 1.6 0 1.5-5.7.7-12.3.7-18.2 0-4.9 1-10.6-.2-15.4-1-4.4-5.2-3.6-6.9-7.3-1-2.2-1-5.8-1.3-8.3l-1.5-8.7c0-.4-.6-.3-.6.1zM333 338c4 3.7 8 7.3 12.2 10.8 3.7 3.2 7.3 6.8 11.4 9.5 1.3 1 2.5-1 1.6-2-6.5-7.6-16-14-24.4-19.3-.6-.4-1.2.5-.7 1zM359.9 364.6c.9 1.5 1.5 3.2 1.9 5 .3 1.4.1 3 .9 4.3.3.5 1.2.6 1.5 0 1.4-3-1.2-7.6-3-10-.6-.8-1.8-.2-1.3.7zM363.7 378.7c-.3 12 1 24.6 1.8 36.7.1 2.8.7 6 3.5 7.4 2 1 5.2.2 6.7 2.4 1.6 2.2.6 8.4.7 11 0 1.6 2.3 1.6 2.5 0 .2-3 .6-10.5-1.9-13-.9-1-2-.8-3.1-1.2-2.3-1-4.7-2-5.4-4.8-.3-1.3-.2-3-.2-4.3-.3-11.4-.4-23.4-3.4-34.4-.1-.6-1.2-.5-1.2.2zM376 443.2l.5 11c.2 3.3-.3 6.9.8 10a1.4 1.4 0 002.7 0c1.1-3.4.4-7.2 0-10.7-.3-3.6-1-7-1.7-10.6-.3-1.3-2.5-1-2.4.3zM378.6 472.8c1 10.8 7.3 21.6 14.6 29.3 1.2 1.2 3.3-.3 2.3-1.7-6-9.2-12.3-17-15.4-27.8-.2-.8-1.6-.7-1.5.2z"/><path class="st6" d="M325 553.3c5.3.2 11.3 1.3 16.4-.2a1 1 0 000-1.9c-5-1.6-11-.4-16.3-.3-1.6.1-1.6 2.4 0 2.4zM351.9 554.4c6.3 1.7 13.5.8 20 .9l21.9-.1 21.8-.5c7.2-.2 14.7.4 21.9-.5.8 0 .8-1.1 0-1.2-7.2-1-14.7-.3-21.9-.5l-21.8-.5h-21.9c-6.5 0-13.7-.9-20 .8-.8.2-.8 1.4 0 1.6zM426.5 531.7c1 2.8 2.1 5.4 3.8 8 1.1 1.7 2.9 4.9 5.2 4.7.6 0 .9-.4 1-.9.1-2.2-2.6-4.1-3.8-5.8-1.5-2.2-2.9-4.5-4-7-.5-1.3-2.7-.4-2.2 1z"/><path d="M341.6 443.9l-25.2-2-13-47.7s-83.7-40.7-94.9-56.4c-11.1-15.8-20.7-71.8 7.7-76.4 28.4-4.7 43.4 12.2 51.5 31l18.4 14.3c-9.6 8.4-27 23.7-29.7 25.9-3.7 3 36.5-5.6 40.5-1.3S275 346 273.3 349.1c-1.9 3 55.8 27.3 57.3 33.1 1 3.8 7 37.8 11 61.7z" fill="#304b3b"/><g><path class="st8" d="M228 333a.8.8 0 01-.2-1.5 854.5 854.5 0 0051.6-12.1c.4.1.6.5.4 1-.1.4-.5 1.5-51.7 12.5h-.1zm50.4-13.2zm0 0z"/></g><g><path class="st8" d="M243.6 338.4a.8.8 0 010-1.5l43.7-3.5c.4 0 .8.3.8.7 0 .4-.3.8-.7.8l-43.8 3.5z"/></g><g><path class="st8" d="M335.7 428.8a.7.7 0 01-.7-.6l-7.8-49.6c-6-3.9-78.5-51-82-53.5a.7.7 0 11.8-1.2c3.6 2.5 81.5 53 82.3 53.6l.4.5 7.8 50a.8.8 0 01-.8.8z"/></g><path class="st9" d="M358.2 384c-5 .5-10.5-1.2-14.3-5-6.3-6.6-11-17.5-2.7-27.3a76.9 76.9 0 0113.6 13.7 90 90 0 013.4 18.6z"/><g><path class="st8" d="M340.1 358.8l-6.5-.7a.8.8 0 01-.7-.8c0-.4.5-.7.9-.7l6.4.7a.8.8 0 01-.1 1.5z"/></g><g><path class="st8" d="M334 364.4a.7.7 0 01-.1-1.5l4.3-1.2c.4 0 .8.1.9.5.1.4-.1.9-.5 1l-4.3 1.2h-.2z"/></g><g><path class="st8" d="M349 387.7a.7.7 0 01-.8-.8l1.2-6.8a.7.7 0 111.4.2l-1.2 6.8c0 .4-.3.6-.7.6z"/></g><g><path class="st10" d="M323 456.4l2.6 29.7 35.7-4.8-1.2-31.5z"/><path class="st2" d="M428.7 542.9H356l-4.6-9.6-1 9.6h-25.8c-4.6-24.4-2.3-61.6-2.3-61.6l39.2-3.7 5.9-.5c11 28 61.3 65.8 61.3 65.8z"/><path class="st11" d="M341 542.9h-16.4c-4.6-24.4-2.3-61.6-2.3-61.6l39.2-3.7c-12.6 12.4-23.2 38-20.6 65.3z"/><path class="st8" d="M345.7 534h-17.5a.8.8 0 010-1.4h17.5a.8.8 0 010 1.5zM406.3 534H360a.8.8 0 010-1.4h46.2a.8.8 0 010 1.5zM354.6 497.8a.7.7 0 01-.6-1.3c.4-.3 8.3-7.7 21-11.1a.7.7 0 11.4 1.4 52.4 52.4 0 00-20.8 11zM366 509a.8.8 0 01-.5-1.3c.1 0 9.5-7 18.1-10.2a.7.7 0 11.6 1.4A91.2 91.2 0 00366 509z"/><g><path class="st9" d="M372.6 432.4v31.4l-61.4.7-1.9-28.9-.3-4z"/><path d="M372.6 451.8v12l-61.4.7-1.9-28.9c8.5-.5 37.3-2 37.5.1.1 2.3 4.7 15.3 25.8 16z" fill="#364e41"/><path class="st8" d="M334.6 459.7a.7.7 0 01-.8-.7l-2.5-23.2a.7.7 0 111.5-.2l2.5 23.2a.7.7 0 01-.7.9zM340.8 457.2a.7.7 0 01-.7-.6l-3-15.6a.7.7 0 011.6-.3l2.9 15.6a.7.7 0 01-.8 1z"/></g></g></g><g id="RIGHT_LEG"><path class="st8" d="M218.7 332.2a.7.7 0 01-.5-1.2c2.2-2.8 5.5-7 5.6-8.1.2-1.5 0-21.1 0-28.6 0-.4.3-.7.7-.7.5 0 .8.3.8.7 0 1.1.2 27 0 28.7-.2 2-5 7.8-6 9l-.6.2z"/><path class="st13" d="M243.9 427.5c0 2.2-8 9.7-18 18.5-17.8 15.3-42.3 34.3-42.3 34.3l-31.2-34.2 28-34.4s-10.7-17.2-21.8-36.7c-10.3-18.2-21-38.4-23.8-48.7l-.6-2.9c-2.1-17.3 6-50.7 26.9-61.5 20.8-10.9 52.6-6 50.5 40a14102.9 14102.9 0 0027.7 105.3 374.5 374.5 0 014.6 20.3z"/><path class="st5" d="M126.2 315.7c0 7.4 2.3 13.8 4.7 20.7 2.6 7.1 5 14.5 8 21.5.7 1.5 3.2.4 2.8-1.1-2.1-7-5-13.6-7.5-20.3-2.5-6.7-6-13.6-6.6-20.8 0-.8-1.3-.9-1.4 0zM144.9 366.5l2.3 4.6c.7 1.4 1.3 3 2.4 4.2.5.5 1.5.1 1.5-.7-.2-3.3-3.1-6.5-5.2-9-.5-.5-1.4.2-1 .9zM158.1 389c4.7 8.3 8.4 17.3 10.7 26.5.5 1.8 3.4 1 2.9-.8-2.8-9.5-7-18-12.8-26.1-.3-.5-1 0-.8.4zM155 421.2c-3.1-1-5.9.1-8.4 2.3-4.2 3.8-7.9 8.5-11.9 12.6-5.3 5.6-8.3 13.3-2.2 19.7 1 1.1 3-.3 2-1.6-5-7-1.2-12.8 3.9-18.3 3.5-3.9 10.1-14.2 16.2-13 1.1.3 1.6-1.4.5-1.7zM129 460.4c-1.5 1.6-3.2 3-4.9 4.4-1.4 1.3.5 3.9 2.2 2.8 2-1.4 3.6-3.4 5-5.4 1-1.4-1.2-3.2-2.4-1.8z"/><path class="st6" d="M116.4 475.2c-5 5.5-12 8.9-17 14.5-5.7 6.5-11.8 13-17 20-1 1.4 1.3 3.1 2.6 1.9 6.2-6.2 11.5-13.5 17.2-20.2 4.7-5.5 11.1-9.2 15.6-14.9.7-.9-.5-2.2-1.4-1.3zM176.1 497.8c-.8 3.8-1.5 7.5-1.8 11.3-.3 3.4-1 7 .4 10.1.5 1.2 2 .6 2.4-.3 1.3-3 .7-6.6.8-9.8l.7-11c0-1.4-2.2-1.7-2.5-.3zM174.7 525.9c-.2 7.7 0 15.2 1 22.8.7 5.6.8 13.2 4.5 17.7 1 1.1 2.7-.1 2.4-1.4-3.3-12.7-5-26-5.7-39.1-.1-1.4-2.2-1.4-2.2 0z"/><path class="st5" d="M235.8 376.8c3.6 14 7.6 27.5 10 41.7.6 3.2 1.6 6.6 1.7 10 .2 3-.2 5.3-2.3 7.6-1.2 1.3-2.8 2.5-4 3.6-6 5-12 9.7-18.2 14.4-1.3 1 0 3.2 1.3 2.3a209 209 0 0018.5-15c2.4-2 6.4-4.4 7.6-7.5 1.2-2.7.2-6.2-.3-9-2.6-16.2-5-34.1-13.6-48.4-.2-.4-.8-.1-.7.3zM218.6 458.7l-2 2c-.5.7-.5 1.3-.2 2l-.2-.7v.3c0 .8.8 1.3 1.5 1.2h.3-.7c.6.1 1.2 0 1.6-.5l1.8-2.2c.6-.6.7-1.5 0-2.1-.5-.6-1.6-.6-2.1 0z"/><path class="st14" d="M243.9 427.5c0 2.2-8 9.7-18 18.5-17.8 15.3-42.3 34.3-42.3 34.3l-31.2-34.2 28-34.4s-10.7-17.2-21.8-36.7a209.4 209.4 0 0085 51l.3 1.5zM221.1 337.4l-3.8-.3c-30.5-4.8-69.3 8.3-64.6 3.6 4.8-4.8 17-15.1 15-15.9-1.3-.6-16.8-1-32.9 1.5l-.6-2.9c-2.1-17.3 6-50.7 26.9-61.5 20.8-10.9 52.6-6 50.5 40l9.5 35.5z"/><path class="st15" d="M243.9 427.5l-.1.5a91 91 0 01-18 18c-4.8-7.8-6-17.6-2.5-25.6a23 23 0 0116-13.2c2.8 11 4.6 18.8 4.6 20.3z"/><path class="st13" d="M243.8 428a91 91 0 01-18 18c-4.8-7.8-6-17.6-2.5-25.6 6.8 3 13.7 5.6 20.5 7.6z"/><g><path class="st8" d="M149 333a.7.7 0 01-.4-1.4 68 68 0 0133.7-12.8c21.7-1.8 31.8 8.6 32.3 9a.8.8 0 01-1.1 1c-.1 0-10.2-10.3-31.1-8.5A66.3 66.3 0 00149 333z"/></g><g><path class="st8" d="M167.3 337.9a.7.7 0 01-.5-1.3c.2-.1 15-14 40-8.6a.8.8 0 01-.3 1.5 44.3 44.3 0 00-39.2 8.4z"/></g><g><path class="st8" d="M179 439.7c-.3 0-.5-.1-.6-.3a.7.7 0 010-1l25.6-23.6-52.7-92.2-.1-.3c0-.4-.6-10.8 3.1-19.2a.8.8 0 011.4.7c-3.3 7.4-3 16.8-3 18.2l53 92.6c.1.3 0 .7-.2 1l-26 23.9-.6.2z"/></g><g><path class="st8" d="M229.4 420.9h-.1l-43.8-9.8a.7.7 0 11.3-1.5l43.8 9.8a.7.7 0 01-.2 1.5z"/></g><g><path class="st8" d="M215.2 426l-.3-.1-24.6-12a.8.8 0 01.7-1.4l24.6 12a.8.8 0 01-.4 1.4z"/></g><g><path class="st8" d="M231.5 414.3a.7.7 0 01-.7-.3l-3.2-4.7a.7.7 0 111.2-.9l3.3 4.7a.7.7 0 01-.6 1.2z"/></g><g><path class="st8" d="M229.1 417c-.2 0-.4 0-.5-.2l-4-4.2a.8.8 0 011.1-1l4 4.2a.8.8 0 01-.6 1.3z"/></g><g><path class="st8" d="M219.6 439.2a.8.8 0 01-.4-1.4l5-2.6a.8.8 0 01.6 1.4L220 439l-.3.1z"/></g><g><path class="st10" d="M152 452l-18.7 23.3 29.1 21.2 21-23.6z"/><path class="st2" d="M168.4 587.6L116 537.3l3.2-10.2-7.3 6.2-18.7-17.8c13.6-20.7 41-46 41-46l30.9 24.5 4.6 3.6c-11.3 28-1.3 90-1.3 90z"/><path class="st11" d="M105 526.8l-11.8-11.3c13.6-20.7 41-46 41-46l30.9 24.5c-17.7.1-43 11.4-60 32.8z"/><path class="st8" d="M115.1 524c-.2 0-.3 0-.5-.2L102 511.6a.8.8 0 011-1l12.6 12a.8.8 0 01-.5 1.4zM158.8 565.9c-.2 0-.3 0-.5-.2l-33.3-32a.8.8 0 011-1l33.4 32a.8.8 0 01-.6 1.2zM169 510.3h-.3a52.4 52.4 0 00-22-6.4.8.8 0 01-.8-.7c0-.4.3-.7.7-.8.5 0 11.3.2 22.8 6.5a.7.7 0 01-.3 1.4zM167 525h-.3c-8.3-3.5-19.6-5-19.7-5a.7.7 0 11.2-1.5s11.6 1.5 20 5.1a.8.8 0 01-.2 1.5z"/><g><path class="st15" d="M204.4 469l-21.8 22.7-44.8-42 18.7-22.2 2.5-3z"/><path class="st13" d="M191 483l-8.4 8.7-44.8-42 18.7-22.2c6.5 5.6 28.3 24.4 27 26-1.5 1.8-7.2 14.3 7.5 29.5z"/><path class="st8" d="M158.6 462.6a.7.7 0 01-.6-1.2l14.2-18.5a.8.8 0 011.2 1l-14.2 18.4-.6.3zM164.8 465.1h-.4a.7.7 0 01-.2-1.1l8.7-13.3a.8.8 0 011.3.8l-8.8 13.3c-.1.2-.4.3-.6.3z"/></g></g></g><g id="LEFT_ARM"><path class="st16" d="M439.5 202.8l-3 24.9-4 32.1s-105.8-10.4-116-14c-10.1-3.4-57.9-61-57.9-61l11-65.2s10 2 16.9 13c6.8 11 59.4 59.4 59.4 59.4l93.6 10.8z"/><path d="M436.4 227.7l-4 32.1s-105.7-10.4-115.9-14c-10.1-3.4-57.9-61-57.9-61l11-65.2s26.1 81.6 37.5 91.3c11.4 9.7 22.4-11 29.1-12.2 6.8-1.3 2.1 14.3 2.6 16.9.4 2.5 2.5-4.2 9.2-3.8 6.4.4 46.6 16.7 88.4 15.9z" fill="#802125"/><path class="st8" d="M329.4 233.6h-.2a.7.7 0 01-.5-1l13.4-36.4a.7.7 0 111.4.5 17088 17088 0 00-13.4 36.3c0 .4-.4.6-.7.6zM342 234a.8.8 0 01-.7-.7l2.5-31.6c0-.4.4-.7.8-.7.5 0 .8.4.7.8l-2.5 31.6c0 .4-.4.7-.7.7zM423.6 251.2h-.1a.7.7 0 01-.6-.8l6-43c0-.4.5-.6.9-.6s.7.5.6.9l-6 42.9c-.1.4-.4.6-.8.6z"/><circle class="st8" cx="373.7" cy="239" r="5.4"/><circle class="st8" cx="401.4" cy="242.7" r="5.4"/></g><g id="HEAD"><path class="st18" d="M212.4 119.9l-8.5.2-1.8-17.9-.3-2.5 8.8.3 1 11.5z"/><path class="st8" d="M211.7 111.5c-4.8-1.9-7.9-6.1-9.6-9.3l-.3-2.5 8.8.3 1 11.5z"/><g><path class="st10" d="M216 104.2a6.9 6.9 0 01-4.6 1.7 14.8 14.8 0 01-13.2-8.6c-1.9-3.9-1.8-7.8-1.8-7.8a19 19 0 010-6.3 8.2 8.2 0 013.6-5.4c1.2-.8 2.6-1.3 4.4-1.6 8-1.2 12.4 5 13 11 .7 6 2.2 13.8-1.5 17z"/><path class="st18" d="M211.4 105.9a14.8 14.8 0 01-13.2-8.6c-1.9-3.9-1.8-7.8-1.8-7.8a19 19 0 010-6.3 8.2 8.2 0 013.6-5.4l.3.3c.8 2.1 2.7 4 2.7 4s1 17.3 8.4 23.8z"/><path class="st8" d="M201.2 94.4l.2 2.8-3.3.1c-1.8-3.9-1.7-7.8-1.7-7.8-.3-2.3-.3-4.4 0-6.3 2.2-.2 5.7 3.5 5.7 3.5l.5 6.4-1.4 1.3z"/><path class="st19" d="M217.6 84.6s-5.5 2.8-12.7 3.4c-3.3.3-6.8.1-10.3-.9 0 0-.3-1.4-.4-3.4-.1-4.5 1-12 9.4-13.3h.2c8.7-1.2 12 5.3 13.1 10 .6 2.3.7 4.2.7 4.2z"/><path class="st16" d="M204.9 88c-3.3.3-6.8.1-10.3-.9 0 0-.3-1.4-.4-3.4-.1-4.5 1-12 9.4-13.3h.2a31.8 31.8 0 001 17.6z"/><path class="st2" d="M217.6 84.6s-5.9 3-13.4 3.4c-3 .3-6.3 0-9.6-.9 0 0-.3-1.4-.4-3.4 2.1.4 5.3.7 8.8.5 4.4-.3 9.4-1.2 14-3.9.5 2.4.6 4.3.6 4.3z"/><path d="M204.2 88c-3 .3-6.3 0-9.6-.9 0 0-.3-1.4-.4-3.4 2.1.4 5.3.7 8.8.5.3 1.4.7 2.7 1.2 3.8z" fill="#c17d34"/><path class="st19" d="M188.8 85.5a2 2 0 00.8 2.7c2.7 1.6 8.9 4.4 18.5 2.4 9.2-1.8 13.1-5.2 14.7-7.1a2 2 0 00-3-2.7c-1.9 1.9-5.9 4.9-12.4 5.7-7.6 1-13.2-.8-15.9-2a2 2 0 00-2.7 1z"/><path class="st18" d="M199.7 94.2s-2.5-3.7-5.4-1.8c-2.9 2 .1 12.2 7.7 7.7l-2.3-6z"/></g></g><g id="BODY"><path class="st19" d="M274.7 272.6l-6.4-28.7c8.4-46.7 1.7-124.3 1.7-124.3-25.8 2.1-62.6 1.4-62.6 1.4-32.5 3.7-57.6-4-57.6-4l-11 61 10.4 57s-15.3 45.7-23.6 71c26.8 12.7 66 22.9 83.2 25.2l19.4-31 1-1.6 10.3 29.9c22.4-8 50-33 50-33l-14.8-23z"/><path class="st5" d="M224.8 114.4c10 2 20 2.7 30.3 2.3 4.7-.2 9.8-1.2 14.5-.3 5.7 1.1 9.6 4.5 13 8.8 1.2 1.4 3.6-.4 2.6-2-5.2-7.6-14-10.5-23-10-12.4 1-24.8.8-37.3.1-.6 0-.7 1-.1 1zM156.5 113.4c9.9 2 19.7 3.4 29.8 4.6 2.2.2 2.2-3.3 0-3.6-9.9-1-19.7-2-29.6-2.7-1 0-1.2 1.5-.2 1.7zM288.1 128.6c1.1 2.3 2.8 5 5.3 6 1 .3 2-1 1.4-1.9-.8-1-1.8-1.7-2.7-2.5-1-.8-1.8-1.7-2.6-2.7-.7-.8-1.8.2-1.4 1.1z"/><path class="st16" d="M289.5 295.5s-27.6 25-50 33l-9.7-28-.6-1.9-1 1.6-19.4 31a347.5 347.5 0 01-83.2-25.3l16.3-49 7.3-21.8-.2-4-1.5-32.3a173.2 173.2 0 0037.7 37.2c6 4.3 11.2 7.3 14.7 8.6 3.7 1.4 8 2 12.8 2.2 14.4.4 32.2-3.6 42.4-5.9 13.5-3-10.8 9-24.5 15.9-7 3.5-2 9.8 8.7 14a56 56 0 0035.4 1.8l14.8 22.9z"/><path class="st5" d="M137.4 255.4c-3.6 5.7-6.2 12-8.7 18.2-2.6 6.6-5.5 13.6-6.5 20.7-.1 1 1.3 1.8 1.7.7 2.8-6 4.5-12.7 6.9-19 2.5-6.7 5.7-13.2 8-20 .4-.8-1-1.3-1.4-.6z"/><path d="M214.3 252c0 5-10.6 9.2-14.4 9.2s-7.2-4.8-7.2-4.8-6.2 6.1-13 5.8c-4.6-.2-25-3.3-37.8-5.2l7.3-22-.2-3.8 36.2 4.8 22.2 2.9s3.3 3.8 5.3 7.9c1 1.7 1.6 3.5 1.6 5.1z" fill="#6d1c20"/><path class="st8" d="M229.2 293.3a.7.7 0 01-.8-.7c.2-17.8-1.9-63.2-2-63.7a.7.7 0 111.6 0c0 .4 2.1 45.9 1.9 63.7 0 .4-.3.7-.7.7z"/><circle class="st8" cx="216.9" cy="244.6" r="3.7"/><circle class="st8" cx="218.1" cy="274.5" r="3.7"/><path class="st16" d="M244 179.6c4.4 8.9 7 22.9 7 22.9L226.8 221l-32-11.8c-2-9-1.3-28-1.3-28l-14.2-2c-6.8-28.8.6-50.6.6-50.6a117.7 117.7 0 0161-1.4c6.6 11.3 12.7 47.5 12.7 47.5l-9.7 4.8z"/><path class="st5" d="M244 177.6c4.4 9.3 6 20.5 6 20.5l-23.1 23-33.3-16.4c-1.9-9.4 0-25.3 0-25.3l-14-3c-6.8-30.2 1.5-55.7 1.5-55.7 3 0 7.1.2 10.4.7 15.2-3 28.4-2.4 37.4-1.1 7.2-.5 12.4-.1 12.4-.1 6.5 11.8 12 50.9 12 50.9l-9.3 6.5z"/><path class="st13" d="M226 218.7c-19.6-32-32.4-87.7-34.5-97.3 15.2-3 28.4-2.4 37.4-1.1 5 51.3-3 98.4-3 98.4z"/><g><path class="st8" d="M225.3 208.2a.8.8 0 01-.7-.7c-2.1-27.5-12-73-12.2-73.4a.7.7 0 111.5-.4c.1.5 10 46 12.2 73.7a.8.8 0 01-.8.8z"/></g><path class="st13" d="M199.4 114c3.7-1.9 14.9-3.1 19.7 0 0 0 1.6 5 1.8 8.1 0 0-1.6 2.8-8.2 4.3s-14.6-2.8-14.6-2.8l1.3-9.7z"/><g><path class="st19" d="M225.3 125.2c0 1.4-.3 2.5-.7 2.8-1.4 1.3-9.4-.8-9.4-.8s-1.7-2.2-.8-5l.6-.6c1.7-1.4 6.3-5 8-4.5 1.6.5 2.4 5 2.3 8.1z"/><path class="st16" d="M225.3 125.2c0 1.4-.3 2.5-.7 2.8-1.4 1.3-9.4-.8-9.4-.8s-1.7-2.2-.8-5l.6-.6c2 .8 2.7 2.3 3.3 3.7.6 1.3 5.6 2 7 0z"/><path class="st19" d="M216.2 126.3c-.3 2.4-1.8 3.4-4 3.6-2.8.2-5.3-.3-6-4.4-.2-2.3 0-3.9.7-4.9.6-.8 1.6-1.3 3.2-1.4 2.9-.2 5.6.6 6.1 4.8v2.3z"/><path class="st16" d="M216.2 126.3c-.3 2.4-1.8 3.4-4 3.6-2.8.2-5.3-.3-6-4.4-.2-2.3 0-3.9.7-4.9.1 2.4 1 7 4.7 7 2.5 0 3.9-.6 4.6-1.3z"/><path class="st19" d="M207.3 122.6s-7.7-3.6-9.6-2.4-.4 10 1.3 10.9c1.8.8 9-3.3 9-3.3s1-2.6-.7-5.2z"/></g></g><g id="RIGHT_ARM"><path class="st10" d="M246.8 205c-.6 2.5-2.5 5.1-4.4 5.4-3.3.4-22.7 1-22.7 1s2.4 24.6-2.5 31.8c-4.9 7.1-15.1 7.1-16 7-1-.2-4.5-5.7-4.5-5.7s-11.2 3.7-17.7 3.2-19.8-10.7-19.8-10.7L164 217l3.3-14c.7 0 20-4.3 21.5-4.5 1.5-.2 54.6-.2 57.2 2.1 1 1 1.2 2.6.8 4.3z"/><path class="st18" d="M246.8 205c-.6 2.5-2.5 5.1-4.4 5.4-3.3.4-22.7 1-22.7 1s2.4 24.6-2.5 31.8c-4.9 7.1-15.1 7.1-16 7-1-.2-4.5-5.7-4.5-5.7s-11.2 3.7-17.7 3.2-19.8-10.7-19.8-10.7L164 217l16.5 1.3c.6 0 10.6 14.4 17.9 18.5 7.3 4 18.5-30.3 18.5-30.3l29.9-1.6z"/><path class="st8" d="M217.2 235.8a.8.8 0 01-.7-.6l-5.2-23a.8.8 0 011.4-.2l5.2 22.9a.8.8 0 01-.7.9z"/><g><path class="st8" d="M212.2 242.3a.8.8 0 01-.7-.5l-5.4-16.4a.7.7 0 111.4-.5l5.4 16.4a.8.8 0 01-.7 1z"/></g><g><path class="st19" d="M170.3 198.4l-2.9 25.6-2.7 24.2s-50-5.9-82.9-14.7c-15.4-4.1-27-8.9-28-14-.5-2.1.4-5.6 2.3-10 1.7-3.9 4.3-8.6 7.5-13.8 19.9-31.8 64.2-81 85.5-78.7 9.3 1 13.9 7 15 15.3 1 7.1-.6 16-3.9 24.6-7 18.7-29.9 36.9-29.9 36.9l40 4.6z"/><path class="st5" d="M74 239c5.1 3.7 10 6.4 16 8.4 4.9 1.7 11 3.6 16.1 2.4.6-.1.8-1 .2-1.3-4.5-2.1-9.8-2.5-14.6-4-5.7-1.7-11.6-4-17-6.7-.7-.4-1.4.7-.6 1.2zM119.1 251l5.2 1.2c1.4.3 2.8.7 4.2.4.5-.1.5-.7.1-1-1.2-.8-2.7-.9-4.2-1.1l-5-.8c-.8-.1-1.1 1.1-.3 1.3zM84.8 157.8a173.4 173.4 0 0132.3-31.3c3.8-2.9 8-5.4 11.4-8.7.6-.6 0-1.7-.8-1.4a73.5 73.5 0 00-24.3 16.7c-7.7 7-14.6 14.8-20.1 23.5-.6.9.8 2 1.5 1.2z"/><path class="st6" d="M64.7 177.6c-9 11.7-20 26.4-18.3 42 .1 1.5 2.2 1.6 2.2 0 .5-8.3 2-15.7 6-23.2 3.3-6.3 7.6-12.1 11.7-17.9.7-1-.9-1.8-1.6-1zM50 228.7c2.5 2.2 6.6 5.5 10.2 5 1.1 0 1.5-1.3.6-2-1.4-1-3.3-1.3-4.8-2-1.7-.7-3.3-1.5-4.9-2.5-.9-.6-2 .8-1.2 1.5zM71.5 172.7l3.2-2.7c1.3-1.1-.7-3.3-2-2l-3 3c-1 1.2.6 2.7 1.8 1.7z"/><path class="st5" d="M136.5 114c2-.5 4-.9 6-1.1 1.7-.3 3.7-.1 5.1-1.2.6-.4.7-1.3 0-1.7-1.7-1-3.8-.5-5.6-.1-2.2.4-4.3 1.3-6.3 2.2-1 .5-.3 2.2.8 1.9z"/><path class="st16" d="M160.2 157c-7 18.6-29.9 36.8-29.9 36.8-12.9.3-32.9 6-33.5 6.2 1.2-.9 54.6-40.5 67.3-67.7 1 7.1-.6 16-3.9 24.6zM167.4 224l-2.7 24.2s-50-5.9-82.9-14.7c-15.4-4.1-27-8.9-28-14-.5-2.1.4-5.6 2.3-10 21 11 87.4 13.8 111.3 14.5z"/><path d="M81.8 233.5c-15.4-4.1-27-8.9-28-14-.5-2 .4-5.5 2.2-9.7l.1-.3c1.7-3.9 4.3-8.6 7.5-13.8 7.3 1.8 17.7 6.8 19.4 21.4.6 4.5.3 9.9-1.2 16.4z" fill="#ce5d79"/><path class="st19" d="M81.8 233.5c-15.4-4.1-27-8.9-28-14-.5-2 .4-5.5 2.2-9.7l.1-.3a100 100 0 0027 7.6c.5 4.5.2 9.9-1.3 16.4z"/><path class="st8" d="M70.8 202.7a.7.7 0 01-.4-1.4c.1-.1 4-3.3 6.2-4.7a.8.8 0 01.8 1.3 101.4 101.4 0 00-6.6 4.8z"/><g><path class="st8" d="M74.4 204.7a.7.7 0 01-.4-1.4l4.8-3a.8.8 0 01.8 1.2l-4.8 3-.4.2z"/></g><g><path class="st8" d="M86.9 228.7h-.2l-7.1-2a.8.8 0 01.4-1.4l7 1.9a.8.8 0 01-.1 1.5z"/></g><circle class="st8" cx="124" cy="232.4" r="5"/><circle class="st8" cx="144.5" cy="235" r="5"/><g><path class="st8" d="M156.4 242.1a.8.8 0 01-.7-.8l4.8-40.2a.8.8 0 011.5.2l-4.8 40.2c0 .4-.4.6-.8.6z"/></g><g><path class="st8" d="M100.5 209a.7.7 0 01-.4-1.4c7-5.6 14.4-9.4 18.9-11.5-16 1.9-32.3 7.3-32.5 7.4a.8.8 0 01-.5-1.4c.2-.1 20-6.8 37.6-8 .4 0 .7.3.8.7 0 .3-.2.7-.5.8a96.2 96.2 0 00-23.4 13.3z"/></g></g></g><g id="CALCULATOR"><g class="st23"><path class="st24" d="M441.4 317.6l-132.8 4c-1.5 0-2.8-.4-4-1l-20.9-13.4c1.1.8 2.5 1.1 4 1l132.8-3.8 21 13.2z"/><path class="st11" d="M473.6 100.8L458.7 235l-2.8 26-5.3 47.6c-.6 4.9-4.6 9-9.2 9l-20.9-13.2c4.5-.2 8.6-4.2 9.2-9l6-55 1.1-10 15.9-143c.3-3.2-1-6-3.3-7.4l21 13.2a7.7 7.7 0 013.2 7.6z"/><path class="st2" d="M452.7 87.5l-15.9 142.9-1 10-6.1 55c-.6 4.8-4.7 8.8-9.2 9l-132.8 3.9c-4.5.1-7.8-3.7-7.2-8.6l23-207.8c.5-4.9 4.6-9 9.1-9l132.9-4c4.5-.1 7.7 3.7 7.2 8.6z"/><path class="st8" d="M458.7 235l-2.8 26s-1.6-4.5-6.9-13c-5.3-8.5-5.8-7.4-12-7.5-.4 0-.9 0-1.3-.2l1.1-10c6 .5 16.5 1.7 22 4.7z"/><path class="st24" d="M436.8 230.4l-1 10c-5-.7-5.5-4.8-3.5-10.3 0 0 1.8 0 4.5.3z"/><path class="st5" d="M330 149.8c4.5-.1 7.7 3.8 7.1 8.6l-2 17.3c-.7 4.9-4.8 9-9.3 9l-18.8.3c-4.6 0-7.7-3.8-7.2-8.6L302 159c.6-4.8 4.8-8.8 9.3-8.9l18.8-.3zM377.2 149c4.5-.1 7.7 3.7 7.1 8.6l-2 17.3c-.6 4.9-4.8 8.9-9.3 9l-18.8.3c-4.5 0-7.7-3.8-7.1-8.7l2-17.3c.7-4.8 4.8-8.8 9.3-9l18.8-.3zM424.5 148.1c4.5 0 7.7 3.8 7 8.7l-2 17.3c-.6 4.9-4.7 8.9-9.3 9l-18.8.3c-4.5 0-7.7-3.8-7-8.7l2-17.3c.6-4.9 4.8-8.9 9.3-9l18.8-.3zM323.5 203.3c4.5 0 7.7 3.8 7.1 8.7l-2 17.3c-.7 4.9-4.8 8.9-9.3 9l-18.8.3c-4.5 0-7.7-3.8-7.1-8.7l2-17.3c.6-4.8 4.8-8.8 9.3-9l18.8-.3zM370.7 202.5c4.6 0 7.7 3.8 7.2 8.7l-2.1 17.3c-.6 4.9-4.8 8.9-9.3 9l-18.8.3c-4.5 0-7.7-3.8-7.1-8.7l2-17.3c.7-4.9 4.8-8.9 9.3-9l18.8-.3zM317 257c4.5-.1 7.7 3.7 7.1 8.6l-2 17.3c-.6 4.9-4.8 8.9-9.3 9l-18.8.3c-4.5 0-7.7-3.8-7.1-8.7l2-17.3c.7-4.9 4.8-8.9 9.3-9l18.8-.3zM364.3 256.1c4.5 0 7.7 3.8 7 8.7l-2 17.3c-.6 4.8-4.8 8.8-9.3 9l-18.8.3c-4.5 0-7.7-3.8-7-8.7l2-17.3c.6-4.9 4.7-8.9 9.3-9l18.8-.3z"/><g class="st23"><path class="st8" d="M341.2 161.1c.4-3.3-.9-6-3.1-7.6l-4.2-2.6a7.7 7.7 0 013.2 7.5l-2 17.3c-.7 4.9-4.8 9-9.3 9l-18.8.3a7 7 0 01-4-1l4.2 2.6a7 7 0 003.9 1.1l18.8-.3c4.5-.1 8.7-4.1 9.3-9l2-17.3zM388.5 160.3c.4-3.3-1-6.1-3.2-7.6l-4.1-2.7a7.7 7.7 0 013.1 7.6l-2 17.3c-.6 4.9-4.8 8.9-9.3 9l-18.8.3a7 7 0 01-4-1.1l4.2 2.7a7 7 0 004 1l18.7-.3c4.6 0 8.7-4 9.3-8.9l2-17.3zM432.5 151.9l-4.1-2.7a7.7 7.7 0 013.2 7.6l-2.1 17.3c-.6 4.9-4.7 8.9-9.3 9l-18.8.3a7 7 0 01-3.9-1.1l4.2 2.7a7 7 0 003.9 1l18.8-.3c4.5 0 8.6-4 9.2-9l2.1-17.2c.4-3.3-.9-6.1-3.2-7.6zM331.6 207.1l-4.2-2.7a7.7 7.7 0 013.2 7.6l-2 17.3c-.7 4.9-4.8 8.9-9.3 9l-18.8.3a7 7 0 01-4-1.1l4.2 2.7a7 7 0 004 1l18.7-.3c4.5 0 8.7-4 9.3-8.9l2-17.3c.5-3.3-.9-6.1-3.1-7.6zM378.8 206.3l-4.1-2.7a7.7 7.7 0 013.2 7.6l-2.1 17.3c-.6 4.9-4.8 8.9-9.3 9l-18.8.3a7 7 0 01-4-1.1l4.2 2.7a7 7 0 004 1l18.8-.3c4.5 0 8.6-4 9.2-9L382 214c.4-3.3-1-6.1-3.2-7.6zM325 260.7l-4-2.7a7.7 7.7 0 013.1 7.6l-2 17.3c-.6 4.9-4.8 8.9-9.3 9l-18.8.3a7 7 0 01-4-1.1l4.2 2.7a7 7 0 004 1l18.7-.3c4.5 0 8.7-4 9.3-9l2-17.2c.5-3.3-.8-6.1-3.1-7.6zM372.3 259.9l-4.1-2.7a7.7 7.7 0 013.2 7.6l-2.1 17.3c-.6 4.8-4.8 8.8-9.3 9l-18.8.3a7 7 0 01-3.9-1.1l4.1 2.6a7 7 0 004 1.1l18.8-.3c4.5 0 8.6-4 9.2-9l2.1-17.3c.4-3.2-.9-6-3.2-7.5zM426 205.5l-4-2.7a7.7 7.7 0 013.1 7.6l-8.6 70.9c-.6 4.8-4.7 8.8-9.2 8.9l-18.8.3a7 7 0 01-4-1l4.2 2.6a7 7 0 004 1.1l18.7-.3c4.5-.1 8.7-4.1 9.3-9l8.5-70.9c.4-3.2-.9-6-3.1-7.5z"/><g><path class="st5" d="M418 201.7c4.5 0 7.7 3.8 7.1 8.7l-8.6 70.9c-.6 4.8-4.7 8.8-9.2 8.9l-18.8.3c-4.5.1-7.7-3.8-7.1-8.6l8.5-71c.6-4.8 4.8-8.8 9.3-8.9l18.8-.3z"/></g></g><g><path class="st8" d="M438 103.2l-2 17.3c-.6 4.9-4.7 8.9-9.3 9l-113.2 2c-.7 0-1.3-.1-1.9-.3-3.5-.8-5.8-4.3-5.3-8.4l2.1-17.3c.6-4.9 4.8-9 9.3-9l113.3-2c2.4 0 4.5 1.1 5.7 3 1.1 1.4 1.6 3.5 1.4 5.7z"/><path class="st24" d="M436.7 97.4a7 7 0 00-1.8-.2l-113.3 2c-4.5 0-8.7 4-9.2 9l-2.1 17.2c-.3 2.3.2 4.3 1.3 5.8-3.5-.8-5.8-4.3-5.3-8.4l2.1-17.3c.6-4.9 4.8-9 9.3-9l113.3-2c2.4 0 4.5 1.1 5.7 3z"/></g></g><path class="st10" d="M472.3 234.3c-1 7.1-2.1 13.4-2.6 15-1.2 4-13.8 11-13.8 11l1.3-11.6-9-13.8-7.3.7c-4.6.4-10.4-1-11.2-5-.1-.8 0-3.4.2-6.9.8-11.8 3.2-33.9 3.2-33.9.8-1.9 18.5-5.8 21.8-4.2 3.2 1.5 18.8 20 19.8 24.1a149 149 0 01-2.4 24.6z"/><path class="st18" d="M472.3 234.3c-1 7.1-2.1 13.4-2.6 15-1.2 4-13.8 11-13.8 11l1.3-11.6-9-13.8-7.3.7c-4.6.4-10.4-1-11.2-5-.1-.8 0-3.4.2-6.9 4.5 3.4 17 1.7 20.7 2 4.4.3 10 12.4 14.4 15.6 2.8 2 5.4-.9 7.3-7z"/><path class="st8" d="M465.6 213.9a.7.7 0 01-.6-.3 135.5 135.5 0 00-11.4-13.6 686 686 0 00-12.8 2.5.8.8 0 01-.3-1.5c.5-.1 12-2.4 13.2-2.5.4 0 1.5-.1 12.5 14.2a.7.7 0 01-.6 1.2zm-12-14zM462.2 228.8a.7.7 0 01-.7-.3c-3.5-5.3-7.7-11-8.6-11.6l-13 1.2a.8.8 0 01-.2-1.5c2.1-.2 12.3-1.4 13.5-1.1a50 50 0 019.6 12.1.7.7 0 01-.6 1.2z"/><g><path class="st5" d="M469.2 196c5.1 4.3 8.9 10 10.4 16.5 1.7 7.6-.9 13.5-2.5 20.7-.2 1 1 1.8 1.7 1 5.2-5.3 5.7-15 4.1-21.8a30 30 0 00-12.7-17.7c-.8-.6-1.8.7-1 1.4zM476.7 239c-1 4-3.3 8.2-3.3 12.3 0 .8 1 1.3 1.6.7 3-3.2 3.5-8.1 4.2-12.2.2-1.6-2.1-2.4-2.5-.7zM470 258.6l-7.7 3.9c-2.2 1-4.9 2-6.8 3.7-1.1 1 .1 2.6 1.4 2.3 2.5-.4 4.8-2.1 7-3.4 2.4-1.4 4.8-3 7.1-4.6 1.1-.8.1-2.6-1-1.9zM348.7 329.9c12.9 1 25.9 1.1 38.8 1.2 12.1 0 25.2 1.2 37.2-.7 1.7-.3 1-2.6-.4-2.8-6.2-.7-12.7-.1-19 0h-18.8c-12.6 0-25.2-.5-37.8-.1-1.6 0-1.5 2.2 0 2.4z"/></g></g><g id="DOTS"><path class="st5" d="M479.3 170.3a7.6 7.6 0 110-15.3 7.6 7.6 0 010 15.3zm0-13.3a5.6 5.6 0 100 11.3 5.6 5.6 0 000-11.3zM144.5 408.5a3.5 3.5 0 110-7 3.5 3.5 0 010 7zm0-5a1.5 1.5 0 100 3 1.5 1.5 0 000-3zM406.5 448.3a6.1 6.1 0 110-12.2 6.1 6.1 0 010 12.2zm0-10.2a4.1 4.1 0 100 8.2 4.1 4.1 0 000-8.2zM328.3 71.5a4.3 4.3 0 110-8.6 4.3 4.3 0 010 8.6zm0-6.6a2.3 2.3 0 100 4.6 2.3 2.3 0 000-4.6zM164.4 98.5a6.4 6.4 0 110-12.8 6.4 6.4 0 010 12.8zm0-10.8a4.4 4.4 0 100 8.8 4.4 4.4 0 000-8.8zM265.5 109.4a2.8 2.8 0 110-5.6 2.8 2.8 0 010 5.6zm0-3.6a.8.8 0 100 1.6.8.8 0 000-1.6zM113 325.4a3.4 3.4 0 110-6.9 3.4 3.4 0 010 6.9zm0-4.9a1.4 1.4 0 100 2.9 1.4 1.4 0 000-2.9zM267.4 485a6.2 6.2 0 110-12.5 6.2 6.2 0 010 12.5zm0-10.5a4.2 4.2 0 100 8.5 4.2 4.2 0 000-8.5zM258.6 397.2a4.2 4.2 0 110-8.4 4.2 4.2 0 010 8.4zm0-6.4a2.2 2.2 0 100 4.4 2.2 2.2 0 000-4.4zM394.3 356.6a4.2 4.2 0 110-8.3 4.2 4.2 0 010 8.3zm0-6.3a2.2 2.2 0 100 4.3 2.2 2.2 0 000-4.3z"/></g></g></switch></svg>