<svg xmlns="http://www.w3.org/2000/svg" viewBox="0 0 600 600"><style>.st1{fill:#dbbc92}.st4{fill:#e09432}.st5{fill:#e9b36b}.st6{fill:#fff}.st7{fill:#e5e5e5}.st8{fill:#5b8b72}.st9{fill:#bb233d}.st10,.st11{fill:none;stroke-width:2;stroke-miterlimit:10}.st10{stroke-linecap:round;stroke-linejoin:round;stroke:#5b8b72}.st11{stroke:#fff}.st12{fill:#ddb987}.st13{fill:#902429}.st14{fill:#d05c79}.st15{fill:none;stroke:#1b2d3d;stroke-linecap:round;stroke-linejoin:round;stroke-miterlimit:10}.st16{fill:#8c4d41}.st17{fill:#c47d33}.st18{fill:#416050}.st19{fill:#304b3b}.st21{fill:#4a775e}.st22{fill:#83be9c}.st23{fill:#1b2d3d}.st24{fill:#6d1c1f}.st25{fill:#cc8273}.st26{fill:#597e69}.st28{fill:#bd6a5c}</style><switch><g><linearGradient id="SVGID_1_" gradientUnits="userSpaceOnUse" x1="0" y1="-620" x2=".7" y2="-619.3"><stop offset="0" stop-color="#dddee2"/><stop offset=".2" stop-color="#d9dade"/><stop offset=".4" stop-color="#cdced2"/><stop offset=".6" stop-color="#b8babd"/><stop offset=".7" stop-color="#9b9ea0"/><stop offset=".9" stop-color="#777a7c"/><stop offset="1" stop-color="#676b6c"/></linearGradient><g opacity=".4" id="SHADOW"><path class="st1" d="M182.5 563c-55-.2-49.8 15.1-1.7 15.1s48.4-14.8 1.7-15z"/><path class="st1" d="M506.5 516.8c-82.4 0-250-2.3-250-2.3-64.8 0-118.8-4.6-139.4 0-20.6 4.5-6.2 8.8-6.2 8.8s-61.3-4.3-76 4C20 535.6 52 554.6 121 550.8c69-3.8 110-1.5 145.5 21.3 35.4 22.8 144.2 10 168 3 23.7-7 13.1-21.6-17.8-20.3-31 1.3-7.6-9.9 67.8-4 75.3 5.9 104.3-34 21.9-34zm-315.4 20.1c-30.4 2.1-41.3-2.2-21.8-3.8 31.5-2.6 52.3 1.7 21.8 3.8zm130.4 20c-12-2.1-6.4-9.8-30.4-10.2-24-.4-36.4-6-19.4-6.6 28-1 46.4 1.5 52.3 5.3 6 3.7 38.3-3.8 39.1 3.1s-29.7 10.5-41.6 8.4z"/></g><g id="BACKGROUND"><path d="M132 64.3c-32.3 3.4-29.7 34.3-31.6 74.2-2 39.9-42.5 23.6-52 68S41.2 367.3 56 387.6c14.8 20.3 70.8 9 81.8 62.8 9.3 46 86.5 50.1 84.8-1.9-1.4-41.2 77.5-48.3 82.4 2.3s44.2 19.6 107 26.3 72.8-20.7 71.9-51 40.2-13 49-45.8 9-180.6 0-199.6-24.8-7-28.5-63.9-75.1-56.4-80.2-9.6c-5 46.8-41.4 49.4-45.3 6.7S353.6 61.8 313 61c-40.6-1-66.6-2-81.7 7-18.8 11.4-15.7 56.2-32.3 57-45.7 2.2-9.2-66.7-67-60.7z" fill="#f1d5a7"/><g opacity=".5"><path class="st4" d="M389.9 143.6c-36.7 0-28.7 45.6-29.6 62.2-.9 16.6 6.8 39.9 30.5 39.9s21-33.6 21-53.8 1-48.3-22-48.3zM383.1 270c-28.3 0-29.5 42.5-29 73.8S353 414 387.4 414s27.1-50.8 27.7-77.4c.6-26.6 2.4-66.8-31.9-66.8z"/><path class="st5" d="M383.1 285.3c-16.2 0-19.9 48 1.6 48 21.6 0 20-48-1.6-48z"/><g><path class="st4" d="M199 141.9c-32.3 4.2-30.3 39.9-30.3 96.1s5 102.9 17.4 127c12.4 24.2 50 50 71.4 43.3a31 31 0 0013-51.7c-17.5-17.4-27.6-33.7-29.3-67.5s-2.2-65.2-5-105.6-19.7-43.9-37.1-41.6z"/><path class="st5" d="M200.7 164.3c-25 0-26.7 78.7 3.7 78.1 30.4-.5 29.2-78.1-3.7-78.1z"/></g></g></g><g id="SPRINT_PLANNING"><path class="st6" d="M185.6 104.3h238.5v172.3H185.6z"/><path class="st7" d="M286.5 188.8c9.7-19.7 5.3-47.7 5.3-47.7h40.3s4.3 28-5.4 47.7h-40.2z"/><path class="st7" d="M295.4 198c9.7-19.7 5.4-47.8 5.4-47.8H341s4.4 28-5.3 47.8h-40.3zM354.4 262.4c9.8-19.8 5.4-47.8 5.4-47.8h40.3s4.3 28-5.4 47.8h-40.3z"/><path class="st7" d="M363.4 271.5c9.7-19.7 5.4-47.8 5.4-47.8H409s4.4 28-5.4 47.8h-40.2zM256.4 166.7c-9.7-19.8-5.4-48-5.4-48h-40.2s-4.4 28.2 5.4 48h40.2zM256.4 262.7c-9.7-19.8-5.4-48-5.4-48h-40.2s-4.4 28.2 5.4 48h40.2zM313.2 262.7c-9.7-19.8-5.4-48-5.4-48h-40.3s-4.3 28.2 5.4 48h40.3z"/><path class="st4" d="M256.4 159c-9.7-16.6-5.4-40.3-5.4-40.3h-40.2s-4.4 23.7 5.4 40.3h40.2z"/><path class="st8" d="M236.6 122.6h-10.7c-.6 0-1.2-.5-1.2-1.2v-5.9c0-.6.6-1.2 1.2-1.2h10.7c.7 0 1.2.6 1.2 1.2v6c0 .6-.5 1.1-1.2 1.1z"/><path class="st4" d="M256.4 255c-9.7-16.7-5.4-40.3-5.4-40.3h-40.2s-4.4 23.6 5.4 40.2h40.2z"/><path class="st9" d="M236.6 218.6h-10.7c-.6 0-1.2-.6-1.2-1.2v-6c0-.6.6-1.1 1.2-1.1h10.7c.7 0 1.2.5 1.2 1.2v5.9c0 .6-.5 1.2-1.2 1.2z"/><path class="st4" d="M295.4 190.5c9.7-16.6 5.4-40.3 5.4-40.3h40.3s4.3 23.7-5.5 40.3h-40.2z"/><path class="st9" d="M286.4 181.3c9.8-16.6 5.5-40.2 5.5-40.2H332s4.3 23.6-5.4 40.2h-40.3z"/><path class="st4" d="M306.3 145h10.6c.7 0 1.2-.6 1.2-1.2v-6c0-.6-.5-1.1-1.2-1.1h-10.6c-.7 0-1.2.5-1.2 1.2v5.9c0 .6.5 1.2 1.2 1.2z"/><g><path class="st9" d="M363.4 263.9c9.7-16.6 5.4-40.3 5.4-40.3H409s4.4 23.7-5.4 40.3h-40.2z"/><path class="st4" d="M354.4 254.7c9.7-16.6 5.4-40.2 5.4-40.2h40.3s4.3 23.6-5.4 40.2h-40.3z"/><path class="st8" d="M374.2 218.4H385c.7 0 1.2-.6 1.2-1.2v-6c0-.6-.5-1.1-1.2-1.1h-10.7c-.6 0-1.2.5-1.2 1.2v5.9c0 .6.6 1.2 1.2 1.2z"/></g><g><path class="st7" d="M359 188.8c9.6-19.7 5.3-47.7 5.3-47.7h40.3s4.3 28-5.4 47.7h-40.3z"/><path class="st4" d="M358.9 181.3c9.7-16.6 5.4-40.2 5.4-40.2h40.3s4.3 23.6-5.5 40.2H359z"/><path class="st9" d="M378.7 145h10.7c.6 0 1.2-.6 1.2-1.2v-6c0-.6-.6-1.1-1.2-1.1h-10.7c-.6 0-1.2.5-1.2 1.2v5.9c0 .6.6 1.2 1.2 1.2z"/></g><g><path class="st8" d="M313.2 254.7c-9.7-16.6-5.4-40.2-5.4-40.2h-40.3s-4.3 23.6 5.4 40.2h40.3z"/><path class="st4" d="M293.4 218.4h-10.7c-.7 0-1.2-.6-1.2-1.2v-6c0-.6.5-1.1 1.2-1.1h10.7c.6 0 1.2.5 1.2 1.2v5.9c0 .6-.6 1.2-1.2 1.2z"/></g><g><path class="st10" d="M271.8 201.2h133.7M271.8 129.3h133.7M351.3 129.3v71.9M324 201.2v64"/></g><g><path class="st4" d="M424.2 196.1c.8 1.7.5 3.4.6 5v15.1l.2 20.2v40.2c0 .4-.4.8-.9.8l-29.8.1H185.6a.8.8 0 01-.8-.9l-.1-21.5V168.9v-43l.2-21.6c0-.4.3-.7.7-.7H230l7.3.1h3.7c1.3 0 2.5 0 3.7.5a.1.1 0 010 .2c-1.2.5-2.4.5-3.7.5h-11l-14.8.2h-29.5l.7-.8.2 21.6v150.7l-.9-.8 119.3-.1h89.4l29.8.1-.8.8V216.2l.1-10v-5c0-1.7-.1-3.4.6-5a.1.1 0 01.2 0zM390.6 104.2c1.4-.5 2.8-.5 4.2-.6a168.6 168.6 0 018.4-.2h8.3l4.2.2 8.4.2c.3 0 .5.2.5.5l.4 11v5.4l.1 5.4v11l-.1 5.4c-.1 1.8 0 3.7-.8 5.5a.1.1 0 01-.2 0c-.7-1.8-.7-3.7-.8-5.5v-16.4-5.4-5.5l.4-10.9.5.5-8.4.2-4.2.1-4.1.1h-4.2a200.6 200.6 0 01-8.4-.2c-1.4 0-2.8 0-4.2-.6a.1.1 0 010-.2zM300.4 104.2l2.2-.3a92 92 0 015.7-.4l3.9-.1 4.3.1a78.9 78.9 0 009.3 0l9.4-.2h4.3l3.8.1a96.8 96.8 0 018 1l-2.2.3c-1.4.2-3.4.4-5.8.5l-3.8.2h-4.3c-3-.2-6.2-.2-9.4-.3a152.3 152.3 0 00-9.3 0l-4.3.1h-3.9a92.1 92.1 0 01-8-1z"/></g><g><circle class="st8" cx="261.5" cy="104.3" r="5.1"/><circle class="st8" cx="281.5" cy="104.3" r="5.1"/><circle class="st8" cx="369.3" cy="104.3" r="5.1"/><circle class="st8" cx="424.1" cy="159.1" r="5.1"/><circle class="st8" cx="424.1" cy="179.7" r="5.1"/></g></g><g id="TEXT"><path class="st9" d="M377.8 314.5H211.3a8.7 8.7 0 01-8.7-8.8v-1.1c0-4.8 3.9-8.7 8.7-8.7h166.5c4.9 0 8.8 3.9 8.8 8.7v1.1c0 4.8-4 8.8-8.8 8.8z"/><path class="st6" d="M282.9 354h-71.6a8.7 8.7 0 01-8.7-8.7V344c0-4.8 3.9-8.7 8.7-8.7h71.6c4.8 0 8.7 4 8.7 8.7v1.2c0 4.8-4 8.7-8.7 8.7zM316.5 354h-1.1a8.7 8.7 0 01-8.8-8.7V344c0-4.8 4-8.7 8.8-8.7h1.1c4.8 0 8.7 4 8.7 8.7v1.2c0 4.8-3.9 8.7-8.7 8.7zM351.1 354H350a8.7 8.7 0 01-8.7-8.7V344c0-4.8 3.9-8.7 8.7-8.7h1.1c4.8 0 8.7 4 8.7 8.7v1.2c0 4.8-3.9 8.7-8.7 8.7z"/></g><g id="DOTS"><circle class="st11" cx="450" cy="101.4" r="7"/><circle class="st11" cx="436.6" cy="422.2" r="2.7"/><circle class="st11" cx="438.6" cy="466.5" r="5.4"/><circle class="st11" cx="336.6" cy="79.9" r="3.5"/><circle class="st11" cx="141.7" cy="89.1" r="5.7"/><circle class="st11" cx="156.3" cy="131.5" r="1.9"/><circle class="st11" cx="61.3" cy="312" r="2.6"/><circle class="st11" cx="188" cy="404.2" r="5.5"/><circle class="st11" cx="194.7" cy="316.6" r="3.4"/><circle class="st11" cx="425.7" cy="371.2" r="3.3"/></g><g id="RIGHT_ARM"><path class="st9" d="M551.4 241.5c0 1.9-1.4 5.5-3.3 9.9-1.4 3.1-3.1 6.7-5 10.2a218.2 218.2 0 01-25 32.8l-7.6-29.1 14.4-21.7-15.2-32.9s-.5-8.3.6-17c1.4-10.2 5-20.8 15-18.3 5.4 1.4 18.4 37.2 23.4 54a50.4 50.4 0 012.7 12z"/><path class="st12" d="M516.8 167.5c8 4.6 14.6 10.5 20.4 17.5.7.8 1.9-.2 1.4-1-5-8.1-13-13.3-21.4-17.2-.5-.2-.9.4-.4.7zM541 193l2.7 7.9c.6 1.7 1.1 4.8 2.7 6 .3.1.8 0 .8-.4.5-1.9-1.3-4.6-2-6.3l-3.4-7.4c-.1-.5-.9-.2-.7.3zM549.9 213.8l3.3 13.2c1.4 4.9 3.4 10.1 2.8 15.3-.4 4.4-3.1 7.8-5.2 11.6-2 3.8-3.7 7.8-5.5 11.7-.7 1.3 1.4 2.2 1.9.8 1.7-5 3.8-10 6.7-14.5 2-3 3.7-5.8 4-9.5.4-4.1-.8-8.2-2-12.2-1.7-5.5-3.5-11-5.5-16.6 0-.3-.6-.2-.5.2z"/><path class="st6" d="M539.8 278.7c-3 3.3-6.1 6.6-8.5 10.3-.7 1.1.9 2.4 1.7 1.4 3-3.3 5.5-7.2 8-10.9.4-.6-.6-1.4-1.2-.8z"/><path class="st13" d="M543.1 261.6a218.2 218.2 0 01-25 32.8l-7.6-29.1 14.4-21.7-15.2-32.9s-.5-8.3.6-17l1.3-.3c7.2 6.9 19.6 40 19.4 51-.3 9.8.6 20.4 12.1 17.2z"/><path class="st14" d="M551.4 241.5a38 38 0 01-3.3 9.9c-1.7-.3-3.3-1-4.6-2.2a8.4 8.4 0 01-2.5-6c0-2.6.2-5 1-7.2.2-1 .7-2 1.1-2.8 1.4-2.4 3.3-3.9 5.6-3.8a50.4 50.4 0 012.7 12z"/><path class="st15" d="M540.6 235.6l3.3 1M542 232.5l2.9 1.7M544.5 247.7l-2.5 3.5M527.5 243.2l11.6-.3M527.6 245.3c.7 0 10.2 3.7 10.2 3.7"/></g><g id="RIGHT_LEG"><path class="st16" d="M511.6 468.7c-.6-3.6-15.6 2-15.6 2s-8.7 32.1-10 34-6.3 7.6-9.2 9.6c-2.9 2-2.3 4.1 8 2.7 10.3-1.4 26.7-26.3 26.7-26.3s.7-18.4.1-22z"/><path class="st4" d="M515.2 520.2h-8.5c-.2-5-.8-13.6-3-13.6-2.4 0-4.3 9.8-5 13.6h-29.9l15.1-15.3s1.4 1.2 3.2 1.4c1.2 0 7.7-10.9 13.2-18.6 2.5-3.6 4.8-6.5 6.2-7.3 4.5-2.5 8.4-.8 8.9 4.9s-.2 34.9-.2 34.9z"/><path class="st17" d="M493.5 520.2h-24.7l15.1-15.3s1.4 1.2 3.2 1.4c1.2 0 7.7-10.9 13.2-18.6-3 5.5-7 12.1-9.6 17.5-3 6.3-1 11.3 2.8 15z"/><g><path class="st18" d="M524.5 287.2c0 7.8-.4 18.3-2 28.8l-.1.5-.1 4.2L518 461h-29l-10.6-64-4.2-25.1-6.4-38.8s-5-48.2-.7-67.4c4.4-19.1 48.3-30 57 8.4 0 0 .3 5.2.3 13z"/><path class="st6" d="M530.1 293c-1.2 2.6-2.8 6.6-1.3 9.3.1.4.8.4 1 0 .5-1.2.4-2.4.5-3.7.2-1.7.4-3.5.8-5.2 0-.5-.7-.9-1-.3zM527.4 310.3c-.7 10.3-.5 20.8-.5 31.2 0 10.7.7 22-.9 32.7-.3 2.3 3.3 2.4 3 .4-1.4-10.5-.6-21.6-.5-32.2 0-10.7.3-21.4-.3-32.1 0-.5-.7-.5-.8 0zM524.5 383.6l-.4 6c0 1.7-.4 3.6 0 5.3.2.9 1.4.7 1.7 0 1.3-3.2.4-8 0-11.3-.1-.9-1.3-1-1.3 0z"/><path class="st12" d="M522.6 403.1c-.6 14.7-.1 29.5-.4 44.2 0 1.6 2.3 1.6 2.3 0 .4-14.6.9-29.6-.4-44.2 0-1-1.4-1-1.5 0zM525.5 459l.7 17.5c.2 5.2-.3 10.7.6 15.8.1.8 1.4.8 1.6 0 .7-5.5-.1-11.3-.5-16.8-.3-5.6-.8-11.1-1.6-16.6 0-.5-.8-.4-.8 0zM523.6 497.3l-.1 9.7c-.2 3.2-.9 6.6-.6 9.8.1 1 1.6 1.4 2 .3 1.7-5.9.8-13.9 0-19.8 0-.9-1.2-1-1.3 0z"/><path class="st19" d="M499.4 313s15.2.2 23 3v.5l-.1 4.2c-5.4 1.9-15.4 3.7-20 6.3-7.5 4.2 7 36.4 3.7 57.3-3.1 19.6-2.9 63.9 6.8 76.8h-23.7l-10.6-64-4.2-25.1-6.4-38.8s-5-48.2-.7-67.4c4.4-19.1 48.3-30 57 8.4 0 0 .3 5.2.3 13a221.9 221.9 0 01-24.2 15.8c-5.8 3-1 10-1 10z"/><path class="st15" d="M490.7 312.1c4.1.2 8.8.7 13.6 2.1"/><path class="st8" d="M478.5 397l-4.2-25c3.2-.8 10.2-1.3 12.4 10 2 10.6-4.5 14-8.2 15z"/><path class="st15" d="M480.6 370.9l-1.4 2.8M483 372.3l-1.5 2.1M482.7 393.6l2.1 2.6M483.8 324.9l16.5 128.4"/></g><g><path fill="#638e77" d="M522.7 454.6l-1.4 19h-3.9l-29.6.8-1.5-16.9-.3-3.4z"/><path class="st18" d="M517.4 473.7l-29.6.7-1.5-16.9 2-1.1 16 1.5s5.5 10.7 13.1 15.8z"/><path class="st15" d="M497.2 455.7l1.5 16.9M501.7 457.1l1.2 12.7"/></g></g><g id="LEFT_LEG"><path class="st16" d="M481.9 468.7c-.6-3.6-15.6 2-15.6 2s-8 32.1-9.4 34a55.3 55.3 0 01-9 9.6c-2.8 2-2.2 4.1 8.1 2.7 10.3-1.4 26.2-26.3 26.2-26.3s.3-18.4-.3-22z"/><path class="st4" d="M486.5 520.2h-8.6c-.2-5-1-13.6-3.1-13.6-2.5 0-4.3 9.8-4.9 13.6h-29.8l14.8-15.3s1.4 1.2 3.1 1.4c1.1 0 6.6-9.2 11.6-16.7 3-4.4 5.8-8.3 7.4-9.2 4.4-2.5 8.4-.8 9 4.9.6 5.7.5 34.9.5 34.9z"/><path class="st17" d="M467.1 520.2h-27l14.8-15.3s1.4 1.2 3.1 1.4c1.1 0 6.6-9.2 11.6-16.7-3 7.7-5.5 13-6.3 20.4-.5 4.3 1.4 7.7 3.8 10.2z"/><g><path class="st8" d="M489.7 316.5l-1.4 144.6h-29l-11.9-64-4.6-25.1-7.2-38.8s-5.9-48.2-2-67.4c4-19.1 47.8-30 57.1 8.4 1.8.4 4.8 21.9-1 42.3z"/><path class="st6" d="M434.2 352c0 8.6 2.5 17.6 4.2 26 1.9 9 4.3 18 5.6 27.2 0 .4.8.3.8 0-1-8.8-2-17.4-3.7-26-1.8-9-3.2-18.6-6.2-27.2-.2-.4-.7-.3-.7 0zM445.2 410c-.4.8-.3 1.5-.2 2.3.1.8.2 1.6.5 2.4.1.4.5.7.9.7.2 0 .3 0 .5-.2.3-.2.5-.6.4-1l-.5-2.2c-.1-.7-.1-1.4-.5-2-.3-.3-.9-.4-1.1 0zM447.4 422.2c-1 8.2 1 16.4 2 24.5 1.2 9.1 2 18.5 2.9 27.7 0 .7 1.2.7 1.2 0-.7-9.3-.7-18.6-2-27.9l-1.8-11.7c-.4-4.3-.5-8.5-1.4-12.7-.1-.6-.8-.4-.9 0z"/><path class="st15" d="M491 278.9s5.7 17.6-.4 33.1"/><path class="st21" d="M463.3 327c2.9 4.1-5.7 5.7-7.3 12.5-1.6 6.7.3 58 9.5 81.5 5.3 13.3 11.8 27.8 14.3 40.1h-20.6l-11.8-64-4.6-25.1-7.2-38.8s-5.9-48.2-2-67.4c4-19.1 47.8-30 57.1 8.4-3.3 8.5-7 27.1-7 27.1s-23.5-4.4-31-6c-7.6-1.7 7.7 27.6 10.6 31.7z"/><path class="st22" d="M447.4 397l-4.6-25c3-.8 10.1-1.3 12.5 10 2.3 10.6-4.2 14-7.9 15z"/><path class="st15" d="M449 370.9l-1.3 2.8M451.4 372.3l-1.5 2.1M451.6 393.6l2.1 2.6M470.3 453.3l-19-128.4s-5.8-34-6-47.2"/><path class="st15" d="M438.6 278.7s1.6 18 2.8 19c1.2 1.1 6 1.8 6 1.8M475.5 313.7s6.4-1.8 15.2-1.6"/></g><g><path class="st22" d="M492.7 454.6l-1 19-9 .2-24.5.6-1.9-17.3-.3-3z"/><path class="st8" d="M482.8 473.8l-24.6.6-1.9-17.3c4.5.3 15.7 2.3 15.7 2.3s4.4 9.6 10.8 14.4z"/><path class="st15" d="M467.2 455.7l1.9 16.9M471.7 457.1l1.5 12.7"/></g></g><g id="WOMAN_HEAD"><path class="st16" d="M485.3 150l-1.2 1.5c-3.8 3.6-7.7 4-10.4 2.3a7.2 7.2 0 01-3-4c-1.2-3.5-1.4-9.4 1.3-13.3a9 9 0 015.7-3.8c10.2-2.3 11.8 10.8 7.6 17.2z"/><path class="st23" d="M484 150.7v.8c-3.7 3.6-7.6 4-10.3 2.3 2.5-.8 3.7-2.6 4.5-5.3 1-3.5 5.5-4.8 5.9 2.2z"/><path class="st23" d="M485.3 150c-3.3.6-8 1-8 1a66.4 66.4 0 01-3.8-8.8 7.8 7.8 0 01-1.5-5.7 9 9 0 015.7-3.8c10.2-2.3 11.8 10.8 7.6 17.2z"/><path class="st16" d="M475.1 148.4c-.7.8-2.8.9-2.5-3.3.3-4.2 2.2-3.6 2.2-3.6s1.2 0 1.3 3.1c.2 3-1 3.8-1 3.8z"/><path class="st9" d="M482.7 133.3c-2.6 1-2.4 6.6 1.8 6.3s3.1-8-1.8-6.3z"/><path class="st23" d="M491 130.6c-9.6 1.4-7.6 8.4-3.7 8.8 7.6.5.4 10.5 6.4 18.8s23.7 7.9 27.2-4.5c0 0-13.5 4.3-16-8.7-2-11-7.7-15.4-14-14.4z"/><path class="st6" d="M462.6 144.9c-.3 3 .3 5.4 1.2 8.3.7 2.2 1 4.7 2.6 6.4.7.7 1.8-.4 1-1-1.5-1.7-2-4.7-2.8-6.7a36.9 36.9 0 01-2-7z"/><g><path class="st6" d="M463.6 141c.2-1 .5-1.8 1-2.7.3-.7 1-1.3 1-2.1a.6.6 0 00-.8-.7c-.8.5-1.2 1.5-1.5 2.3-.4 1-.6 2-.6 3 0 .5.7.6.9.1z"/></g><g><path class="st6" d="M468.6 132.7c5-3.5 11.3-4.8 17.3-4.2.7 0 1-1.2.2-1.3-6.7-1.1-12.7.8-17.7 5.2-.2.1 0 .4.2.3z"/></g><g><path class="st6" d="M493 128.4c1.7 0 3.2.9 4.7 1.6.6.3 1.1.6 1.6 1.1.4.4.6.6 1.1.8.4.1.7-.1.8-.4.5-1.6-1.4-2.6-2.6-3-1.8-.8-3.7-1.1-5.6-.7-.3 0-.3.6 0 .6z"/></g></g><g id="WOMAN_BODY"><path class="st16" d="M476.4 161.5l-.8-10.3 8.7-1 1.6 11.3z"/><path class="st9" d="M495.5 167.4l-13.3.6-13.3.7s1.1-5.8 2-7.2c.5-1 4.2-1.8 8.6-2.3a62 62 0 017.7-.4c6.8.1 7.3 2.7 8.3 8.6z"/><path class="st13" d="M482.2 168l-13.3.7s1.1-5.8 2-7.2c.5-1 4.2-1.8 8.6-2.3-.1 3.5 1 6.6 2.7 8.8z"/><path class="st9" d="M527.2 276.4s-3.8 8.3-24 15.2l-11-17.3-11.4 20.2c-6.3-.7-14.9-2-24-5a82.8 82.8 0 01-31.1-16.7l20.1-42.4s-12.1-19.3-12.4-23.5c-.2-3 4-20.5 6-29l1.2-4.6s20.1-7.5 43.5-8c23.5-.6 41.1 10.2 41.1 10.2s-2.2 16.3-7.2 34.4c-2 7.4-4.6 15.1-7.7 22.1 0 0 15.2 28.4 16.9 44.4z"/><path class="st6" d="M431.2 172.7c3.6-4.5 9.5-5 14.8-6 5.4-1 10.9-1.5 16.2-3 .5 0 .4-.9-.2-.8-6.7.2-13.6 1.6-20.2 2.6-5 .8-9 2-11.3 6.7-.2.4.3.9.7.5z"/><path class="st13" d="M518 209.9c-2 7.4-4.6 15.1-7.7 22.1 0 0-15.7 3.5-34.8 16.5-13.8 9.4-17.7 27.2-18.7 41a101 101 0 01-12.8-4.8c-6.5-3-12.8-6.9-18.3-11.9l20.1-42.4s-12.1-19.3-12.4-23.5c0-1 .3-3.6 1-7 1.3-6.6 3.6-16.3 5-22 13.2 2.7 21.6 25.5 29.5 39.7 7.7 13.9 34.5 7.6 49.1-7.7z"/><path class="st24" d="M460 234.4c.3 5.3-10.8 25.5-16 50.3-6.5-3-12.8-6.9-18.3-11.9l20.1-42.4s-12.1-19.3-12.4-23.5c0-1 .3-3.6 1-7l17.3-2.7c2.4 9.6 8.1 31.5 8.4 37.2z"/><path class="st15" d="M490.6 170.4s3.4 14.2 2.7 22.8c-.6 8.6-9 40.1-9 40.1M483.5 238.8s4.6 24.2 7.7 31.7M459 230.8s14.3 6 19.7 7.3M488.5 238.1s13.4-3.3 19.7-5.8"/></g><g id="WOMAN_LEFT_ARM"><path class="st16" d="M419.5 309.4s-2.7 17.9-2.7 20c0 2.2 9.9 9 11.7 10s16-3 17-4 .5-7.5.5-8c0-.4-4.3-2.5-4.3-2.5l2.1-5.6c.2-.5-9.4-9-9.4-9l-15-1z"/><path class="st15" d="M428 316.9s3 5.3 6.8 5.6c0 0-2.4 1-2.5 2.4s2.5 3 7.5 1.2M425.6 326.4s5.2 2.6 6.6 4.4c1.3 1.8 0 6 0 6M438.9 334.8s1.8-4.7-2.5-7.7"/><g><path class="st9" d="M440.6 173.2s-11 7.7-18.3 41.3c-7.3 33.6-9.8 43.7-9.8 61.4 0 17.8 4.8 36 4.8 36s10.9 1.7 19.5-.8c0 0 4-49.8 6-58.4 2-8.6 14.2-36.4 15.5-47 1.2-10.7-3.3-34.2-17.7-32.5z"/><path class="st6" d="M410.9 319.7c-5.9 13.7 5.3 25.4 18.1 27.9 1.3.2 1.8-1.6.6-2-5.9-2.2-11.5-3.7-15-9.3-3.2-5-3-10.5-2.5-16.3 0-.6-1-.9-1.2-.3zM431.6 348.7c.5.4 1 .8 1.6 1a1 1 0 001.4-.4c.3-.6 0-1.2-.6-1.4l-1.9-.5c-.8-.3-1.3.9-.5 1.3zM413.3 314.2c.6-3.6.6-7.8-1.3-11-.5-.8-1.8-.3-1.6.7.7 3.4 1.7 6.6 1.7 10.1 0 .7 1.1.9 1.2.2zM410.2 296.5c.8-12-1.5-24 0-36.2.8-6.5 2.6-12.8 3.6-19.3.2-1-1.2-1.4-1.6-.4a98 98 0 00-4.1 21 89.2 89.2 0 001.7 35c0 .2.4.2.4 0zM415.1 234.4c.4-1.4 1-2.9 1.3-4.3.3-1.1-1.4-2-1.8-.8a10 10 0 00-.7 5c0 .7 1 .9 1.2.1zM406.1 254.4c2-12.6 3.4-25.2 7.2-37.5 3.7-11.8 9-22.8 13.8-34.2.5-1.2-1.6-2-2.2-.9a193.2 193.2 0 00-19.8 72.5c0 .6 1 .7 1 .1zM431 180.7c1.4-2.4 2.7-5 4.4-7.2 1.4-1.8 3.9-1.2 5.4-2.7.6-.5.1-1.2-.5-1.2-2-.3-4.7.5-6 2-2.1 2.4-3 6-4.1 8.8-.2.5.6.8.8.3z"/><path class="st14" d="M424.6 254.4c-7.4.2-13.1 23-.7 24.3 12.4 1.2 15.3-24.6.7-24.3z"/><path class="st15" d="M421.7 251.6c-.1 2.7 1.3 5.6 1.3 5.6M426 251.7l.6 5.3M423.1 276.5l-.7 4.6"/><circle class="st23" cx="423.9" cy="295.2" r="2.5"/><circle class="st23" cx="423.9" cy="305.5" r="2.5"/></g></g><g id="LEFT_LEFT_LEG"><path class="st25" d="M130.8 464l1.9 21.4 25.8-3.5-.8-22.8z"/><path class="st4" d="M207.4 526.6h-52.7l-3.4-7-.7 7h-18.7c-3.3-17.7-1.6-44.7-1.6-44.7l28.4-2.6 4.2-.4c8 20.2 44.5 47.7 44.5 47.7z"/><path class="st17" d="M143.8 526.6h-11.9c-3.3-17.7-1.6-44.7-1.6-44.7l28.4-2.6a61.4 61.4 0 00-15 47.3z"/><path class="st15" d="M134.5 519.6h12.7M157.6 519.6h33.5M153.7 493.4s5.7-5.5 15-8M162 501.5s6.6-5 13-7.3"/><g><path class="st18" d="M174.8 300.3l-1.3 15.2-4.3 49.3-2.8 32.2-4.5 52h-35.8l-6.6-106.6s-4.5-69 19.7-71c24.2-1.9 35.4 7.5 35.6 29z"/><path class="st6" d="M182.5 304.2c-2 3.2-4.5 4.7-5.2 8.5-.7 4-.2 8.3-.4 12.4l-2 35.1c-1.4 23.1-2.5 47-6.7 69.7-.3 1.5 1.9 2.1 2.2.6 2.1-9.8 2.7-19.8 3.6-29.8 1.1-11.5 2-23 2.7-34.6l1.7-33.2c.2-5 .5-9.8.5-14.6 0-2.2-.2-4.6.4-6.7.9-2.5 3.3-4.3 4.6-6.5.6-1-.8-1.8-1.4-.9zM166.6 437.3c-.3 1.1-.6 2.3-1.1 3.4-.3.5-.2 1.2.2 1.7l.6.3c.6.2 1.3 0 1.6-.6.8-1.5 1.3-3.2.8-4.8-.3-1-1.8-1-2.1 0zM176.9 426.8c-2.5 6.2-5 13.4-5.4 20-.5 7.8-.4 15.5-1.4 23.3-.2 1.2 1.7 1.7 1.8.5 1-7 2.4-13.8 2.4-20.8 0-7.8 2.6-15.1 3.2-22.9 0-.3-.5-.3-.6 0z"/><path class="st12" d="M176.4 483.3a82.5 82.5 0 0018.4 22.2c3.9 3.3 7.4 6.6 10.5 10.8 2.3 3.1 4.7 6 8.2 8 2 1 3.6-1.9 1.8-3.2-3.8-2.4-5.7-6.4-8.3-10-2.8-3.6-6.2-6.4-9.7-9.4a157.1 157.1 0 01-19.4-19.5c-.7-.9-2 .2-1.5 1.1zM112.3 432.5c-.8 13.2-.3 27.5 1.3 40.6.2 1.7 2.8 1.8 2.7 0-.1-6.7-1-13.5-1.4-20.3-.3-6.7-.5-13.5-1.3-20.3 0-.8-1.2-.8-1.3 0zM120.1 480.8c-.6 7.2-.2 14.5-.2 21.8 0 6.6-1 13.6.2 20.1.2 1.3 2.2 1.2 2.4 0 1.4-6.7.5-14.3.3-21.1-.1-7-.3-14-1.4-21-.1-.7-1.2-.5-1.3.2zM114.3 480.6a5 5 0 00-.4 3.4c.5 1.5 2.8.8 2.4-.7-.2-.6-.4-1.3-.3-2 0-.5 0-1-.5-1.1-.4-.2-1 0-1.2.4z"/><path class="st19" d="M173.5 315.5l-19.2 4.5s12.7 12.4 15.1 13.6c2.4 1.2-19.3-2-19.3-2s10.9 11.7 11.5 13.3c.6 1.6-18.3-4.1-18.3-4.1s-2.9 41.8-5 59.6c0 0 4.1 25.5 8.5 48.5h-20.7l-6.6-106.5s-4.5-69 19.7-71c24.2-1.9 35.4 7.5 35.6 29l-1.3 15z"/><path class="st15" d="M139.4 317.8l25.7 13.8M136.8 325.7l17.5 13.7"/><path class="st8" d="M169.2 364.8l-2.8 32.2c-18.1 3.8-13.2-30-2.7-32.9 2-.5 3.8-.2 5.5.7z"/><path class="st15" d="M144 315.9l-1.4 117.3M137.3 379.6c.7-.5 10.7 0 10.7 0M137.3 385.7c1.1-.3 9.7-1.6 9.7-1.6M158.5 363.8l3.1 5.1M156.6 367.9l3.5 2M160.1 393.7l-2.6 5"/></g><g><path class="st26" d="M166.7 446.5v22.8l-44.5.5-1.3-21-.2-2.8z"/><path d="M166.7 460.5v8.8l-44.5.5-1.3-21c6.1-.3 27-1.4 27.1.1.1 1.7 3.4 11 18.7 11.6z" fill="#364e41"/><path class="st15" d="M137.3 448.9l1.9 16.8M141.6 452.6l2.1 11.3"/></g></g><g id="MAN_RIGHT_LEG"><path class="st15" d="M133 320s6.3-.3 8-2.2c0 0 5.1-22.5 4.8-33.3"/><path class="st8" d="M141.6 290.4L135 319l-2.8 8.8-35 113.9-2 6s-39.3-.4-39.3-1.4c0-1 20.4-145.4 20.4-145.4s3.3-29.5 32.3-32.7a28 28 0 0133 22.3z"/><path class="st6" d="M65.9 323.8c-.6 8-3 16.1-4.3 24l-4 24.3c-.2 1.4 2 2.1 2.3.6 1.7-8.7 3.2-17.4 4.6-26 1.3-7.6 3-15.3 2.4-23 0-.6-1-.6-1 0z"/><path class="st12" d="M56.7 385.1c0 2.4-.3 4.7-.7 7-.4 1.9-1 3.7-1.2 5.6 0 .6.8 1 1.2.5 3-3.4 2.9-8.9 2.4-13 0-1.1-1.7-1.2-1.7 0zM51.2 409c-2 10.4-2.2 21.2-3.8 31.7-1.7 10.6-3.8 21.1-6.2 31.6-.2.8 1 1.1 1.3.3 3.4-10.4 6-21.2 7.8-32 1.6-10.2 3.4-21.2 2.4-31.4 0-.8-1.4-1.2-1.5-.2zM40.8 479.7l-1.1 4.5c-.3 1.3-.8 2.6-.4 3.8.2.7 1 .7 1.3.2.9-1.1.8-2.7 1-4l.5-4.3c.1-.7-1-.9-1.3-.2zM38.1 498.5c-2.3 7.3-2.7 14.5-4.5 22-.4 1.5 2 2.1 2.4.6 1-3.5 1.5-6.8 1.6-10.3 0-4 1-8 1.6-12 .1-.7-.8-1-1-.3z"/><path class="st21" d="M141.6 290.4L135 319l-2.8 8.8c-9 6-27.8 15.2-28.5 15.6l17-14.5c-.8.3-24.3 8.2-29.8 7.4-5.6-.8-15 56.4-17.2 72C72 418.4 87 433 97 441.5l-1.8 6s-39.4-.4-39.4-1.4c0-1 20.4-145.4 20.4-145.4s3.3-29.5 32.3-32.7a28 28 0 0133 22.3z"/><path class="st15" d="M132.3 317.8L102 333.6M129.8 324.1l-12.7 9.5M86.7 302.9L63.9 440.1M69.4 381.8h10.1M69.4 386.6l8.6-1"/><path class="st22" d="M103.6 367.9c-13.1.3-18.2 36.3-4.9 35.6 13.4-.6 19.8-36 5-35.6z"/><path class="st15" d="M98.7 366.3l3.3 5.2M95.6 369.9l3.1 3.5M97.2 400.4l-1.6 6.1"/><g><path class="st25" d="M54.9 468l-1.6 17.4h22l4.7-18.9z"/><path class="st4" d="M95.6 526.6H59.2c-.8-1.7-1.5-3.8-2-5.4l-.8-2.5-.8 7.9H45.3s1.8-32.4 6.3-44.7h26.9s5.6 33.6 17.1 44.7z"/><path class="st17" d="M57.2 521.2l-.8-2.5-.8 7.9H45.3s1.8-32.4 6.3-44.7h14.8c-8.6 10.2-9.6 26.8-9.2 39.3z"/><path class="st15" d="M58.8 519.6h30.3M48.5 519.6h6.3M62.7 501.5s6-12.2 19-5M66.2 508.7s5.8-11.4 17.8-4.5"/></g><g><path class="st22" d="M98.7 445.8l-3.3 17.4-2 11-43.7-2.2 3.3-26 .2-2z"/><path class="st26" d="M95.4 463.2l-2 11-43.7-2.2 3.3-26c11.4.6 33.2 2.5 33.7 3.8s4.3 9.3 8.7 13.4z"/><path class="st15" d="M68.4 447.1l-2.2 22.7M63 451.8l-1.1 13.9"/></g></g><g id="MAN_LEFT_ARM"><path class="st28" d="M215 189.9c.1-.4-.6-3.8-.6-3.8s1.5-15.1 3-19.1c1.5-4 4.6-2 4.1 1.4s2.2 12.1 2.2 12.1l-4.4 5.9-4.4 3.5zM231.9 177.9s.6-11.9 2.5-13.8c2-1.8 4.2-1 4.1 2.4s0 12.2 0 12.2l-6.6-.8zM239.9 177.4s.6-11.8 2.5-13.7c2-1.9 4.2-1 4.1 2.4v12.2l-6.6-.9z"/><path class="st28" d="M246.5 176.2s3-11.5 5.3-13c2.3-1.4 4.3 0 3.6 3.2-.8 3.3-2.5 12-2.5 12l-6.4-2.2z"/><path class="st25" d="M260.7 169.6a89.2 89.2 0 01-7.5 13c-1.3 1.1-21 12.3-21 12.3l-5.6 15.6-12-6.3-2.8-1.5c.3-.5 2.6-7.1 2.6-7.1s-1-6.2 0-9.5 4.6-6.7 6.4-7.2c1.8-.6 28.7-4.1 30.2-5 1.6-.7 5.8-8 8-8.4 2.1-.6 2.9 1.1 1.7 4z"/><path class="st28" d="M255.7 179.1a19 19 0 01-2.5 3.6c-1.3 1-21 12.2-21 12.2l-5.6 15.6-12-6.3c3.4-2.2 9.1-6.4 10.5-10.4 2-6 6.3-6.4 17.1-9.7 5.7-1.8 10.2-3.4 13.5-5z"/><g><path class="st9" d="M235.9 214.5s-10.5 30.5-23.4 49c-5.2 7.4-10.8 13-16.2 13.9a19 19 0 01-13.8-2.4c-8.9-5.6-13.3-18.6-18.5-30l-.3-.7c0-.1 0-.3-.2-.5-4.5-12.9 3.3-45 7.7-61.2l2.8-9.6s7.3 2.4 8.5 5.3S191 227 191 227l14-30.3s9 4.4 17.7 9.4c5 2.8 10 5.8 13.2 8.3z"/><path class="st6" d="M183 172.2c1.2 1 2.3 2.8 3.1 4.2.7 1.1 1 3 2.2 3.8.3.2.8 0 1-.2.8-1.5-.6-3.7-1.4-4.9a10.3 10.3 0 00-4.4-3.5c-.4-.2-.8.3-.5.6zM189.7 186.1c1.2 8.8 1 17.8 2.2 26.5.2.8 1.6.8 1.7 0 1.3-8.6-.8-18.4-3-26.7-.2-.6-1-.3-1 .2zM234.4 228.9a468 468 0 01-10.6 21.3c-3.7 7-8.4 13.6-12.2 20.6-.5 1 .8 2.2 1.6 1.2 5.2-6 9-13.5 12.8-20.5 3.8-7.2 7-14.4 9.6-22.1.2-.7-.8-1.2-1.2-.5zM207 277c-2.4 3-5.8 4.6-9 6.9-.8.6-.3 2 .8 1.7 4.1-1 7-4.6 9.1-8 .3-.5-.4-1-.8-.6z"/><path class="st13" d="M235.9 214.5s-10.5 30.5-23.4 49c-5.2 7.4-10.8 13-16.2 13.9a19 19 0 01-13.8-2.4c-8.9-5.6-13.3-18.6-18.5-30l-.3-.7c0-.1 0-.3-.2-.5-4.5-12.9 3.3-45 7.7-61.2 3.8 10.9 9.5 28.5 10.3 38.4 1.1 15 7.5 28 10.3 22.6 2.7-5.4 5.9-3 9 0 3 2.9 16.6-21.7 22-37.4 5 2.8 9.9 5.8 13.1 8.3z"/><path class="st15" d="M206.5 204.8s16.3 7.3 22.7 11.4"/><circle class="st15" cx="225.9" cy="221" r="2.2"/><circle class="st15" cx="221.5" cy="229.2" r="2.2"/><path class="st14" d="M212.5 263.5c-5.2 7.4-10.8 13-16.2 13.9a19 19 0 01-13.8-2.4 24 24 0 019.6-10.4 24.6 24.6 0 0115-2.3c1.6.2 3.5.6 5.4 1.2z"/><path class="st15" d="M190.8 262.8l2.7 4M194.7 260.7l1.5 4.1M207.6 259.4l-1.1 5.4M191.4 231.4s1 9.2-.6 18M193.5 235a79 79 0 003.7 17.3"/></g></g><g id="MAN_HEAD"><path class="st28" d="M131.4 164.6l-6.2.2-1.3-13-.2-1.8 6.4.2.7 8.3z"/><path class="st23" d="M130.8 158.5a14.4 14.4 0 01-6.9-6.7l-.2-1.8 6.4.2.7 8.3z"/><g><path class="st25" d="M134 153.3a5 5 0 01-3.3 1.2 10.7 10.7 0 01-9.7-6.2c-1.3-2.8-1.2-5.7-1.2-5.7-.3-1.7-.3-3.2 0-4.5a6 6 0 012.6-4c.8-.5 1.9-1 3.2-1.1 5.7-1 9 3.5 9.4 8 .5 4.3 1.5 10-1 12.3z"/><path class="st6" d="M115.1 150c-1.6-6.2-3.7-12.1-1.5-18.4 1.2-3.4 3-5.5 6.5-6.6 4.4-1.3 10-1.8 13 2.4.7.8 1.8 0 1.2-.8-4.3-5.6-15.1-5.5-20-.5-6 6.2-3.3 17.4-.3 24.3.3.7 1.3.2 1.1-.5zM136.8 130.2c1.7 2 2.7 5.1 3.3 7.6.5 2.2.3 4.7 1.4 6.6.2.5.9.3 1-.1 1-2.4-.1-6-1-8.4-.9-2.7-2.2-4.1-4.4-6-.2-.1-.5.1-.3.3z"/><path class="st28" d="M130.7 154.5a10.7 10.7 0 01-9.7-6.2c-1.3-2.8-1.2-5.7-1.2-5.7-.3-1.7-.3-3.2 0-4.5a6 6 0 012.6-4l.2.3c.6 1.5 2 2.9 2 2.9s.7 12.5 6 17.2z"/><path class="st23" d="M123.3 146.2l.1 2H121c-1.3-2.7-1.2-5.6-1.2-5.6-.3-1.7-.3-3.2 0-4.5 1.5-.2 4.1 2.5 4.1 2.5l.4 4.6-1 1z"/><g><path class="st9" d="M135.2 139s-4 2-9.3 2.5c-2.3.2-4.9.1-7.5-.6 0 0-.2-1-.2-2.5-.1-3.2.7-8.7 6.8-9.6h.1c6.3-.9 8.7 3.8 9.5 7.2.5 1.7.6 3 .6 3z"/><path class="st13" d="M125.9 141.5c-2.3.2-4.9.1-7.5-.6 0 0-.2-1-.2-2.5-.1-3.2.7-8.7 6.8-9.6h.1a23 23 0 00.8 12.7z"/><path class="st4" d="M135.2 139s-4.3 2.2-9.8 2.6c-2.2.1-4.6 0-7-.7 0 0-.2-1-.2-2.5 1.5.3 3.8.5 6.4.3a22 22 0 0010-2.7c.5 1.7.6 3 .6 3z"/><path d="M125.4 141.6c-2.2.1-4.6 0-7-.7 0 0-.2-1-.2-2.5 1.5.3 3.8.5 6.4.3l.8 2.9z" fill="#c27d33"/><path class="st9" d="M114.3 139.7c-.4.7-.1 1.5.5 2 2 1.1 6.5 3.1 13.4 1.7 6.7-1.3 9.6-3.8 10.7-5.2.5-.5.5-1.3 0-1.8-.5-.7-1.5-.7-2.1-.1a15.6 15.6 0 01-9 4.2c-5.5.7-9.6-.7-11.6-1.5-.7-.4-1.6 0-2 .7z"/></g><path class="st28" d="M122.2 146s-1.8-2.7-4-1.3c-2 1.4.2 8.9 5.6 5.6l-1.6-4.3z"/></g></g><g id="MAN_BODY"><path class="st9" d="M181.5 299.8s-14.8 10.2-31 16L143 294l-14.8 23.7a182.8 182.8 0 01-55.6-16.2L85 248.1l-1.3-26.3-2-44.5s21.9-9.2 45.4-11.8c0 0 30.4 1.8 46.8 7.5 0 0 3.5 47.7-2.7 81.5l4.7 20.7 5.5 24.6z"/><path class="st6" d="M96.2 168.8c3.6-.2 7.5-1.3 10.8-2.6 1.5-.6 1-3-.6-2.5-3.5 1-7.1 1.8-10.5 3.1-1 .4-.9 2 .3 2zM144.6 161.5c11.3 2.7 22.4 4.8 33.4 8.4.8.2 1.3-1 .6-1.3a72.7 72.7 0 00-33.9-8c-.5 0-.7.8-.1 1z"/><path class="st12" d="M112.7 164c1 0 2-.1 3-.6 1-.4 2-1 2.7-2 .5-.6.7-1.5 0-2.2-.6-.6-1.7-.6-2.3 0a10 10 0 01-3.7 3c-.9.4-.8 1.9.3 1.8z"/><path class="st6" d="M181.5 285.7c1.4 2.8 2.4 5.5 2.8 8.6.3 1.9.3 3.7 1.9 4.9.5.3 1-.2 1.1-.7.1-1.1-.3-2.1-.5-3.2-.3-1.3-.4-2.6-.8-3.9-.8-2.3-2.3-4.2-3.6-6.2-.4-.5-1.1 0-.9.5z"/><path class="st13" d="M181.5 299.8s-14.8 10.2-31 16l-7-20.3-.5-1.4-.7 1.2-14 22.5a182.8 182.8 0 01-55.7-16.2l1-4.6 5.4-23 6-25.9-1.2-26.3c11.3 16 30.4 30.4 38 33.2 10.6 4 30.1-.4 40-2.7 9.8-2.2-7.9 6.5-17.8 11.5-5 2.6-3.5 8 4.2 11a49.3 49.3 0 0027.8.4l2 9.2 3.5 15.4z"/><path class="st24" d="M178 284.4c-5 4-17.6 14.1-21.4 13.5l-13.1-2.4-.5-1.4-.7 1.2-13.6-2.6-2.4 10.3s-34.7-3.5-52.6-6l5.3-23 69.2.8a49.3 49.3 0 0027.8.4l2 9.2z"/><path class="st15" d="M141.6 243.6s1.6 33.1 1.4 46.2"/><circle class="st23" cx="134.1" cy="255" r="2.7"/><circle class="st23" cx="135" cy="276.7" r="2.7"/><path class="st13" d="M153.7 207.9c3.2 6.4 5 16.6 5 16.6L141.5 238l-23.3-8.6c-1.4-6.5-.9-20.2-.9-20.2l-10.3-1.5c-5-20.9.4-36.7.4-36.7a85.3 85.3 0 0144.3-1c4.7 8.2 9.2 34.4 9.2 34.4l-7 3.5z"/><path class="st6" d="M153.7 206.4a60.3 60.3 0 014.3 15L141.4 238l-24.2-12c-1.3-6.7 0-18.2 0-18.2l-10.1-2.3c-5-21.8.2-37.7.2-37.7a81.5 81.5 0 0144.3-1c4.7 8.6 9 35 9 35l-6.9 4.6z"/><path class="st8" d="M140.7 236.2c-14.2-23.2-23.5-63.5-25-70.5 11-2.2 20.6-1.7 27.1-.8 3.7 37.2-2.1 71.3-2.1 71.3z"/><path class="st15" d="M131.4 174.8s7.3 33 8.8 53.3"/><path class="st8" d="M121.5 160.3c2.6-1.3 10.7-2.2 14.2 0 0 0 1.2 3.6 1.3 6 0 0-1.1 2-6 3-4.8 1.1-10.5-2-10.5-2l1-7z"/><g><path class="st9" d="M140.2 168.5c0 1-.2 1.8-.5 2-1 1-6.8-.5-6.8-.5s-1.3-1.7-.6-3.8l.4-.4c1.3-1 4.6-3.5 5.8-3.2 1.1.4 1.8 3.6 1.7 6z"/><path class="st13" d="M140.2 168.5c0 1-.2 1.8-.5 2-1 1-6.8-.5-6.8-.5s-1.3-1.7-.6-3.8l.4-.4c1.4.7 2 1.7 2.4 2.7.5 1 4 1.5 5.1 0z"/><path class="st9" d="M133.6 169.3c-.2 1.7-1.3 2.4-3 2.6-2 .1-3.8-.2-4.2-3.2-.2-1.7-.1-2.8.4-3.5.5-.7 1.2-1 2.3-1 2.2-.2 4.2.4 4.5 3.4v1.7z"/><path class="st13" d="M133.6 169.3c-.2 1.7-1.3 2.4-3 2.6-2 .1-3.8-.2-4.2-3.2-.2-1.7-.1-2.8.4-3.5.1 1.7.7 5 3.5 5 1.8 0 2.8-.4 3.3-1z"/><path class="st9" d="M127.2 166.6s-5.6-2.6-7-1.8c-1.4.9-.3 7.3 1 8 1.2.5 6.4-2.5 6.4-2.5s.8-1.9-.4-3.7z"/></g></g><g id="MAN_RIGHT_ARM"><path class="st25" d="M180.6 264.7c-.7 3.2-1.7 9.1-3 12.6-.3 1.2-.8 2.1-1.2 2.4-1.7 1.2-14 9.1-18 10.7-4 1.7-36-3-36-3l2-10.3 1.2-6.1s24-12.2 27-13c3-.9 3.7.7 2.9 3-.8 2.2-8.3 8.4-8.3 8.4s16-1.6 18.4-2.7c2.4-1.2 10.5-9.9 13.8-10.7 3.3-.8 2.1 4.3 1.2 8.7z"/><path class="st28" d="M177.7 277.3c-.4 1.2-.9 2.1-1.3 2.4-1.7 1.2-14 9.1-18 10.7-4 1.7-36-3-36-3l2-10.3c9.2 2.6 26.6 5.8 33.1 6a57 57 0 0020.2-5.8z"/><path class="st15" d="M175.5 267.7l-5.6 4.6c-.8.6-8.3 2.8-8.3 2.8M174.8 274l-10.8 6.8"/><path class="st9" d="M127 267.6s-.5 7.4-1.5 15.4c-.6 4.6-1.3 9.5-2.2 13.3 0 0-23.2-1.6-38.7-3.7a74 74 0 01-12-2.2c-8.4-2.9-11.2-8.5-11.4-12.5V276l.4-8.2c1-23.7 4.7-81 11-86.8l9.1-3.7s14 12 16.7 23.8c0 0 2.7 37.9-1.3 53.8l-.8 3 30.7 9.7z"/><path class="st6" d="M61.4 203.3c0-4.7 2-9.6 3.1-14 1-4.1 1.7-8.6 5-11.4 5.7-4.9 15-5.3 21.8-8.2 1-.4.2-1.9-.7-1.7-5.4 1-11 2.7-16.1 4.5a17.2 17.2 0 00-8.7 5.5c-2.4 3.2-3 7.6-4 11.4a33 33 0 00-1.4 14c0 .6 1 .4 1-.1zM59.4 216.6a640 640 0 00-5.8 47.4c-1 12.2.8 24.6 12.6 31 .6.4 1.2-.4.7-1-2.2-2.4-5-4.3-7.1-7-2.5-3.2-3.8-7-4.2-11-.7-5.7.3-11.6 1-17.3 1.5-14 2.7-28 3.5-42 0-.4-.6-.5-.7-.1zM51.3 288.1c4 7.4 10.1 13.8 17.8 17.3 1.2.6 2.4-1.2 1-2-7-4-13.1-9-17.8-15.8-.4-.6-1.4-.1-1 .5z"/><path class="st15" d="M98.4 201s.7 10.3.9 22.4M88.2 183.7c4 4.6 8.8 11 10.2 17.4 0 0 .4-11.8-3.6-18.2"/><path class="st13" d="M125.5 283c-.6 4.6-1.3 9.5-2.2 13.3 0 0-23.2-1.6-38.7-3.7a74 74 0 01-12-2.2c-8.4-2.9-11.2-8.5-11.4-12.5V276c15.5 5.3 47.3 6.7 64.3 7z"/><path class="st15" d="M81 265.7l12.5-6.8M86.7 266.7s5-3.2 7.4-5.7"/><path class="st14" d="M84.6 292.6a74 74 0 01-12-2.2c-7.7-2.6-10.6-7.6-11.2-11.4l-.2-1.1.4-10c4.8-.4 12.3-.1 18 3.4 4.7 3 6.9 7.3 7.1 12 .2 3.1-.6 6.4-2 9.3z"/><path class="st9" d="M84.6 292.6a74 74 0 01-12-2.2c-7.7-2.6-10.6-7.6-11.2-11.4 6.7 2 15.8 3.3 25.3 4.2.2 3.2-.6 6.5-2 9.4z"/><path class="st15" d="M67.5 265.7v3.3M71.2 266.7l-.7 2.7M84.8 283.2l4.6-.4M122.5 269s-1 14-3 21.4"/><circle class="st23" cx="103.7" cy="287.4" r="2.3"/><circle class="st23" cx="110.9" cy="288.1" r="2.3"/></g></g></switch></svg>