<svg width="96" height="96" viewBox="0 0 96 96" fill="none" xmlns="http://www.w3.org/2000/svg">
    <path d="M48 2C22.5942 2 2 22.5942 2 48C2 73.4058 22.5942 94 48 94C73.4058 94 94 73.4058 94 48C94 22.5942 73.4058 2 48 2Z" fill="url(#paint0_linear)"/>
    <path d="M54.2456 59.7819H66.0325L67.8839 47.5417H54.2456V40.8512C54.2456 35.767 55.8715 31.2578 60.5239 31.2578H68V20.5773C66.686 20.3957 63.9078 20 58.6588 20C47.6963 20 41.27 25.9176 41.27 39.4009V47.544H30V59.7842H41.2677V93.4273C43.4994 93.7672 45.7607 94 48.0811 94C50.1785 94 52.2257 93.8045 54.2456 93.5251V59.7819Z" fill="white"/>
    <defs>
        <linearGradient id="paint0_linear" x1="15.7839" y1="15.7839" x2="86.2145" y2="86.2145" gradientUnits="userSpaceOnUse">
            <stop stop-color="#2AA4F4"/>
            <stop offset="1" stop-color="#007AD9"/>
        </linearGradient>
    </defs>
</svg>
