<?xml version="1.0" standalone="no"?>
<!DOCTYPE svg PUBLIC "-//W3C//DTD SVG 20010904//EN"
 "http://www.w3.org/TR/2001/REC-SVG-20010904/DTD/svg10.dtd">
<svg version="1.0" xmlns="http://www.w3.org/2000/svg"
 width="145.000000pt" height="145.000000pt" viewBox="0 0 145.000000 145.000000"
 preserveAspectRatio="xMidYMid meet">
<metadata>
Created by potrace 1.14, written by Peter Selinger 2001-2017
</metadata>
<g transform="translate(0.000000,145.000000) scale(0.100000,-0.100000)"
fill="#000000" stroke="none">
<path d="M613 1442 c-18 -3 -23 -10 -23 -32 0 -16 -11 -42 -26 -59 -48 -58
-146 -32 -113 30 6 12 7 20 2 17 -56 -28 -63 -33 -63 -54 0 -12 8 -32 19 -45
25 -31 109 -31 152 0 34 25 39 26 39 6 0 -9 9 -15 24 -15 24 0 24 1 19 78 -3
42 -6 77 -7 77 0 1 -11 -1 -23 -3z"/>
<path d="M822 1430 c-41 -9 -80 -44 -98 -87 -23 -53 -19 -63 26 -63 36 0 41 3
54 34 17 42 63 60 127 50 57 -9 109 -58 109 -102 0 -36 -1 -37 -130 -52 -112
-14 -156 -33 -188 -80 -20 -29 -23 -44 -20 -93 4 -46 10 -63 33 -87 63 -65
212 -66 303 -1 38 27 38 27 46 -9 5 -28 8 -30 51 -30 46 0 52 7 36 38 -5 9
-16 82 -25 162 -27 235 -30 241 -155 289 -92 34 -126 41 -169 31z m233 -291
c10 -31 -3 -83 -27 -114 -28 -35 -76 -55 -133 -55 -38 0 -52 5 -77 30 -25 26
-29 36 -24 62 11 55 13 56 181 87 73 13 73 13 80 -10z"/>
<path d="M314 1320 c-28 -11 -32 -41 -40 -293 l-7 -207 35 0 35 0 7 208 c3
114 8 228 11 255 4 49 -1 54 -41 37z"/>
<path d="M1186 1269 c10 -12 33 -30 49 -41 25 -17 24 -14 -10 20 -41 42 -74
59 -39 21z"/>
<path d="M215 1241 c-16 -17 -31 -42 -32 -56 -3 -22 0 -25 26 -25 26 0 31 4
36 34 4 18 5 43 3 55 -3 22 -4 22 -33 -8z"/>
<path d="M523 1219 c-18 -5 -39 -19 -48 -31 l-15 -22 0 22 c0 30 -36 30 -44 0
-3 -13 -6 -83 -6 -155 l0 -133 25 0 c25 0 25 1 25 88 0 93 12 153 34 171 28
23 73 24 95 2 19 -19 21 -32 21 -141 l0 -120 31 0 31 0 -6 131 c-7 129 -12
155 -38 176 -20 17 -70 22 -105 12z"/>
<path d="M113 1108 c-25 -33 -24 -37 10 -31 37 6 67 -15 67 -47 0 -19 -31 -33
-102 -45 -33 -5 -69 -38 -56 -51 3 -2 35 5 73 15 38 11 73 18 76 15 9 -5 -6
-61 -21 -79 -7 -8 -27 -19 -46 -25 -27 -9 -40 -9 -63 3 -31 16 -41 9 -41 -29
0 -23 107 -19 147 6 33 20 33 20 33 0 0 -15 7 -20 28 -20 l27 0 -3 122 c-4
147 -15 171 -79 176 -24 2 -44 -2 -50 -10z"/>
<path d="M1334 1085 c15 -90 23 -248 19 -372 l-4 -133 45 0 c37 0 46 4 47 18
7 92 6 215 -1 247 -5 22 -11 51 -13 65 -7 34 -36 106 -65 160 -33 60 -35 62
-28 15z"/>
<path d="M1217 899 l6 -83 -28 22 c-41 32 -113 30 -155 -4 -44 -37 -62 -79
-62 -143 -1 -68 21 -123 58 -148 40 -26 112 -23 152 6 26 18 32 19 32 7 0 -10
9 -16 25 -16 24 0 25 3 27 63 2 74 -2 360 -5 363 -1 1 -14 5 -29 9 l-28 7 7
-83z m-47 -94 c37 -19 51 -45 53 -98 4 -108 -84 -173 -157 -116 -24 19 -26 27
-26 93 0 77 14 110 54 126 31 13 44 12 76 -5z"/>
<path d="M640 861 c-81 -25 -131 -74 -155 -153 -19 -64 -19 -111 -1 -172 21
-70 55 -113 110 -141 106 -53 236 -10 297 99 31 55 39 178 15 241 -38 98 -162
157 -266 126z m137 -83 c36 -25 63 -87 63 -145 0 -108 -62 -193 -141 -193 -53
0 -92 21 -120 67 -20 31 -24 51 -22 109 1 76 15 115 55 150 29 27 44 32 92 33
26 1 51 -7 73 -21z"/>
<path d="M400 800 c0 -37 -2 -40 -19 -30 -30 16 -50 12 -76 -15 -53 -52 -19
-155 50 -155 19 0 37 5 41 11 5 8 9 8 14 -1 18 -29 25 5 22 114 -3 93 -6 116
-18 116 -10 0 -14 -12 -14 -40z m-9 -66 c29 -35 9 -114 -29 -114 -43 0 -72 86
-40 118 17 17 53 15 69 -4z"/>
<path d="M17 779 c-22 -13 -24 -91 -2 -109 19 -16 71 -15 91 1 20 17 18 82 -4
102 -21 19 -58 22 -85 6z m76 -30 c13 -21 2 -65 -19 -73 -37 -14 -69 29 -53
73 7 17 15 22 35 19 15 -2 31 -10 37 -19z"/>
<path d="M154 775 c-4 -9 -4 -61 0 -116 l7 -101 -43 30 c-53 36 -108 47 -108
21 0 -32 12 -49 34 -49 34 0 93 -50 112 -95 11 -26 18 -71 19 -128 2 -88 2
-88 41 -128 21 -21 42 -39 47 -39 5 0 7 19 3 42 -10 79 -18 201 -25 388 l-6
185 -38 3 c-27 2 -39 -1 -43 -13z"/>
<path d="M319 551 c-20 -16 -24 -29 -24 -71 0 -42 4 -55 24 -71 32 -26 85 -25
113 3 26 26 7 39 -21 14 -25 -23 -57 -20 -75 6 -9 12 -16 26 -16 30 0 5 29 8
65 8 65 0 65 0 65 28 0 61 -81 94 -131 53z m85 -17 c27 -26 18 -34 -34 -34
-47 0 -50 1 -40 19 17 33 50 39 74 15z"/>
<path d="M1295 513 c-71 -15 -137 -58 -160 -103 -21 -41 -19 -50 13 -50 21 0
37 10 60 39 36 45 84 64 147 59 42 -3 45 -1 55 26 5 16 10 31 10 32 0 5 -100
3 -125 -3z"/>
<path d="M988 483 c-25 -4 -27 -8 -32 -66 -3 -34 -8 -135 -11 -225 l-6 -163
37 16 c21 9 39 17 41 19 4 4 21 249 24 346 3 80 2 82 -53 73z"/>
<path d="M504 323 c3 -16 8 -87 12 -160 7 -142 6 -140 67 -148 23 -3 27 -1 23
13 -3 9 -6 51 -6 92 -1 41 -4 110 -7 153 l-6 77 -44 0 c-43 0 -44 -1 -39 -27z"/>
<path d="M1258 327 c-113 -37 -168 -94 -168 -174 0 -48 11 -53 50 -24 16 13
25 31 26 51 2 41 26 65 83 86 41 15 91 57 91 77 0 10 -5 9 -82 -16z"/>
<path d="M294 323 c2 -10 8 -55 11 -100 6 -65 10 -83 22 -83 13 0 15 10 10 63
-3 35 -4 73 -1 84 11 40 76 36 88 -4 2 -10 7 -48 11 -86 5 -48 11 -67 21 -67
29 0 10 173 -22 197 -22 16 -86 17 -102 1 -9 -9 -12 -9 -12 0 0 7 -7 12 -16
12 -10 0 -14 -6 -10 -17z"/>
<path d="M755 320 c-49 -7 -80 -26 -94 -58 -23 -48 14 -58 47 -12 19 26 29 30
68 30 39 0 46 -3 55 -27 5 -14 6 -30 2 -34 -4 -4 -40 -17 -79 -28 -82 -24
-108 -48 -108 -98 0 -77 85 -105 158 -52 25 19 30 20 37 6 5 -8 17 -13 26 -11
16 5 18 18 15 127 -4 156 -17 172 -127 157z m75 -179 c0 -65 -82 -114 -123
-72 -33 32 -12 64 55 84 71 21 68 21 68 -12z"/>
<path d="M357 101 c49 -30 133 -64 140 -57 21 20 -90 76 -151 76 -17 0 -16 -3
11 -19z"/>
</g>
</svg>
