<?xml version="1.0" standalone="no"?>
<!DOCTYPE svg PUBLIC "-//W3C//DTD SVG 20010904//EN"
 "http://www.w3.org/TR/2001/REC-SVG-20010904/DTD/svg10.dtd">
<svg version="1.0" xmlns="http://www.w3.org/2000/svg"
 width="700.000000pt" height="700.000000pt" viewBox="0 0 700.000000 700.000000"
 preserveAspectRatio="xMidYMid meet">
<metadata>
Created by potrace 1.14, written by Peter Selinger 2001-2017
</metadata>
<g transform="translate(0.000000,700.000000) scale(0.100000,-0.100000)"
fill="#000000" stroke="none">
<path d="M3320 6990 c-91 -13 -229 -54 -319 -96 l-75 -35 -56 25 c-66 29 -251
71 -375 86 -307 35 -667 -26 -930 -157 -120 -60 -195 -115 -283 -208 -71 -74
-74 -79 -67 -114 23 -124 144 -332 259 -447 66 -65 184 -155 203 -153 4 0 28
32 53 71 124 196 346 351 587 410 122 29 313 29 433 0 286 -70 523 -258 653
-517 32 -64 74 -199 83 -264 4 -28 10 -51 14 -51 4 0 11 23 14 52 27 201 157
429 327 573 184 156 389 230 634 228 159 -1 284 -30 420 -98 154 -76 319 -228
398 -366 12 -21 26 -39 30 -39 21 0 129 82 198 150 83 82 137 157 192 265 34
69 77 185 77 211 0 20 -139 162 -204 209 -237 169 -618 267 -972 252 -150 -7
-347 -43 -451 -83 -37 -15 -77 -26 -88 -27 -11 0 -57 17 -102 37 -139 62 -255
87 -433 91 -85 2 -184 0 -220 -5z"/>
<path d="M2565 5656 c-23 -10 -34 -26 -48 -65 -12 -35 -34 -67 -64 -96 -44
-43 -46 -46 -40 -90 9 -63 39 -116 89 -159 45 -39 91 -56 153 -56 91 0 174 51
217 134 28 53 31 154 5 207 -24 49 -74 98 -122 120 -47 22 -146 24 -190 5z"/>
<path d="M4255 5656 c-23 -10 -34 -26 -48 -64 -11 -32 -34 -67 -63 -96 -45
-44 -47 -47 -41 -91 9 -63 39 -116 89 -159 45 -39 91 -56 153 -56 91 0 174 51
217 134 30 56 31 155 1 211 -27 51 -78 100 -125 119 -45 19 -142 20 -183 2z"/>
<path d="M1930 4068 c0 -378 4 -637 11 -693 31 -253 152 -494 332 -662 60 -56
177 -143 192 -143 3 0 16 9 28 21 66 62 178 79 268 41 72 -31 139 -125 139
-195 0 -9 10 -18 23 -20 l22 -4 -22 -2 -23 -1 0 -240 0 -240 600 0 600 0 0
239 0 240 -22 4 -23 4 23 2 c13 0 22 7 22 17 0 71 66 165 139 196 86 37 206
19 268 -41 12 -11 25 -21 28 -21 15 0 132 87 192 143 180 168 301 409 332 662
11 89 17 1295 6 1295 -3 0 -26 -15 -52 -34 -98 -69 -243 -129 -378 -157 -33
-7 -116 -12 -185 -11 -156 0 -266 25 -399 87 -52 25 -98 42 -102 38 -3 -5 -26
-53 -49 -108 -112 -264 -233 -441 -336 -490 -137 -65 -301 106 -460 480 -25
61 -50 113 -53 118 -4 4 -50 -13 -102 -37 -114 -54 -193 -75 -319 -86 -227
-21 -468 42 -643 166 -26 19 -49 34 -52 34 -3 0 -5 -271 -5 -602z"/>
<path d="M996 2394 c-436 -79 -802 -399 -935 -819 -42 -130 -55 -223 -55 -370
-1 -320 120 -602 358 -841 180 -181 383 -290 633 -341 83 -17 241 -18 2958
-18 l2870 0 40 22 c86 46 129 118 129 213 0 92 -48 173 -129 218 -28 16 -247
17 -2900 22 l-2870 5 -70 23 c-232 78 -411 242 -492 452 -139 356 26 750 381
910 127 57 155 60 604 60 l412 0 0 240 0 240 -427 -1 c-324 -1 -447 -4 -507
-15z"/>
<path d="M5070 2170 l0 -240 853 0 c925 0 910 -1 982 54 19 15 47 48 62 74 23
39 28 59 28 112 -1 100 -52 181 -140 221 -38 18 -89 19 -912 19 l-873 0 0
-240z"/>
</g>
</svg>
