<svg xmlns="http://www.w3.org/2000/svg" viewBox="0 0 600 600"><g opacity=".4" fill="#DBBC92"><path d="M236.5 555c-39.7-.1-36 11-1.2 11s35.1-10.8 1.2-11z"/><path d="M471.3 521.5c-59.7 0-181.2-1.6-181.2-1.6-46.9 0-86-3.3-100.9 0-15 3.3-4.5 6.4-4.5 6.4s-44.4-3.2-55.1 2.9c-10.7 6 12.5 19.7 62.5 17 50-2.8 79.7-1 105.4 15.4 25.6 16.6 104.5 7.2 121.7 2.2 17.2-5 9.5-15.7-12.9-14.7s-5.4-7.2 49.1-3c54.6 4.4 75.7-24.6 16-24.6zm-228.5 14.6c-22 1.6-30-1.6-15.8-2.8 22.8-1.8 37.9 1.3 15.8 2.8zm94.5 14.5c-8.7-1.5-4.7-7-22-7.4-17.5-.2-26.4-4.3-14-4.8 20.2-.7 33.5 1.1 37.8 3.8 4.4 2.8 27.7-2.7 28.3 2.3.7 5-21.5 7.6-30.1 6.1z"/></g><path fill="#F3D6A8" d="M505 427.5c-12.2 48.4-71.4-8.2-72.3 38.8-1 47-92.6 49.8-142.9 43.7s-28.7-47-67.7-49.8c-39-2.8-94.9 10-115.6-47.3S94.3 247.5 95.7 189.3c1.4-58.3 37.1-26.8 38-70 .6-21.5 6-38.4 20.2-51.4l.2-.1c2.2-1.9 20.9-17 45.4-14.2 26 3 34.2 12.9 37.2 40.1 3 27.3 48.3 25.2 45.4-18-3-43.2 76.5-34.2 100.7-32 17.2 3.3 29.5 8.2 32 15.4 9.9 28.2.5 64.8 21.6 63.9 21.2-1 62.5-2.4 68.2 42.8 5.6 45 12.7 213.3.4 261.7z"/><g fill="#E09432"><path opacity=".4" d="M331.6 209.5c-25.7 0-32 36.2-32 82.7s-1.3 111 40 134.6 78.8-9.2 51.2-40.7-19.6-77.4-19.6-107 .2-69.6-39.6-69.6zM331 66.4c-30 0-29.6 36.5-29.6 68.4s3.7 62.4 31.9 62.4 31.4-32.9 31.4-62.9 1.9-68-33.8-68z"/><path opacity=".4" d="M332 81.9c-19 0-19 18.5-19 32.7s2.4 27.8 20.2 27.8 19.9-14.6 19.9-28 1.5-32.5-21-32.5zM341.3 363.4c-23.6 3.8-15 35.4.2 49 15 13.3 37.3 12.1 41.4-1 2.6-8.2 4.2-19.8-12.3-24-16.5-4.2-11.4-26.9-29.3-24zM187.2 75.3c-22.6 0-28.9 16.7-28.9 34.3s10 29.7 32.6 29.7 29.7-16.3 29.7-31-10-33-33.4-33zM181 154c-28 0-25.3 48-25.3 79.2s-1 81.9 35.6 81.9 31.8-41.5 31.8-79.7 3.2-81.3-42-81.3z"/></g><path fill="#E09432" d="M543.2 140.5c-7.4 34-33 59.6-64.3 68.6a18 18 0 00-12.6 13.6l-2.5 11.8-66-14 2.5-12a18 18 0 00-6-17.5 92 92 0 0181.9-159.2 91.8 91.8 0 0167 108.7z"/><path fill="#1B2D3D" d="M447 234.7a1.5 1.5 0 01-1.4-1.9l5.5-26.1c.1-.4.3-.7.6-.9 21.4-17.2 29.6-49 26-64.2-.8-3.3-2.5-7.3-6-8a9.3 9.3 0 00-6.7.9c1.7 7.7-.7 16.3-3.5 19.5-1.4 1.6-2.7 1.7-3.6 1.5-3.4-.7-3.8-6-2.8-10.7 1-4.6 3.2-9 6.4-11.6a11.5 11.5 0 00-9.3-8.2c-5-.9-8.4.9-10.7 3.4 2.7 4.9 3 11.2.8 17-.6 1.7-2.6 6.8-5.7 5.8-3.6-1-3.6-9.5-2.2-15.1.8-3.1 2-5.8 3.4-7.9l-.7-.9c-2.5-2.7-5.7-3.9-8.7-3-5.3 1.3-9.6 8-11.9 18.5a83.5 83.5 0 007.3 58.3c.2.4.3.8.2 1.2l-4.9 22.9a1.5 1.5 0 01-2.9-.6l4.8-22.4a86 86 0 01-7.4-60c3.5-15.9 10.3-19.9 14-20.9a11.7 11.7 0 0112.2 4.5 14 14 0 0112.9-3.7c5.5 1 9.4 4.2 11.4 9.4 2.4-1.1 5.1-1.5 8.2-.8 4 .8 6.9 4.3 8.3 10.2 3.7 15.5-3.7 48.2-26.6 67l-5.5 25.6c-.2.7-.8 1.2-1.5 1.2zm15.3-98.1c-2.3 2.5-3.7 6-4.3 8.8-1 4.4 0 7 .5 7.1 1 0 3.7-4.5 4-11.3 0-1.2 0-2.8-.2-4.6zm-22.8-5.4l-.8 1.5c-2.8 6.4-2.4 14-1.3 15.5.3-.3 1.1-1.2 2.1-3.9 2-5 1.4-9.7 0-13.1z"/><path opacity=".4" fill="#BC6F2A" d="M543.2 140.5c-7.4 34-33 59.6-64.3 68.6a18 18 0 00-12.6 13.6l-2.5 11.8-66-14 2.5-12a18 18 0 00-6-17.5 92 92 0 01-32.5-73.5c12.4 22.8 39 48.8 91.8 50.6 61.6 2.1 81-47.3 87-76a91 91 0 012.6 48.4z"/><path fill="#E09432" d="M426.6 284.9l-15.3-3.3a11.6 11.6 0 01-9-13.8l.2-.7a11.6 11.6 0 0113.8-9l15.3 3.3a11.6 11.6 0 019 13.8l-.2.7a11.6 11.6 0 01-13.8 9z"/><path fill="#5B8B72" d="M467.6 237.3l-8.1 37.8a4.8 4.8 0 01-5.7 3.7l-45-9.5L389 265a4.8 4.8 0 01-3.7-5.7l8-37.9a4.8 4.8 0 015.8-3.7l37.8 8 27 5.8c2.6.6 4.3 3.1 3.8 5.8z"/><path fill="#4A775E" d="M467.6 237.3l-8.1 37.8a4.8 4.8 0 01-5.7 3.7l-45-9.5a50.1 50.1 0 0028-43.5l27 5.7c2.6.6 4.3 3.1 3.8 5.8z"/><g fill="#83BE9C"><path d="M389 234.2l80 .1a3 3 0 100-6.2h-80a3 3 0 100 6.1M385.5 250.5l82.6.1a3 3 0 100-6.1l-82.6-.1a3 3 0 100 6.1M385.4 267h79.2a3 3 0 100-6.2h-79.2a3 3 0 100 6.1"/></g><g fill="#FFF"><path d="M418.6 56c-9.5-7.5-32.7 16.3-39.5 40.8s-1.4 53.8 11.4 52.7 5.3-22 9.7-41.4S437.6 71 418.6 56zM448.5 38C433 41.4 430 62.5 452 59.8c22-2.7 18-26.5-3.5-21.8z"/></g><g><path fill="#E09432" d="M471.2 249.2l-.4 1.1a5.2 5.2 0 01-5.8 2.8l-73.6-16.8a4 4 0 01-1-.3L294 194.8l-5.7-2.5 5-9 100.9 43 73.2 16.7c2.8.7 4.5 3.4 3.9 6.2z"/><path fill="#C47D33" d="M470.8 250.3a5.2 5.2 0 01-5.8 2.8l-73.6-16.8a4 4 0 01-1-.3L294 194.8l7.7-3.5 89.5 40.4 79.7 18.6z"/></g><g><path fill="#FFF" d="M302.7 184.2c2.2 1 4.3 2.2 6.6 2.9.8.2 1.4-1 .6-1.4-2.2-1-4.5-1.7-6.9-2.3-.4 0-.7.5-.3.8zM316 189.4c9.9 5.4 21 8.8 31.6 12.7 10.7 4 21.4 9 32.4 12.3.6.2 1-.7.4-1.1-9-6-20-9.8-30.2-13.5-11-4-22.4-8.8-34-11-.3-.1-.6.4-.2.6zM320.9 213c8.2 4 16.6 7.2 24.7 11.3 8.4 4.1 16.7 8.5 25.1 12.7 1.8 1 3.4-1.8 1.6-2.7-16.8-8-33.4-16.2-51.1-21.9-.4-.1-.7.5-.3.7z"/></g><g><path fill="#A60D27" d="M278.2 238.7s-6 44.6-14.3 58.8c-1 1.7-1.9 2.9-2.9 3.6-6 4.3-15.4 6.4-24.7 1-6-3.3-11.8-9.5-16.8-20-12.8-27.2-27.4-80-27.4-80l3.2-3.4 5.9-6.6s14.8-8.1 18.7 3.2c3.9 11.3 21 55 21 55l11.3-25.7s4.5-.2 10.1 1.7a31.2 31.2 0 0116 12.4z"/><path fill="#7B1116" d="M278.2 238.7s-6 44.6-14.3 58.8c-1 1.7-1.9 2.9-2.9 3.6-6 4.3-15.4 6.4-24.7 1-6-3.3-11.8-9.5-16.8-20-12.8-27.2-27.4-80-27.4-80l3.2-3.4 9 12.2s20.8 26.3 24.9 34.6c4 8.2 9.6 29.4 9.6 29.4s-1.2-11.2 2.1-24.6c0 0 3.2 7.6 10.4 17l11-41a31.2 31.2 0 0116 12.4z"/><circle transform="rotate(-15.6 269.4 260.3)" fill="#1B2D3D" cx="269.4" cy="260.3" r="2.9"/><circle transform="rotate(-15.6 271.8 248.4)" fill="#1B2D3D" cx="271.8" cy="248.4" r="2.9"/><path fill="#680913" d="M278.2 238.7c-2 .3-3.7.3-5.4.2a22 22 0 01-19.3-11.5c-1-1.7-1.3-2.8-1.3-2.8h1.9a32 32 0 0124.1 14.1z"/><path fill="#1B2D3D" d="M241.2 283a.7.7 0 01-.7-.6c-3-14.2-.7-27.8-.6-27.9a.8.8 0 011.4.3 81 81 0 00.7 27.3.7.7 0 01-.8.9zM248.2 279.5a.8.8 0 01-.7-.4 95 95 0 01-5.3-21.1.7.7 0 111.5-.2c0 .1 1.8 13.1 5.1 20.7a.8.8 0 01-.6 1z"/><path fill="#BB233D" d="M263.9 297.5c-1 1.7-1.9 2.9-2.9 3.6-6 4.3-15.4 6.4-24.7 1a19 19 0 013.2-6.2c1.8-2.4 4.5-4.5 8.5-5.5 3.7-1 7 0 9.9 1.8a23 23 0 016 5.3z"/><path fill="#1B2D3D" d="M257 294.7h-.4a.7.7 0 01-.3-1.1l1.8-3.4a.8.8 0 011.3.7l-1.8 3.4c0 .2-.3.4-.6.4zM259.6 296.7a.7.7 0 01-.6-1.1l2.4-3.7a.8.8 0 011.3.8l-2.5 3.7c-.1.2-.4.3-.6.3zM241.6 299l-.6-.3-2.7-3a.7.7 0 011-1l2.8 3a.7.7 0 01-.5 1.2z"/><g><path fill="#CC8273" d="M308 205.2c0 1.3-27.6 19-29.3 19.3-1.7.3-4.2-.2-4.2-.2l-1 8.8-.7 5.8a22 22 0 01-19.3-11.5l.6-2.8v-.5a32 32 0 013.7-10.9c2.7-3 6.4-5.3 6.4-5.3l-4.4-10.5s32.5-20.8 33.8-20.5a165.6 165.6 0 0114.3 28.3z"/><path fill="#BD6A5C" d="M308 205.2c0 1.3-27.6 19-29.3 19.3-1.7.3-4.2-.2-4.2-.2l-1 8.8-.7 5.8a22 22 0 01-19.3-11.5l.6-2.8v-.5c4.7 2.7 12 2.7 12 2.7l1.3-11.3s4 2.9 10 1.4c4.1-1 18.8-11 28-17.6 1.5 3.2 2.5 5.5 2.5 5.9z"/><path fill="#1B2D3D" d="M281.1 210.8a.7.7 0 01-.6-.4 365.7 365.7 0 00-9.6-17.3c-.1-.4.1-.8.5-1 .8-.2 1-.3 10.4 17.6a.7.7 0 01-.7 1.1z"/><g><path fill="#1B2D3D" d="M291.6 204.5a.7.7 0 01-.6-.4l-8.4-17a.7.7 0 111.4-.6l8.3 17a.7.7 0 01-.7 1z"/></g></g><g><path fill="#FFF" d="M216.2 187.5l2 .9c.5.3 1 1 1.7 1.2.5.2 1.2-.5 1-1-.7-1.6-3-2.3-4.6-2.3-.7 0-.8 1-.1 1.2zM222.3 192.5c2.2 3.6 2.6 7.7 3.6 11.7.9 3.8 2.5 7 4 10.6 1.4 3.7 1.8 7.7 3.4 11.4 1.6 4 4 7.3 4.6 11.8.2 1.3 2.2.9 2.2-.3 0-3.5-1.5-6.4-3.1-9.4-2.5-4.6-3.4-9.5-5.4-14.3a80.8 80.8 0 01-4.5-13c-.8-3.4-2-6.3-4.5-8.7-.2 0-.4 0-.3.2zM243.6 237.8c.4-1 1-1.9 1.3-2.9.4-.8.9-1.8.9-2.7 0-.6-.8-1-1.2-.5-1.3 1.5-1.5 4-1.8 5.9-.2.6.6.8.8.2zM249 225.6c4-5.8 6-12.6 10.4-18 .6-.9-.3-1.8-1-1.2-2.7 2-4 5.3-5.4 8.2-1.7 3.5-3.4 7-4.6 10.7 0 .4.5.6.7.3zM259.6 201.2l-.5-3.8c-.2-1-.2-2.2-.5-3.2 0-.3-.4-.4-.6-.3-1.1.7-1.5 2.1-1.3 3.4.2 1.8 1 3 2 4.4.3.5 1 .2 1-.5zM259.7 192.8c6-2.8 11.6-6.7 17.6-9.6l8.3-4c3-1.2 10.1-6 11.4-.1.4 1.8 3.2 1 2.9-.8-1.8-8.3-9.5-3.4-14.5-1.2-8.9 4-19.2 8.1-26.2 15.1-.3.3.1.8.5.6zM282.7 233.8c-.8 3.3-1 6.8-1.3 10.2-.4 3.9-1 7.7-1 11.6 0 1 1.3 1.2 1.6.3 1.8-6.7 3-15.3 1.9-22.1 0-.7-1-.6-1.2 0zM280 261.6c-.8 13-2.7 26.6-10 37.6-.4.5.4 1 .8.6a36.2 36.2 0 008.4-17c1.9-7 2.8-14 2.1-21.2 0-.8-1.2-.8-1.3 0zM286.2 228.1l1.7-1.5c.5-.4 1.2-.9 1.4-1.5.2-.5-.3-.8-.7-.7-.6.1-1.1.8-1.6 1.3l-1.7 1.5c-.5.6.3 1.4.9 1zM295.1 220.5c3-2.5 6.3-5 9.7-6.9 3.6-2 7.4-2.3 11-3.8.6-.3.8-1.2 0-1.4-8-2-16.5 6.2-21.3 11.5-.4.4.2 1 .6.6z"/></g></g><g><path fill="#B25E4E" d="M297.9 509.6s-4 5.5-10.2 7.2c-6.2 1.8-26.1-7.6-38.8-11.7-12.7-4-13-6.2-11.3-16.8.8-4.8 3.1-14.5 5.4-23.5l5.3-20.5L274 448s-2.7 9.5-4.1 16.4l-.8 4c-1 6.5-1.8 14.7 5.3 23 7 8.5 23.6 18.2 23.6 18.2z"/><path fill="#A34A3B" d="M273.9 448s-2.7 9.5-4.1 16.4l-26.8.4 5.3-20.5L274 448z"/><path fill="#C67813" d="M318.6 532.6H275a13.2 13.2 0 01-11.3-6.5c-6.2-10.5-13.8-15.2-13.8-15.2-3 6-4.4 16.4-5 21.7h-17.1c0-35.8 10-52.8 10-52.8a90.2 90.2 0 0020.4 19c7.5 5.3 15 9.3 19.8 10 9.6 1.7 14.6-4.4 14.6-4.4s18.9 8.4 22 12.3c3 4 4.1 16 4.1 16z"/><path fill="#AA6217" d="M269 531.2c-2.2-1.2-4.1-2.9-5.4-5-6.2-10.6-13.8-15.3-13.8-15.3-3 6-4.4 16.4-5 21.7h-17.1c0-35.8 10-52.8 10-52.8a90.2 90.2 0 0020.4 19c2.6 13 7.2 24.5 10.8 32.4z"/><g><path fill="#3B7155" d="M306.5 368.5v.4c-.3 2.1-2.6 8.3-5.7 16.2-8.2 20.7-22.4 53-22.4 53l-32.3-5 8.9-44.4s-21.4-18.8-37-30.5c-15.6-11.7-33.4-37-12-59.4 7-7.4 20.9-5.6 36.2 6a741 741 0 0151.3 47.5c7.6 8 13 14.3 13 16.2z"/><path fill="#2E5D43" d="M306.4 368.9c-.2 2.1-2.5 8.3-5.6 16.2-8.2 20.7-22.4 53-22.4 53l-32.3-5 8.9-44.4s-21.4-18.8-37-30.5c-15.6-11.7-33.4-37-12-59.4 7-7.4 20.9-5.6 36.2 6 3.2 2.6 8 6.6 13.5 11.5-4.5 13.4-14.5 34.3-14.5 34.3s16.3-2.1 20.8-1.6c4.4.5-8 13.5-8 13.5s14.2 16 27.4 16c6.8 0 17-4.9 25-9.6z"/><path fill="#0B1823" d="M223 353.6h-.3a.7.7 0 01-.4-1c0-.2 7.3-15.3 20.1-25.6a.8.8 0 011 1.2 81.7 81.7 0 00-19.7 25c-.2.2-.4.4-.7.4zM229.2 351.4c-.2 0-.3 0-.5-.2a.8.8 0 01-.2-1c.3-.4 6.6-9.4 17.5-14.3a.7.7 0 11.6 1.4 44.7 44.7 0 00-16.8 13.7c-.2.3-.4.4-.6.4zM261.8 427.8h-.1a.7.7 0 01-.6-.9l9.3-49-33.3-29.4a.8.8 0 011-1.1l33.6 29.7c.2.2.3.5.3.8l-9.5 49.3c0 .3-.3.6-.7.6z"/><path fill="#0B1823" d="M260.1 385.8a.7.7 0 01-.5-1.3c.5-.4 11.5-9.1 20.2-13.1a.8.8 0 01.6 1.4 122.9 122.9 0 00-20.3 13zM267.7 384.4a.7.7 0 01-.3-1.4c.4-.1 7.6-3.1 11.2-3.7.4 0 .8.2.8.6.1.4-.2.8-.6.9a79.6 79.6 0 00-11 3.6z"/><path fill="#5CA47A" d="M306.5 368.5v.4c-.3 2.1-2.6 8.3-5.7 16.2-2-1.1-4.4-2.6-6.4-4.7a19 19 0 01-3.2-4 16 16 0 01-2-6.3 28.7 28.7 0 01.8-10.3c1-3.2 2.3-5.8 3.5-7.5 7.6 8 13 14.3 13 16.2z"/><path fill="#3B7155" d="M306.4 368.9c-.2 2.1-2.5 8.3-5.6 16.2-2-1.1-4.4-2.6-6.4-4.7a19 19 0 01-3.2-4c5-1.9 10.5-4.7 15.2-7.5z"/><path fill="#0B1823" d="M293.2 361h-.1l-6.7-1a.7.7 0 11.2-1.5l6.7 1a.7.7 0 01-.1 1.6zM292.3 363.8h-6a.8.8 0 010-1.5h6a.8.8 0 010 1.5zM292.1 384.1l-.4-.1a.7.7 0 01-.2-1l4.2-5.4a.8.8 0 011.1.9l-4 5.3c-.2.2-.4.3-.7.3z"/><g><path fill="#3B7155" d="M243.2 425.7l42.4 4.4-6.8 27.2-40.3-5.6z"/><path fill="#0B1823" d="M256.2 451.7h-.1a.8.8 0 01-.7-.8l3-20.4c0-.4.5-.7.9-.6.4 0 .7.4.6.9l-3 20.3c0 .4-.3.6-.7.6zM262 449h-.1a.8.8 0 01-.7-1l2-16c0-.5.4-.7.8-.7s.7.4.6.8l-1.9 16.2c0 .3-.4.6-.7.6z"/></g></g><g><path fill="#DDB987" d="M233 456.2c-1.6 5.2-2.3 11-3.5 16.4-1 4.7-3 9.9-2.7 14.7 0 .7 1 1 1.3.4 2.5-4.5 3-10.5 4-15.5 1.1-5.2 2.5-10.5 2.7-15.8 0-1-1.4-1.2-1.7-.2zM224.2 496.9c0 .9-.5 1.6-.6 2.5-.1.5 0 1 .6 1.2.4.2 1 0 1.2-.4.6-1 .5-2.4.2-3.5-.2-.9-1.4-.6-1.4.2zM222.2 506.6c-1.3 7.9-.8 16.1-1 24.1 0 2 3 2 3 0 0-8 .6-16-.4-24-.1-.7-1.5-1.1-1.6-.1z"/></g><g><path fill="#FFF" d="M273.3 325c6.8 6.5 14.5 12.1 21 19 3.1 3.3 6.2 6.8 9.1 10.3 4.2 5 9.3 9.9 8 17-.2 1.2 1.6 1.7 2 .5 1.4-4.3-.9-8.4-3.4-11.9-3.2-4.5-6.2-9-10-13.2a98.5 98.5 0 00-26.2-22.4c-.4-.2-1 .4-.5.8zM310.5 375.4c-.6 1.3-.8 2.8-1.4 4.2-.2.4-.3.9 0 1.3.2.4.5.6 1 .6.7 0 1-.4 1.3-1 .6-1.5 1.2-3.2.8-4.9-.2-.7-1.4-1-1.7-.2zM307.7 384.2c-2 4.2-3.5 8.7-5.2 13.1-1.6 4.3-3.7 8.5-5.1 12.8-.2.6.6 1 1 .6 2.6-2.5 3.5-6.7 4.8-10 2-5.4 4.1-10.6 5.6-16 .2-.7-.8-1.2-1-.5z"/><path fill="#FFF" d="M310.5 355c13.4 14.8 0 34.7-3 50.8-.1.5.7 1 1 .4 2.1-4.7 3.4-10 5-14.9 1.8-5.3 3.6-10.6 4.2-16 1-7.8-.5-15.7-6.7-20.9-.4-.3-.9.2-.5.5zM305.3 410.5a38 38 0 01-.7 2.8c-.3.8-.7 1.6-.5 2.5.2.4.6.6 1 .4.9-.5 1-1.5 1.3-2.4.2-1 .3-2 .3-3.1 0-.7-1.2-1-1.4-.2z"/></g></g><g><path fill="#CC8273" d="M394 509.6s-3.9 5.5-10.1 7.2c-5.5 1.6-21.5-5.5-34-10l-4.8-1.7c-12.7-4-16.2-6.3-14.4-16.9.2-1.2-24.2-24-32-32l33.2-1.9 13.7 12.7a431 431 0 0124.8 24.5c7 8.4 23.6 18.1 23.6 18.1z"/><path fill="#BD6A5C" d="M350 506.8l-5-1.7c-12.6-4-16-6.3-14.3-16.9.2-1.2-24.2-24-32-32l33.2-1.9 13.7 12.7c-.8 6.2-1.2 19.4 4.4 39.8z"/><path fill="#E09432" d="M414.8 532.6h-44.7c-4.3-.3-8.2-2.7-10.4-6.5A47.3 47.3 0 00346 511c-2.9 6-4.4 16.4-5 21.7h-17c0-24.2.9-39.3 1.5-46.6.2-2 2.5-2.8 3.8-1.5a93.6 93.6 0 0020.7 14.5c9.6 5.2 19.3 9 24.1 9.9 9.7 1.6 14.7-4.5 14.7-4.5s18.8 8.4 21.9 12.3c3 4 4.2 16 4.2 16z"/><path fill="#C47D33" d="M370.1 532.6c-4.3-.3-8.2-2.7-10.4-6.5A47.3 47.3 0 00346 511c-2.9 6-4.4 16.4-5 21.7h-17c0-24.2.9-39.3 1.5-46.6.2-2 2.5-2.8 3.8-1.5a93.6 93.6 0 0020.7 14.5c3.8 9.8 10.1 22.4 20.2 33.6z"/><path fill="#5B8B72" d="M331.6 449.8l-5 6.1-14.6 18s-149-83.4-156.6-92.5c-7.7-9-12.8-35.6-10-61.8 2.9-26.1 49.8-26.4 57-12.5a333 333 0 0115.6 44.5l42.7 37L289 413l42.6 36.8z"/><path fill="#83BE9C" d="M289 413c-19.7 10-36.7-11.4-28.3-24.5L289 413z"/><path fill="#1B2D3D" d="M261 394.9h-4.8a.8.8 0 010-1.5h4.7a.8.8 0 010 1.5zM256.8 398.1a.7.7 0 010-1.5l4-.5c.5 0 .8.3.9.7s-.3.8-.7.8l-4 .5h-.2zM277.4 418.8a.8.8 0 01-.7-.7v-5a.8.8 0 011.5 0v5c0 .4-.4.7-.8.7z"/><path fill="#4A775E" d="M326.6 455.9l-14.6 18s-149-83.4-156.6-92.5c-7.7-9-12.8-35.6-10-61.8 2.9-26.1 49.8-26.4 57-12.5 7 14 15.6 44.5 15.6 44.5s-29 5.1-40.1 13.3c-11 8.2 24-3.4 24.8-3.7-.4.4-11.1 10.4-12 18.8-.7 8.6 46.9 38.2 86 57.6 16.1 7.9 34.2 14 50 18.3z"/><path fill="#1B2D3D" d="M218 352.3h-.1a.7.7 0 01-.6-.5l-8.7-28.6a.8.8 0 011.4-.4l8.2 26.8 3.3-6.1-4.7-23.2a.8.8 0 011.4-.3l4.8 23.5v.5l-4.4 8c-.1.2-.4.3-.6.3zM176.5 364.6c-1.3 0-1.4-.4-1.6-.8-.4-.9.4-1.7 3.2-3.4a85.4 85.4 0 0136.8-8.8.8.8 0 010 1.5c-.2 0-21.6 0-36 8.6-1.1.7-1.7 1-2.1 1.4 4-.1 21.6-5.2 33.8-9.2a.7.7 0 11.5 1.5l-17.3 5.2c-10.8 3.1-15.3 4-17.3 4zM186.8 377.6a.7.7 0 01-.6-1.1 50.7 50.7 0 0123.3-19.6.8.8 0 01.6 1.4c-.2 0-14.7 5.6-22.7 19-.1.2-.4.3-.6.3z"/><path fill="#1B2D3D" d="M307 460.3l-.5-.1-131.2-81.4-.2-.2c-.3-.4-8-10-10.2-29.5 0-.4.3-.8.7-.8.4-.1.8.2.8.6 2 18.1 9 27.7 9.8 28.7l131.1 81.3a.8.8 0 01-.4 1.4z"/><path fill="#1B2D3D" d="M175.7 379a.7.7 0 01-.7-1.2c2.1-3.8 5.4-10.2 5.4-11.6 0-1.4-2.3-12.3-3.8-19.2a.8.8 0 111.4-.3 301 301 0 014 19.5c0 2.1-4.7 10.6-5.6 12.3-.2.3-.4.4-.7.4zM244.6 427.5a.7.7 0 01-.4-1.3l15-10.4c.4-.3.8-.2 1 .1.3.4.2.9-.1 1l-15 10.5-.5.1zM249 429.3a.8.8 0 01-.3-1.5l10.7-4.3a.7.7 0 11.5 1.4l-10.7 4.3h-.3z"/><g><path fill="#83BE9C" d="M346.4 459.3l-4 4.2-21 22.6-17-12.4h-.2l26.6-30.5z"/><path fill="#5B8B72" d="M342.5 463.5l-21.1 22.6-17-12.4 12.1-12s12.6 4.8 26 1.8z"/><path fill="#1B2D3D" d="M330.8 474.1l-.5-.1-13.3-10.4a.7.7 0 111-1.2l13.2 10.4a.7.7 0 01-.4 1.3zM331 469l-.5-.2-8-6.5a.8.8 0 011-1.2l8 6.5a.8.8 0 01-.5 1.3z"/></g><g><path fill="#FFF" d="M301.7 418.3c3.7 4.4 8.8 7.9 13.3 11.4 4.1 3.2 8.3 6.3 12.8 9 .5.4 1-.3.6-.7-4.2-4-8.6-7.7-13.1-11.2-4.1-3.2-8.3-7-13-9.3a.5.5 0 00-.6.8zM335.4 443.2c.6 1.1 1.7 2 2.8 2.7 1 .6 2.2-1 1.2-1.7-1-.8-2-1.6-3.3-1.8-.5-.1-1 .3-.7.8zM346 454.4c2 .8 4 3.2 5.8 4.7l5 4.4c1 1 2.5-.6 1.5-1.5-2-1.8-3.9-3.5-6-5-1.7-1.4-3.9-3.2-6-3.7-.8-.1-1 .8-.4 1zM363.5 470.8a165.5 165.5 0 0030.4 28.4c.5.4 1.1-.4.7-.8-9.9-9.7-19.9-19.3-30-28.7-.7-.6-1.6.3-1 1z"/><path fill="#DDB987" d="M400.5 504c5.2 5.2 13.7 5.5 17 12.6.6 1.1 2.5.3 2.1-.9-2.2-8-12.4-8.7-18.3-12.7-.6-.4-1.2.5-.8 1zM418.6 520.1c.1 3.6-.2 7.7 1.1 11 .6 1.6 3 1.5 3-.3 0-3.7-1.6-7.4-2.8-10.8-.2-.8-1.4-.7-1.3.1z"/><path fill="#FFF" d="M349.4 448c6.2 6.3 12.7 12.2 19.2 18 5.5 5 11 11 17.7 14.4 1 .5 2-.7 1.1-1.5-5.8-5.1-12-10-17.9-15.1a480.6 480.6 0 00-19.4-16.5c-.5-.4-1.2.2-.7.7zM393.7 487c.7 1 1.4 2.1 2.3 3.1.8 1 1.8 2.1 3 2.2.6 0 1-.6.9-1.2-.4-1-1.6-1.7-2.4-2.4-1-.8-1.9-1.6-2.7-2.5-.6-.6-1.5.1-1 .8z"/></g><g><path fill="#FFF" d="M217.3 427.7c3 1.5 6.1 2.9 9.2 4.2 5.7 2.4 2 8.7 2 13.2 0 .9 1.4 1.4 1.8.5 1.2-2.8 1.8-6.2 2-9.2.2-1.5.2-3-.9-4.2-1.1-1.3-3.6-2-5.3-2.5-2.8-1-5.8-1.5-8.6-2.6-.3-.1-.6.4-.2.6zM155.7 392.6c3.9 4 9.4 5.8 14.3 8.2 5.3 2.7 9.7 6.8 14.9 9.8l17 9.2c3 1.7 7.2 2.8 9.7 5.2 1.1 1 2.7-.6 1.7-1.6-2.1-2.2-5.3-3.5-7.9-4.8-5.8-3-11.5-6.2-17.3-9.3-5.4-3-10-7.1-15.4-9.8-5.5-2.7-11.1-4.7-16.5-7.6-.4-.3-.9.3-.5.7z"/></g></g><g><path fill="#5B8B72" d="M203 272.5s-31-14.2-44-32.2c-13-18-17.7-27.7-17.7-27.7l2.4-1 18.8-7.4 21.5-4.1.9-.2s13.4 16.3 16.9 34c3.5 17.6 1.2 38.6 1.2 38.6z"/><path fill="#4A775E" d="M203 272.5s-31-14.2-44-32.2c-13-18-17.7-27.7-17.7-27.7l2.4-1c17.1 24.4 55.5 52.3 55.5 52.3A245 245 0 00184 200l.9-.2s13.4 16.3 16.9 34c3.5 17.6 1.2 38.6 1.2 38.6z"/><path fill="#1B2D3D" d="M193.4 257.7a.7.7 0 01-.8-.5 206 206 0 00-20.3-43 .8.8 0 011.3-.9c.1.2 14 22.2 20.5 43.5a.7.7 0 01-.7 1z"/><path fill="#BB233D" d="M176.3 205.4c-.6 2-1.7 3.6-2.6 4.8a18.7 18.7 0 00-4.7-4.2c-.3 2.5-.3 4.8-.4 6.3-8.4.4-12.3-3.2-12.3-3.2l.3-6.9c8.4-4.7 17.2-3.1 17.2-3.1l2.5 6.3z"/><g><path fill="#CC8273" d="M169.6 200.3c-.4 1.1-1.5 2.4-1.5 2.4-3.6.4-5.6-1-5.6-1l-2-13.4.6.1 6.7 1.6 1.5 8.6.3 1.7z"/><path fill="#1B2D3D" d="M169.3 198.6c-7-.3-8-7.6-8.2-10.2l6.7 1.6 1.5 8.6z"/></g><g><path fill="#BB233D" d="M252.3 309.5s-5 17-16.2 31.3L213.3 324l-6.4 18-5.4 15.4c-16.2 1-40.6-1.1-66.1-15.4l.2-41.5-32.1-42.8s.9-6 3.4-13.4a68.6 68.6 0 018.2-17c2.3-3.4 5-6.5 8.3-8.7l18-6s38.8 50.5 61.6 59.9c0 0 5.6-29.5-18.6-72.4l16.8-8 5.5 18s20 19.3 20.7 25c.3 2.4-.7 8.9-2 15.6v.1a486 486 0 01-4.2 18.7v.1l31 40z"/><path fill="#902429" d="M225.4 250.7v.1l-4.2 18.7v.1S188 286 178.4 303.8c-8.6 15.9 12.4 29.8 28.5 38.2l-5.4 15.4c-16.2 1-40.6-1.1-66.1-15.4l.2-41.5-32.1-42.8s.9-6 3.4-13.4c18.4 9.6 42.7 28.9 58.8 33.6a54 54 0 0059.7-27.2z"/><path fill="#6D1C1F" d="M135.6 300.5l-32.1-42.8s.9-6 3.4-13.4a68.6 68.6 0 018.2-17c6.7 5 12.6 14.7 12.6 14.7s22.2 20.6 8 58.5z"/><path fill="#1B2D3D" d="M212.4 317.5a.7.7 0 01-.7-.5l-7.7-26.6v-.1l-.5-12.4c0-.4.3-.7.7-.8.4 0 .8.3.8.8l.4 12.2 7.7 26.5a.8.8 0 01-.7 1z"/><circle fill="#1B2D3D" cx="210.6" cy="289.5" r="2.6"/><circle fill="#1B2D3D" cx="214.9" cy="303.5" r="2.6"/><path fill="#1B2D3D" d="M147 328.2a.8.8 0 01-.7-.8l.8-30c-3.7-5.5-14.8-18.3-14.9-18.4a.7.7 0 111.2-1 350.5 350.5 0 0115.2 19.1l-.8 30.3c0 .4-.4.8-.8.8z"/><path fill="#1B2D3D" d="M171.2 304.5h-.3l-23.2-6.7-7.5-1.8a.7.7 0 11.3-1.5l7.5 1.9 23.4 6.7a.7.7 0 01-.2 1.4zM173 313.3h-.3l-19-7.1a.8.8 0 01.5-1.4l19 7a.8.8 0 01-.2 1.5z"/><path fill="#FFF" d="M136.3 212.5l7.8-2s36.5 48.4 58.3 59c.8-4.9-1.6-35.9-19.6-70.4l7.3-3s13.3 16 21.3 32.3l-4.9 14.2 8.7 1.8s-2.8 18.9-12.2 28c0 0-24 .6-36.4-5.6l5.5-11.3-19 1.8s-10.4-18-16.8-44.8z"/></g><g><path fill="#FFF" d="M179.2 195.7c.2.8.8 1.7 1.6 2 .3 0 .8 0 .9-.4v-.2c.2-.3 0-.7-.3-.9-.5-.3-.9-.4-1.2-1-.3-.6-1.2-.1-1 .5zM188 195c7.7-3.3 16-8.8 24.6-8.7 1 0 1-1.4 0-1.5-8.9-.4-17.4 5.6-25 9.5-.5.3-.1 1 .4.7z"/></g></g><g><path fill="#1B2D3D" d="M156.5 177.8s-5.4 2.9-5.5 8.6c0 5.7-3 21.1-20.4 21.7-9.6.3-13.4-3.3-14.8-6.9-1.4-3.3-.7-6.7-.7-6.7 5.8 4.9 13.3 1.9 16.7-8.6 3.3-10.5 9.5-16.3 16.3-15 4.1.9 6.3 3.2 7.4 4.9a8 8 0 011 2z"/><path fill="#13222D" d="M156.5 177.8s-5.4 2.9-5.5 8.6c0 5.7-3 21.1-20.4 21.7-9.6.3-13.4-3.3-14.8-6.9 10.2 10.6 24.9 1.6 25.3-8 .3-10 1.4-16 7-18.2a8 8 0 017.4.8 8 8 0 011 2z"/><path fill="#CC8273" d="M173.9 188.4c-.4 3.8-1.9 6-4.8 6.2-1.5.1-3.3-.3-5.4-1.3-6.6-3-6.4-17.5-.6-19.2l1.5-.3c9-1.6 9.7 9.2 9.3 14.6z"/><path fill="#BD6A5C" d="M169 194.6c-1.4.1-3.2-.3-5.3-1.3-6.6-3-6.4-17.5-.6-19.2l1.5-.3c-1.1 10.5 0 16.9 4.5 20.8z"/><path fill="#BB233D" d="M158 175.3s-1.6-1-3.3.4c-1.6 1.3-.7 5.9 2.5 4.8 3.2-1.1 2.3-4.7.9-5.2z"/><path fill="#1B2D3D" d="M179.2 182.3c-2.3 3.4-8.2 3.3-10.5-1-2.2-4.2-4.9-3-4.9-3 .3 1.5.3 2.7 0 3.6-.5 2.5-2.5 2.8-2.5 2.8v1.7l-1.9.3s-4.3-5.6-2.5-10.2v-.1c2-4.7 7-3.6 7-3.6s4-3.4 9-1.8c6.8 2.3 4.7 11.2 4.7 11.2h1.6z"/><path fill="#13222D" d="M163.9 181.9c-.6 2.5-2.6 2.8-2.6 2.8v1.7l-1.9.3s-4.3-5.6-2.5-10.2c1.3 3.3 4.7 4.8 7 5.4z"/><path fill="#BD6A5C" d="M161 187l.4 2s-.6 2.4-3.9 1.3c-3.5-1.3-4.5-7.3-.3-6.8 1.8.3 3.3 1.7 3.7 3.5z"/><g><path fill="#FFF" d="M115.9 206.3c-2.4-2.6-2.3-6.5-2.6-9.8 0-1-1.7-1.4-1.8-.2-.7 4.1.6 8 3.6 10.8.5.6 1.3-.2.8-.8zM113.3 192.1l.7-1.1c.2-.4.3-.7.2-1.1 0-.2-.2-.4-.4-.3-.4.2-.6.4-.8.8l-.5 1.2c-.3.6.5 1 .8.5zM116.3 190c2.3 1.3 5 3.3 7.5 1.2 2.4-2 4-6 4.1-9 0-.9-1.3-1-1.5-.2-.5 2.3-1 4.6-2.3 6.6-1 1.5-1.8 2.3-3.7 2-1.2 0-2.7-.7-3.8-1.1-.3-.2-.6.2-.3.4zM130 178.8c.1-.5.5-1 .8-1.5.3-.5.7-.8.7-1.5 0-.5-.5-.8-1-.7-1.5.2-1.6 2.4-1.6 3.5 0 .7.8.8 1 .2zM136.4 172.7c5.7-3.7 12.4-7.2 18-1.3 1 1.2 2.7-.6 1.7-1.8-2.6-3-5.2-4-9.2-3.5-4.2.5-8.5 2.4-11.1 5.8-.4.4 0 1.2.6.8zM161 170.7l3.6-1c1-.2 2.4-.2 3.3-.9.6-.4.6-1.4-.2-1.6-2.4-.4-5 1.5-7 2.7-.4.3-.1.9.3.8zM170.8 169.6c14.3 0 8.7 13.7 6.9 22.2-.3 1.2 1.6 1.8 2 .5 1.5-6.1 4.8-13 1.9-19.2-2-4.2-6.7-6.5-11-4.4-.4.2-.2.9.2.9z"/></g></g><g><path fill="#E09432" d="M271.8 221.6a142.6 142.6 0 00-12.6 49.5c-1.9 20.7-9.9 36.4-23.6 46.8-22.5 17-53.1 14.3-62 13l-24.4 20.2V501a5 5 0 01-1.5 3.6 5.1 5.1 0 01-8.8-3.7V348.8c0-1.6.7-3 1.9-4l28-23.1c1.2-1 2.7-1.4 4.2-1.1.4 0 34.1 6 56.4-10.8 11.3-8.6 18-21.9 19.5-39.5a152.4 152.4 0 0116.5-58.7c1 2.2 3 6 6.4 10.1z"/><path fill="#C47D33" d="M271.8 221.6a142.6 142.6 0 00-12.6 49.5c-1.9 20.7-9.9 36.4-23.6 46.8-22.5 17-53.1 14.3-62 13l-24.4 20.2V501a5 5 0 01-1.5 3.6l-3-138.4-5.8-2.6v-9.4l7.6-7.7 20.3-19s29 1.2 48.1-2.9 38.8-24.5 39.5-51.5c.7-27 12.5-49.5 12.5-49.5-1.4-2.1-2.8-5-3.9-7.7a98 98 0 012.4-4.4c1 2.2 3 6 6.4 10.1z"/><path fill="#FFF" d="M132.6 365c-1 5.8-.3 12-.2 17.8.1 5.4-.3 11.1 1.1 16.4.2.8 1.4.6 1.4-.2.7-5.6 0-11.5-.2-17.2-.2-5.6.1-11.3-1.1-16.8-.1-.5-1-.5-1 0zM133.7 405.6c0 .9-.2 1.7-.3 2.6 0 .7-.2 1.6 0 2.4.4.7 1.2.7 1.5 0 .3-.8.1-1.7 0-2.4 0-.9-.2-1.7-.3-2.6 0-.6-.8-.6-.9 0zM133.2 416.7c0 8.2.6 16.1 1.7 24.2a1.2 1.2 0 002.3-.3l-3-23.9c0-.6-1-.6-1 0z"/></g><g><path fill="#CC8273" d="M190.8 341.8s-8 10.3-16.5 20l-4.8 5.3-15.2-11.5s-9.7 4.5-13.3 4.4c-3.7-.2-10.7-11.7-10.7-11.7l-5.9-3.6 12.2-18.7 7 3.5 1.4.7s17.6-13.9 20.3-15.2c2.7-1.2 24.4 24.3 25.5 26.8z"/><path fill="#BD6A5C" d="M174.3 361.7l-4.8 5.4-15.2-11.5s-9.7 4.5-13.3 4.4c-3.7-.2-10.7-11.7-10.7-11.7l-5.9-3.6 12.2-18.7 7 3.5-4.7 17.3s3 4.7 4.4 5.5c1.4.9 10.3-3.3 10.3-3.3l20.7 12.7z"/><path fill="#1B2D3D" d="M152.4 345.5a.8.8 0 01-.7-.5c-1.2-4.5-1-7.6.8-9.1 1.4-1.3 3.4-1.1 4.6-.9-.5-4.8.3-8 2.2-9.5 1.5-1 3.1-.9 4.3-.6-.6-3-.4-5 .5-6.1.9-1 2-1 2-1a.7.7 0 010 1.5c-.1 0-.5 0-.8.4-.5.6-1 2.1 0 6.2a.7.7 0 01-1 .8s-2.4-1.1-4 0c-1.2.9-2.4 3.1-1.5 9.2a.8.8 0 01-1 .8s-2.8-1-4.3.3c-1.3 1.1-1.4 3.7-.4 7.6a.8.8 0 01-.7 1zM176.5 356.6l-.5-.1L160 343a.7.7 0 111-1.2l15.9 13.5a.7.7 0 01-.5 1.3z"/><g><path fill="#1B2D3D" d="M183.4 347.8c-.2 0-.4 0-.6-.2L169.2 334a.8.8 0 011-1l13.7 13.4a.8.8 0 01-.5 1.3z"/></g><g><path fill="#BB233D" d="M140.4 326l-7.3 12.8-9.1 15.8S98.2 342.1 79.2 330c-10.6-6.8-19-13.4-19.9-17.8-.4-2.4.5-6.2 2.2-10.9 1.2-3 2.7-6.5 4.5-10.3a419 419 0 0133.9-55.1 45.3 45.3 0 0123.5-17.2c17.6 14.3 16 44 16 44l-11.7 17.8-17.4 26.2 30.1 19.4z"/><path fill="#902429" d="M133 338.8l-9 15.8S98.2 342.1 79.2 330c-10.6-6.8-19-13.4-19.9-17.8-.4-2.4.5-6.2 2.2-10.9 12 12 50.2 28.8 71.6 37.6zM127.7 280.4l-17.4 26.2-14.5 7.3 5.3-6.4s-24.6 2.4-20.7-.2c2.8-1.9 30.3-15.2 47.3-27z"/><path fill="#1B2D3D" d="M139.4 263.4a.7.7 0 01-.7-.7 45.3 45.3 0 00-19.3-33.8.8.8 0 01.7-1.2c.2 0 17.6 10.4 20 34.9a.7.7 0 01-.7.8z"/><path fill="#1B2D3D" d="M136.1 259.1a.7.7 0 01-.7-.5c-5-13.2-15.1-19-15.2-19a.8.8 0 01.7-1.3c.5.2 10.7 6 16 19.8a.7.7 0 01-.8 1z"/><path fill="#D05C79" d="M82.7 315.5c0 4.2-.9 9-3.5 14.4-10.6-6.8-19-13.4-19.9-17.8-.4-2.4.5-6.2 2.2-10.9 1.2-3 2.7-6.5 4.5-10.3 5 2.9 16.3 11 16.7 24.6z"/><path fill="#BB233D" d="M82.7 315.5c0 4.2-.9 9-3.5 14.4-10.6-6.8-19-13.4-19.9-17.8-.4-2.4.5-6.2 2.2-10.9 4.4 4.3 12 9.3 21.2 14.3z"/><path fill="#1B2D3D" d="M70.9 297.8a.7.7 0 01-.6-1.3l3.7-3.6a.7.7 0 111 1l-3.6 3.7-.5.2zM73.1 299.5a.7.7 0 01-.5-1.3l3.2-2.6a.7.7 0 111 1.1l-3.2 2.6-.5.2zM85.4 325l-.2-.1-5-1.4a.7.7 0 11.4-1.5l5 1.4a.7.7 0 01-.2 1.5zM86.4 311a.7.7 0 01-.4-1.3c.2-.1.7-.4 22.2-4.3.5 0 .8.2 1 .7 0 .4-.3.7-.7.8a651.9 651.9 0 00-22 4.2zM93.2 315.7a.8.8 0 01-.3-1.4l12.8-5.4a.7.7 0 11.5 1.4l-12.7 5.4h-.3z"/><circle fill="#1B2D3D" cx="104.1" cy="334.5" r="2.9"/><circle fill="#1B2D3D" cx="114.8" cy="340" r="2.9"/><path fill="#1B2D3D" d="M120 347.7h-.4a.7.7 0 01-.3-1l12.7-22.5a.8.8 0 011.3.8l-12.7 22.3c-.1.3-.4.4-.7.4z"/></g><g><path fill="#DDB987" d="M58.7 327.3c9 5.5 17.6 11.4 26.8 16.5 3.8 2 7.6 4.4 11.5 6 4.4 2 9 3 13.6 4.3 1 .3 1.6-1.2.7-1.7-3.8-2-8.1-2.4-12.1-4-4.7-1.7-9.1-4.5-13.5-6.9-9-4.9-18.1-9.3-27-14.4 0 0-.1.1 0 .2z"/><path fill="#FFF" d="M119.6 358.8l5.3 2.5c1.3.5 2.6 1.2 4 1 .6-.1.5-.8.2-1-1.2-1-2.8-1.2-4.2-1.6l-5-1.8c-.5-.2-.8.7-.3.9zM98.2 231.3l6.7-7c2-2 4.8-3.8 6.4-6.2.4-.7-.4-1.4-1-1-2.6 1.2-4.8 3.8-6.8 5.8a97.6 97.6 0 00-6.7 7c-.8 1 .6 2.4 1.4 1.4z"/><path fill="#DDB987" d="M65.3 279.9c8.1-14 17.5-27.3 26.8-40.5.7-1-1-2-1.7-1-9.1 13.3-18.6 26.7-25.3 41.3-.1.2.1.3.2.2z"/><path fill="#FFF" d="M116 216.3l2.4-1c.4-.3.7-.8.5-1.2-.1-.2-.2-.4-.5-.6-.2-.1-.7-.2-1 0-.6.6-1.2 1.1-2 1.6-.6.3-.2 1.3.5 1.2z"/><path fill="#DDB987" d="M61 286.2a35.5 35.5 0 00-7.3 23.9c.1 1.2 2 1.2 2 0a42 42 0 016.6-23c.5-1-.8-1.6-1.4-.9zM54.3 316.5l1 2.1c.3.8.4 1.5 1.3 1.8.5.1 1-.2 1.1-.7.3-.8-.3-1.4-.7-2l-1.3-2c-.6-.8-1.7 0-1.4.8z"/></g></g><g><path fill="#FFF" d="M483.1 240.3a7.3 7.3 0 110-14.6 7.3 7.3 0 010 14.6zm0-13.2a6 6 0 100 11.9 6 6 0 000-12zM489.7 411.3a3.2 3.2 0 110-6.3 3.2 3.2 0 010 6.3zm0-5a1.8 1.8 0 100 3.7 1.8 1.8 0 000-3.7zM383.9 453.4a5.8 5.8 0 110-11.5 5.8 5.8 0 010 11.5zm0-10.2a4.4 4.4 0 100 9 4.4 4.4 0 000-9zM368 201.7a4 4 0 110-7.9 4 4 0 010 7.9zm0-6.6a2.6 2.6 0 100 5.3 2.6 2.6 0 000-5.3zM168 95.2a6 6 0 110-12 6 6 0 010 12zm0-10.8a4.7 4.7 0 100 9.5 4.7 4.7 0 000-9.5zM181.7 131.4a2.4 2.4 0 110-4.8 2.4 2.4 0 010 4.8zm0-3.5a1.1 1.1 0 100 2.2 1.1 1.1 0 000-2.2zM117.8 371.8a3 3 0 110-6.2 3 3 0 010 6.2zm0-4.8a1.8 1.8 0 100 3.5 1.8 1.8 0 000-3.5zM195.2 442.1a5.9 5.9 0 110-11.7 5.9 5.9 0 010 11.7zm0-10.4a4.5 4.5 0 100 9.1 4.5 4.5 0 000-9zM269.4 317.8a3.9 3.9 0 110-7.8 3.9 3.9 0 010 7.8zm0-6.4a2.5 2.5 0 100 5 2.5 2.5 0 000-5zM373.3 279.7a3.8 3.8 0 110-7.6 3.8 3.8 0 010 7.6zm0-6.3a2.5 2.5 0 100 5 2.5 2.5 0 000-5z"/></g></svg>