<svg xmlns="http://www.w3.org/2000/svg" viewBox="0 0 600 600"><g opacity=".4" fill="#D9BA90"><path d="M233.2 542.7c31.8-.1 28.8 8.7 1 8.7s-28-8.6-1-8.7z"/><path d="M58.7 535.6c43.5-3.4 57 3.1 39.2 2.4s-24 7.6-10.3 11.7c13.7 4 76.6 11.4 97-1.7 20.5-13.2 44.2-14.6 84-12.4 40 2.2 58.4-8.8 50-13.5-8.6-4.8-44-2.3-44-2.3s8.3-2.5-3.6-5.1c-12-2.7-43.1 0-80.5 0 0 0-96.8 1.3-144.4 1.3s-30.9 23 12.6 19.6zm182.1-10.2c11.3 1 5 3.4-12.6 2.2-17.6-1.2-5.5-3.7 12.6-2.2zm-112 8.9c.6-4 19.2.4 22.7-1.8 3.4-2.2 14-3.7 30.2-3 9.8.3 2.7 3.6-11.2 3.8-13.9.2-10.7 4.6-17.6 5.9-6.8 1.2-24.5-1-24-4.9z"/></g><path fill="#F1D5A7" d="M549 434c-10.8 42.4-62.6-7.2-63.4 34-.8 41-81 43.5-125 38.2s-25.2-41.1-59.3-43.6c-34.1-2.5-83 8.8-101.2-41.4s-10.7-144.8-9.5-195.8c1.3-51 32.5-23.4 33.4-61.3.4-18.8 5.1-33.5 17.6-44.8l.2-.2a55.5 55.5 0 0139.7-12.4c22.8 2.6 29.9 11.3 32.5 35.1 2.7 23.9 42.3 22 39.8-15.8-2.6-37.8 67-29.9 88.1-28 15.1 3 25.9 7.2 28 13.5 8.7 24.7.5 56.8 19 56 18.5-.9 54.7-2.1 59.6 37.4s11.1 186.7.4 229.1z"/><path fill="#F5DEBB" d="M279.3 158.5c-41.7 4.4-56.2 50.5-56.2 146s.5 141.6 73.4 141.6 48.9-170.8 44.5-215.3c-4.3-44.5-24.8-76.2-61.7-72.3zM419.3 161.7c-45 0-35 148-35 220.8s62 53.3 115.4 53.3 25.4-192.5 16.7-219.6c-8.7-27-53.5-15-63-17.8-9.5-2.7 3.6-36.7-34.1-36.7z"/><path fill="#6F7D87" d="M249.3 284c-17.7 2.8-23.2 20.7-6 20.3s48.3-5.9 23.2 14.1-67.9 50.7-63.1 71.8c4.7 21.2 19.2 20 45.9 21.2s44.3 18.5 29.8 33.8c-14.5 15.3-56.5 35.7-53.4 46.6 3.2 11 20 11 50.2-8.6 30.2-19.6 68.3-49.4 120-52.6s59.3-3.5 58.5-15.6c-.8-12.2-11.7-18.9-58.8-15.7S323 398 339 374.5c16-23.5 81.6-44.3 141.2-49s85.5-6.3 88.7-16c3.1-9.9-73.7-26-179.3 11.3 0 0 15.7-19.2-1.2-31.8s-44.4 6-23.5 11.8c18.3 5 4.8 26.3-25.3 37.8-28.8 11-66.1 37.6-42.3 54.9 0 0-107.4 4.2-25-55.8s15.7-60-23.1-53.8z"/><path fill="#D3E7F3" d="M246.2 488.2a2 2 0 01-1.3-3.5s4.8-4 12.2-9.7a2 2 0 012.4 3.1l-12 9.7a2 2 0 01-1.3.4zM274 466.3a2 2 0 01-1.1-3.6c8.5-6.5 16.5-12.4 23.8-17.5a2 2 0 112.3 3.2c-7.3 5.2-15.2 11-23.7 17.5a2 2 0 01-1.2.4zm40.3-28.7a2 2 0 01-1-3.7c3.3-2.2 6.5-4.1 9.3-5.8a84.1 84.1 0 0117.5-7.3 2 2 0 011.2 3.8 80.2 80.2 0 00-25.9 12.6 2 2 0 01-1 .4zm45.8-17.6a2 2 0 01-.3-4 337 337 0 0129.3-4 2 2 0 01.4 4 333.3 333.3 0 00-29.4 4zM409.2 414.4a2 2 0 010-4c9.2-.5 15.4-.6 15.5-.6a2 2 0 010 4s-6.1.1-15.4.6z"/><path fill="#D3E7F3" d="M342 424.3a71.9 71.9 0 01-14.4-8.6 2 2 0 112.6-3.2c6.5 5.1 12.6 8 12.7 8a2 2 0 01-.8 3.8zM316 401.1a2 2 0 01-1.7-1 28.8 28.8 0 01-2.8-17.6c.6-3.5 2.9-7.4 6.9-11.7a2 2 0 012.9 2.8c-3.4 3.6-5.4 7-5.8 9.6a24.2 24.2 0 002.4 15 2 2 0 01-1.8 3zm19.2-39.5a2 2 0 01-1.1-3.6c7.3-5 16-9.9 25.8-14.6a2 2 0 011.7 3.6 209 209 0 00-25.3 14.3 2 2 0 01-1.1.3zm43.7-22.5a2 2 0 01-.8-3.9c8.9-3.6 18.2-7 27.8-10a2 2 0 011.2 3.7 373 373 0 00-28.2 10.2zm46.7-15.7a2 2 0 01-.5-3.9c9.5-2.5 19.1-4.7 28.8-6.6a2 2 0 11.7 4 415.9 415.9 0 00-29 6.5zm48.3-9.8a2 2 0 01-.3-4c9.8-1.4 19.7-2.4 29.3-3.1a2 2 0 012.2 1.9 2 2 0 01-1.9 2 392.1 392.1 0 00-29.3 3.2zM538.4 309.8c-5.1-.1-10.3-.2-15.5-.1-1 0-2-.9-2-2s.9-2 2-2l15.6.1a2 2 0 010 4zM383.9 307.8a2 2 0 01-2-1.6c-1.4-7.4-7.6-11-7.6-11a2 2 0 011.9-3.5 21 21 0 019.7 13.7 2 2 0 01-2 2.4z"/><path fill="#D3E7F3" d="M358.7 348.1a2 2 0 01-1.2-3.5c4.3-3.5 8-7 11.3-10.3a2 2 0 012.8 2.8c-3.3 3.4-7.2 7-11.6 10.6a2 2 0 01-1.3.4z"/><g><path fill="#D3E7F3" d="M252.8 292.6a2 2 0 01-.1-4s7.3-.4 15.7 0a2 2 0 01-.1 4c-8.3-.4-15.3 0-15.4 0h-.1zM282.8 405.8h-.1a285 285 0 01-31.3-3.2 2 2 0 01.6-4c8.6 1.5 19 2.5 30.9 3.2a2 2 0 01-.1 4zm-51.5-8.7a2 2 0 01-.8-.2c-5.3-2.4-8.5-5.4-9.5-8.8-.4-1.2-.6-2.5-.6-3.9 0-4.4 1.9-9.7 5.7-16a2 2 0 113.5 2 29 29 0 00-5.2 14c0 1 .1 1.9.4 2.7.7 2.3 3.2 4.5 7.4 6.4a2 2 0 01-.9 3.8zm9.3-42.7a2 2 0 01-1.5-3.3c6-6.8 13.1-14.1 22-22.5a2 2 0 012.7 3 331.3 331.3 0 00-21.7 22.1 2 2 0 01-1.5.7zm37.5-36.6a2 2 0 01-1.3-3.5l8.3-7.3 3.2-2.8c3.2-2.9 3.7-4.6 3.7-5.3 0-1.5-2-2.6-3.7-3.3a2 2 0 111.6-3.7c4 1.7 6.1 4 6.1 7 0 2.5-1.7 5.3-5 8.3l-3.2 2.8-8.4 7.3a2 2 0 01-1.3.5zM309.7 406.4h-6a2 2 0 010-4h15.5c1.2 0 2 .8 2 1.9s-.8 2-1.9 2l-9.6.1z"/></g><g><path fill="#E09433" d="M446 334.1s11-5.6 21.2 6.5 15.4 15 25.4 11.7c0 0-.5 12.3-15 13-14.6.6-16.5-14-36.4-1.9l4.7-29.3z"/><path fill="#5B8A72" d="M444.9 326.8l4 .6-14.3 86.1a4.1 4.1 0 01-8-1.3l14.2-86.1 4 .7z"/><path fill="#4A775F" d="M440.8 326l4 .8-15 90.1a4 4 0 01-3.3-4.7l14.3-86.1z"/><g><path fill="#BA233E" d="M453.4 326.8a8.6 8.6 0 11-17 0v-.6a8.6 8.6 0 0117 .6z"/><path fill="#8F2429" d="M453.4 326.8a8.6 8.6 0 11-17 0v-.6c1 1.8 3.6 4.6 9 4 5.4-.7 6.6-5 6.4-8.4 1 1.4 1.6 3.1 1.6 5z"/><path fill="#CE5D79" d="M441.6 320.2c-4.4 2-3.2 6.3 1.2 5 4.4-1.5 3.5-7.1-1.2-5z"/></g></g><g><path fill="#E09433" d="M551.4 252.5s7.5-3.8 14.3 4.4c6.8 8 10.3 10 17 7.7 0 0-.4 8.2-10.1 8.7s-11-9.3-24.3-1.2l3.1-19.6z"/><path fill="#5B8A72" d="M550.7 247.6l2.7.4-9.5 57.6a2.7 2.7 0 01-5.4-.9l9.5-57.6 2.7.5z"/><path fill="#4A775F" d="M548 247.1l2.7.5-10 60.2a2.7 2.7 0 01-2.2-3.1l9.5-57.6z"/><g><path fill="#BA233E" d="M556.5 247.6a5.7 5.7 0 11-11.5 0v-.4a5.7 5.7 0 0111.5.4z"/><path fill="#8F2429" d="M556.5 247.6a5.7 5.7 0 11-11.5 0v-.4c.8 1.2 2.5 3 6 2.7 3.7-.5 4.5-3.4 4.4-5.7.7 1 1 2.1 1 3.4z"/><path fill="#CE5D79" d="M548.5 243.2c-2.9 1.3-2 4.2.9 3.3 3-1 2.3-4.7-.9-3.3z"/></g></g><g><path fill="#E09433" d="M360.5 220.9s7.1-8.3 19.4-1.8c12.3 6.4 17.5 6.9 24.5.9 0 0 3.8 10.1-7.8 15.5-11.7 5.5-18-5.8-30.2 10.8l-6-25.4z"/><path fill="#5B8A72" d="M357.1 215.3l3.5-.8 17.3 74.7a3.6 3.6 0 01-7 1.6L353.6 216l3.5-.8z"/><path fill="#4A775F" d="M353.6 216.1l3.5-.8 18.1 78.2c-2 .4-3.8-.8-4.3-2.7L353.6 216z"/><g><path fill="#BA233E" d="M364 212.4a7.5 7.5 0 11-13.8 5.8 7.5 7.5 0 0113.9-5.8z"/><path fill="#8F2429" d="M364 212.4a7.5 7.5 0 11-14 5.3c1.5 1 4.6 2.5 8.7.2 4.2-2.3 3.7-6.3 2.4-9 1.3.8 2.4 2 3 3.5z"/><path fill="#CE5D79" d="M352.3 211c-2.9 3.1-.5 6.3 2.6 3.7 3.2-2.7.5-7-2.6-3.6z"/></g></g><g><path fill="#E09433" d="M240.5 238.6s5.2-6 14.2-1.3 12.8 5 17.9.7c0 0 2.7 7.4-5.8 11.3-8.4 4-13-4.2-22 7.9l-4.3-18.6z"/><path fill="#5B8A72" d="M238 234.5l2.6-.6 12.6 54.6a2.6 2.6 0 01-5 1.2L235.4 235l2.6-.6z"/><path fill="#4A775F" d="M235.5 235.1l2.6-.6 13.2 57.1c-1.5.4-2.9-.5-3.2-2l-12.6-54.5z"/><g><path fill="#BA233E" d="M243.1 232.4a5.5 5.5 0 11-10.1 4.2l-.1-.3a5.5 5.5 0 0110.2-3.9z"/><path fill="#8F2429" d="M243.1 232.4a5.5 5.5 0 11-10.1 4.2l-.1-.3c1 .8 3.3 1.8 6.3.1s2.7-4.5 1.8-6.5c.9.6 1.7 1.4 2.1 2.5z"/><path fill="#CE5D79" d="M234.5 231.5c-2.1 2.2-.3 4.5 2 2.6s.3-5-2-2.6z"/></g></g><g><path fill="#DDB987" d="M315.6 281.1c3-2.5 5.3-6 7.6-9.2 2.3-3 5-6.5 6.1-10.2.3-.8-.8-1.3-1.4-.8-2.7 2.4-4.8 5.9-6.8 9-2.3 3.3-5 6.6-6.7 10.3-.4.8.5 1.5 1.2 1z"/><path fill="#FFF" d="M332 259l.9-.7c0-.2.2-.3.3-.5v-.5c0-.4-.3-1-.8-.8-.4.1-.7.1-1 .5-.3.3-.4.6-.6 1-.2.7.7 1.3 1.3 1z"/><path fill="#DDB987" d="M352.3 193.5c-.2-1.7-1-3.4-1.8-5-.3-.6-1.3-.8-2-.4-.6.4-.7 1.2-.4 1.9.6 1.4 1.4 3 2.5 4.2.6.6 1.8.2 1.7-.7z"/><path fill="#FFF" d="M346.5 182.8c-1-6-4.1-11.9-6.6-17.4-2.7-6-5.7-12-9-17.9-.8-1.5-3.2-.2-2.3 1.4 3 5.6 5.9 11.3 8.6 17 2.6 5.8 4.4 12.2 7.8 17.5.5.8 1.6.3 1.5-.6z"/><path fill="#DDB987" d="M322 222l-3.3-.6c-1.2 0-1.4 1.8-.3 2 1 .3 2.2.3 3.3.4 1 .1 1.2-1.5.2-1.7z"/><path fill="#FFF" d="M313 219.2a29 29 0 00-12.7-3c-1.2 0-1.7 2-.3 2.2 4.2.6 8.2 1 12.3 2.6 1 .5 1.8-1.3.8-1.8z"/><path fill="#DDB987" d="M321.7 240.3c-1.4.7-2.8 1.3-4 2.1-1.2.8-.2 2.3 1 1.8l3.9-2.4c1-.6.1-2-1-1.5z"/><path fill="#FFF" d="M308.7 245a44.4 44.4 0 00-17.2 8.3c-1 .8.3 2.4 1.4 1.8a69 69 0 0116.4-8c1.2-.4.7-2.3-.6-2zM335.7 204.2c-6.2-4.2-11-11.2-17.6-14.5-1.2-.6-2.5.9-1.4 1.8 2.9 2.7 6 5.1 9 7.8a47 47 0 009 6.5c1 .6 2-.9 1-1.6z"/><path fill="#DDB987" d="M312.1 185c-.7-.8-1.4-1.8-2.4-2.4-.8-.5-1.8.5-1.3 1.3.6 1 1.6 1.6 2.4 2.4.9.7 2.1-.5 1.3-1.3z"/><path fill="#FFF" d="M376.1 180.7c.5-1.8.6-3.7 1-5.5.4-1.8-2.3-2.5-2.6-.8-.4 2-.8 4.3-.1 6.3.2.8 1.5 1 1.7 0z"/><path fill="#DDB987" d="M378.7 167.3c2.5-8.2 4.9-16.5 7-24.8.5-1.7-2.2-2.4-2.6-.7-2.3 8.3-4.4 16.6-6.4 25-.3 1.3 1.6 1.8 2 .5zM396.7 185.7c1 0 1.8-.6 2.3-1.5.5-1 .5-2.2-.4-2.9-.5-.3-1.5 0-1.5.6v1.4c-.2.3-.3.5-.7.6-1 .3-.8 2 .3 1.8z"/><path fill="#FFF" d="M405.7 174.9l5-8.2c1.3-2.5 3-5.1 3.6-7.9.2-.9-1-1.8-1.7-1-1.8 2.2-2.8 5-4.1 7.6l-4.3 8.6c-.5 1 1 1.8 1.5.9zM422.3 199.8c5.3-3.5 10.7-6.8 16.2-10 1.4-.7.5-2.9-1-2.5-.6.1-.9.2-1.4.5-.2 0-.4.5-.3.8.3 1 .6 1.2 1.6 1.4l-.3-2.6c-5.7 3.1-11 6.7-16.1 10.8-1 .7.3 2.3 1.3 1.6z"/><path fill="#DDB987" d="M429.7 222l6.1-.4c1.8 0 3.4.3 5-.5.7-.3.5-1.1 0-1.5-2.9-2-8.2-.5-11.4.5-1 .3-.8 2.1.3 2z"/><path fill="#FFF" d="M449.8 220.5c7.5-.2 15-.6 22.5-1l-1-2.4-.9 1.1c-.3.5-.1 1.3.6 1.3h1.3c1.7 0 1.7-2.9 0-2.8l-22.5 1.6c-1.3.2-1.4 2.2 0 2.2z"/><path fill="#DDB987" d="M426.9 242l2 .4c.6.2 1.1.6 1.7.9.7.3 1.7-.3 1.4-1-.8-2-3.5-3.1-5.3-1.9-.6.4-.6 1.4.2 1.6z"/><path fill="#FFF" d="M441.7 246.3c6.4 4.6 13.8 7.5 21 10.6l-.6-2.3-1.3 1.7c-.5.6.2 1.4.9 1.2l1.8-.6c1.3-.5 1.2-2.2 0-2.7-7.2-2.8-14.4-5.2-21-9.4-.9-.6-1.7.9-.8 1.5z"/><path fill="#DDB987" d="M442 278.5c-5.7-4.8-11.5-9.4-17.5-13.8-1.4-1-2.8 1.3-1.4 2.3 5.8 4.3 11.6 8.6 17.2 13.2 1.2 1 3-.7 1.7-1.7zM419.5 260l-2.7-3.3c-1-1-2.5.6-1.5 1.6l3 2.8c.8.8 1.8-.3 1.2-1.1z"/></g><g><path fill="#FFF" d="M218.6 248a8.7 8.7 0 110-17.4 8.7 8.7 0 010 17.4zm0-15.4a6.7 6.7 0 100 13.5 6.7 6.7 0 000-13.5z"/><path fill="#FBF3E5" d="M320.6 334a5.6 5.6 0 110-11.2 5.6 5.6 0 010 11.3zm0-9.2a3.6 3.6 0 100 7.3 3.6 3.6 0 000-7.3z"/><path fill="#FFF" d="M365.8 466a6.4 6.4 0 110-12.7 6.4 6.4 0 010 12.8zm0-10.7a4.4 4.4 0 100 8.8 4.4 4.4 0 000-8.8zM503.4 398.4a7.6 7.6 0 110-15.2 7.6 7.6 0 010 15.2zm0-13.1a5.6 5.6 0 100 11 5.6 5.6 0 000-11zM441.2 153a11 11 0 110-22.1 11 11 0 010 22zm0-20a9 9 0 100 18 9 9 0 000-18z"/></g><g><path fill="#E09433" d="M237 516.8a4 4 0 01-3.4-4.7l53.7-322.5 8 1.3-53.6 322.5a4 4 0 01-4.7 3.4z"/><path fill="#DDB987" d="M306.9 198.2l-1.2 2.4c-.2.7-.7 1.6-.4 2.3.1.4.5.5.8.4.7-.4 1-1.3 1.2-2l.8-2.5c.2-.8-.9-1.3-1.2-.6zM302.1 204.8c-6.2 0-5 8-6.2 12-2 8-6 16.7-5.4 25 0 .3.5.5.7.1 2.7-5 3.3-11.2 4.8-16.7l2.2-7.7c.7-2.9.8-10.3 4.1-11.2.8-.2.7-1.5-.2-1.5zM288.9 249.4l-4.5 21c-.2 1.2 1.4 1.7 1.7.6 1.9-7 3-14.4 3.1-21.6 0-.2-.3-.3-.3 0z"/><path fill="#CD7930" d="M237 516.8a4 4 0 01-3.4-4.7l53.7-322.5 4 .6L237 516.8z"/><g fill="#5B8A72"><path d="M248.3 423.6l.9-5.1 8 1.3-.8 5.1zM260.4 351.3l.8-5.1 8.1 1.3-.8 5.1zM272.4 279l.9-5.2 8 1.3-.8 5.2zM284.4 206.6l.8-5.1 8.1 1.3-.8 5.2z"/></g></g><g><path fill="#8B4D41" d="M50.6 224s.7 22 1.2 24.5c.4 2.6 13.7 8.6 16.1 9.2a62 62 0 0019.5-8.5c1-1.4-1.2-9-1.3-9.5 0-.5-5.6-2.1-5.6-2.1l1.3-7.2c0-.6-13.2-8.5-13.2-8.5l-18 2.1z"/><path fill="#1A2D3C" d="M72.4 242c-.8 0-1.5-.1-2.1-.4-.8-.4-1.4-1.1-1.5-1.9-.1-1.2.8-2.2 1.5-3-4.2-.6-8-5.1-8.3-5.3a.5.5 0 01.8-.7s4.6 5.5 9 5c.1 0 .4.2.4.4.1.3 0 .5-.2.6-.6.4-2.3 1.7-2.2 3 0 .3.4.7 1 1 .6.3 3 1 7.5-1.6.2-.2.5-.1.7.1.1.3 0 .6-.2.7a13.1 13.1 0 01-6.4 2.1zM71.8 254.5h-.1a.5.5 0 01-.4-.6c.1-1.4.2-5.5-1.2-6.8a33.5 33.5 0 00-8.7-3.7.5.5 0 01.3-1c.3.1 7 2.1 9 4 2.2 2 1.6 7.4 1.6 7.6 0 .3-.3.5-.5.5z"/><path fill="#1A2D3C" d="M79.3 250.5a.5.5 0 01-.5-.6c0-.2 1-5.6-4.4-8a.5.5 0 11.4-1c6 2.9 5 9.1 5 9.2 0 .2-.3.4-.5.4z"/><g><path fill="#BA233E" d="M85.5 123c-1.1 9.7-1 16.3-1 16.3L62.6 172l15.1 49.5s-3.4 8.2-14.4 11c-11 2.8-17 0-17 0-2-3.3-12.5-32.1-15.4-44.8a222 222 0 01-2.5-12.5 42 42 0 01-.9-11.7c.4-2 2.8-6.6 6.3-12.4C44 134.3 68.1 98.9 74.4 98.9c11.4 0 12.5 12.6 11.1 24.2z"/><path fill="#DDB987" d="M19 184.1c.7 2 1.1 4.2 1.6 6.3.4 1.8.5 3.8 1.3 5.6.3.8 1.4.3 1.5-.4.2-3.9-1.9-8.3-3.3-11.8-.2-.6-1.2-.4-1 .3zM23.4 161.4c6.2-12 12-23.7 20.1-34.6 4-5.2 7.4-10.6 12-15.4 4-4.2 9.7-8.5 12.3-13.7a.5.5 0 00-.6-.6c-5.3 2.7-9.7 9.2-13.8 13.5-4.2 4.5-7.4 9.6-11.1 14.5-8.1 11-15.9 22.7-19.7 36-.1.5.6.8.8.3zM72.4 95.6c1.5 0 2.8-1.2 4-1.8 1.3-.6 3-1 3.8-2.2.3-.4 0-1-.4-1.1-1.4-.3-3 .8-4.2 1.4-1.3.7-3 1.4-3.7 2.7-.2.5 0 1 .5 1z"/><path fill="#F1D5A7" d="M46.5 253.9c4.7 3.9 11.1 8.5 17.4 9 .8.2 1-1 .4-1.4-2.7-1.5-6-2.3-8.8-3.7-2.9-1.4-5.6-3-8.3-4.9-.5-.4-1.2.6-.7 1z"/><path fill="#DDB987" d="M27 188c2.4 10.5 5 21 7.7 31.5 2.6 9.7 4.3 20.3 8.3 29.5.5 1 2.4.6 2.2-.6-1.3-10-5.2-20-8-29.6-3-10.4-6-20.7-9.3-31-.2-.6-1-.4-1 .2z"/><path fill="#8F2429" d="M84.5 139.3L62.6 172l15.1 49.5s-3.4 8.2-14.4 11c-11 2.8-17 0-17 0-2-3.3-12.5-32.1-15.4-44.8 11.6 6.6 15.6-4.6 18-15.4 2.8-12 25.6-44.5 35.3-50l1.3.8c-1.1 9.6-1 16.2-1 16.2z"/><g fill="#1A2D3C"><circle cx="45.9" cy="211.6" r="2.9"/><circle cx="49.2" cy="222.6" r="2.9"/></g><path fill="#CE5D79" d="M27.5 163.5c-.4 2 0 6.3.9 11.6 1.9.3 3.9 0 5.6-1 2-1.2 3.6-3 4.4-5.9.8-2.7 1.1-5.5 1-8 0-1.2-.3-2.4-.6-3.4-.8-3-2.4-5.1-5-5.7a56.5 56.5 0 00-6.3 12.4z"/><path fill="#1A2D3C" d="M37 160.8a.5.5 0 010-1l3.9-.2c.3 0 .5.2.5.5s-.2.5-.5.5l-3.8.2z"/><g><path fill="#1A2D3C" d="M36.7 158a.5.5 0 01-.2-1l3.6-1.2a.5.5 0 01.3 1l-3.6 1.1h-.1z"/></g><g><path fill="#1A2D3C" d="M35 177.2a.5.5 0 01-.4-.3l-1.8-4.5a.5.5 0 011-.4l1.7 4.5a.5.5 0 01-.4.7z"/></g><g><path fill="#1A2D3C" d="M53 172.5L40.3 169a.5.5 0 01.3-1l12.5 3.5a.5.5 0 01-.1 1z"/></g><g><path fill="#1A2D3C" d="M40.2 176a.5.5 0 010-1 154 154 0 0112.3-1.2.5.5 0 01-.3 1 189.3 189.3 0 00-12 1.1z"/></g></g></g><g><path fill="#416050" d="M129.6 336a970.1 970.1 0 01-4 21.5c-.5 2.5-1.7 7-3.5 12.7-7.5 25.2-24 74-24 74l-11.4.1-23 .3L80.4 351s-7.8-92.3-8.2-104c-.2-4.5.4-10 1.2-15 1.3-8.3 3.1-15.5 3.1-15.5 10.5-31.4 61-17 64 14.8 2.3 23.6-5.6 74.6-10.8 104.6z"/><path fill="#DDB987" d="M135.4 319.5c-2.1 11.6-5.2 23-7.3 34.5-.1 1 1.2 1.7 1.7.7a96.7 96.7 0 007-35c0-.8-1.3-1-1.4-.2z"/><path fill="#F1D5A7" d="M127.6 369.5c-4.1 7.2-6.3 16-8.7 23.7-2.5 8-5.7 16.2-6.4 24.5-.1 1 1.5 1.5 2 .5 3.2-7.3 4.7-15.6 7-23.3 2.4-8.1 6-16.5 7.3-24.8.1-.7-.8-1.3-1.2-.6z"/><path fill="#DDB987" d="M110 427c-.4 2.2-.7 4.3-1.2 6.4-.4 1.8-1.1 3.7-1.1 5.6 0 .6.9.9 1.2.3 1-1.7 1.3-4 1.6-6 .3-2 .6-4 .7-6 0-.8-1.2-1-1.3-.2z"/><path fill="#F1D5A7" d="M107.6 448.6c-1.4 14.2-3.6 31.8 7.8 42.7.8.8 2.5 0 2-1.2-2.6-6.9-7.2-11.7-7.7-19.5-.5-7.3-.3-14.7-1-22a.6.6 0 00-1.1 0z"/><path fill="#DDB987" d="M117.6 500.3c1.1 2.8 2.7 5.2 4.9 7.3 1.8 1.8 4.1 4 6.8 4.2 1 .1 1.3-1.2.8-1.9-1.6-1.8-4.1-2.8-5.9-4.5a26.1 26.1 0 01-4.8-6.2c-.7-1.2-2.4-.1-1.8 1.1zM64.7 267.6c.3 4 .2 8.3 1.2 12.2.2.8 1.4.6 1.5-.2.2-4-.7-8.1-1.2-12-.1-1-1.5-1-1.5 0zM68 292.4c0 9.5 2.7 19.2 3.5 28.7.8 9.7.1 19.5.8 29.1.1 1.3 2.2 1.8 2.4.4 1.8-9.8.8-20.5-.2-30.4-.9-9.1-1.6-19.7-5.5-28.1-.2-.6-1.1-.3-1 .3z"/><path fill="#F1D5A7" d="M70 360.2c-.7 6-2.4 11.5-3.4 17.3-.1.9 1.2 1.6 1.6.7 2.3-5.5 2.8-12 3.2-18 0-.9-1.3-.9-1.4 0z"/><path fill="#DDB987" d="M66.6 387.2c-3 8.5-4.9 17.4-7.1 26-2 7.8-5.6 16.5-5.8 24.5 0 .7.8 1 1.1.4 3.7-7.2 4.8-16.5 6.8-24.3 2.2-8.7 4.8-17.4 6.3-26.2.1-.9-1-1.2-1.3-.4zM51.4 449.2c-.2 4.2-.6 8.5.6 12.6.2.7 1.2.5 1.2-.2.5-4 0-8.3 0-12.4 0-1.1-1.7-1.1-1.8 0zM53.4 470.6c1 6.9 1.6 13.9 1.7 20.8.2 5.6-.8 11.6.9 17 .4 1.3 2.9 1.2 2.7-.4-.7-6.5-.3-12.9-.7-19.3-.5-6.3-1.7-12.4-3.1-18.5-.2-1-1.6-.5-1.5.4z"/><path fill="#304B3B" d="M129.6 336a970.1 970.1 0 01-4 21.5c-.5 2.5-1.7 7-3.5 12.7-7.5 25.2-24 74-24 74l-11.4.1c-2.4-3.2-3.4-7.7-2.5-13.4 6.7-44.7 27-81 24.5-92.4-2.6-11.4-11.4-42.6-5.1-49.4 6.3-6.7 14.3-30.3 9.3-32a131.5 131.5 0 01-39.6-25c1.3-8.4 3.1-15.6 3.1-15.6 10.5-31.4 61-17 64 14.8 2.3 23.6-5.6 74.6-10.8 104.6z"/><g><path fill="#1A2D3C" d="M90.4 433.6h-.1a.5.5 0 01-.4-.6c.2-.7 15.1-67.7 16.2-78.1 1.2-10.5 10.7-92.5 10.7-93.4 0-.2.3-.4.6-.4s.5.3.4.5c0 .9-9.5 83-10.7 93.4-1 10.5-16 77.6-16.2 78.2 0 .3-.3.4-.5.4z"/></g><g><path fill="#1A2D3C" d="M115.1 354.6l-27.8-2.4a.5.5 0 110-1l27.8 2.4a.5.5 0 010 1z"/></g><g><path fill="#1A2D3C" d="M112.7 358l-24.3-1.6a.5.5 0 01-.5-.5c0-.3.3-.5.5-.5l24.3 1.6a.5.5 0 010 1z"/></g><path fill="#5B8A72" d="M129.6 336a970.1 970.1 0 01-4 21.5c-.5 2.5-1.7 7-3.5 12.7-3.3-2.5-6.8-7.4-4.6-17 2.3-10.2 8-15 12.1-17.3z"/><g><path fill="#1A2D3C" d="M124.8 343c-.2 0-.3 0-.4-.2l-2-2.7a.5.5 0 01.8-.6l2 2.7a.5.5 0 01-.4.8z"/></g><g><path fill="#1A2D3C" d="M124.4 345.3h-.3l-3-2.8a.5.5 0 11.6-.7l3 2.7a.5.5 0 01-.3.8z"/></g><g><path fill="#1A2D3C" d="M115.8 368.4c-.2 0-.3 0-.4-.2a.5.5 0 010-.7l4-3.6a.5.5 0 01.7.7l-4 3.6-.3.2z"/></g><g><path fill="#8B4D41" d="M71.4 453.8c.7-4.4 18.8 2.3 18.8 2.3s10.6 39 12.2 41.2 7.6 9.2 11.1 11.7 2.8 5-9.7 3.2c-12.4-1.7-32.3-31.9-32.3-31.9s-.8-22.1-.1-26.5z"/><path fill="#E09433" d="M67 516h10.4c.2-5.9.9-16.4 3.5-16.4 3 0 5.3 12 6.1 16.4h36.1L105 497.5s-1.7 1.6-3.8 1.7c-1.4.2-9.4-13.1-16-22.5a37 37 0 00-7.5-8.8c-5.4-3-10.1-1-10.8 6-.6 6.8.3 42.1.3 42.1z"/><path fill="#C27D33" d="M93.3 516h29.8L105 497.5s-1.7 1.6-3.8 1.7c-1.4.2-9.4-13.1-16-22.5 3.7 6.7 8.4 14.7 11.6 21.3 3.6 7.5 1.1 13.6-3.4 18z"/><g><path fill="#638D77" d="M58 436.7l1.7 23h4.7l35.8 1 1.8-20.5.4-4z"/><path fill="#416050" d="M64.4 459.8l35.8.9 1.8-20.5-2.5-1.4-19.3 1.9s-6.6 13-15.8 19z"/><path fill="#1A2D3C" d="M87 459a.5.5 0 01-.5-.5l1.8-20.5c0-.2.3-.4.6-.4.2 0 .4.3.4.5l-1.8 20.5c0 .2-.3.4-.5.4zM82 455.6a.5.5 0 01-.5-.5l1.5-15.4c0-.3.2-.5.5-.5s.5.3.4.6l-1.4 15.4c0 .2-.3.4-.5.4z"/></g></g></g><g><path fill="#5B8A72" d="M204 370.9c-4.1 28-10.1 68-9.2 70.2.7 1.6-7.2 1.7-15.4 1.4-8.4-.2-17-1-17-1l-2-86.3S123 279.4 115 253.6a58 58 0 01-1.2-4.4c-5.8-25.2 2.8-56 29-61 27.7-5 39 9 44.6 26.4.8 2.5 14 84.3 18.6 116.6a178 178 0 011.6 12.6c0 2.2-1.6 13.2-3.6 27z"/><path fill="#FFF" d="M194.1 233.1c3.1 30 9.9 59.4 13 89.3.2 1.7 2.8 1.8 2.7 0a367 367 0 00-5.8-44.1c-2.7-15.1-5.5-30.4-9.3-45.3 0-.3-.6-.3-.6.1z"/><path fill="#DDB987" d="M208.9 331.8l1.4 5.3c.4 1.5.5 3.4 1.5 4.7.4.6 1.6.7 1.7-.2.3-1.8-.6-3.4-1.2-5-.7-1.8-1.6-3.5-2.5-5.2-.3-.4-1.1-.1-1 .4zM210.5 349.2c-3 12.3-4.4 25.3-6.5 37.9l-2.9 18.5c-1 6-2.3 12-2.5 18 0 1.5 2.1 1.7 2.5.3 1.8-6.2 2.2-13 3.2-19.4l2.8-18.6c1.7-12.1 4.2-24.3 5-36.5 0-1-1.4-1.1-1.6-.2z"/><path fill="#F1D5A7" d="M202.1 427c-.3 2 .6 4 1.1 6 .5 1.9.8 4 2.1 5.6.4.4 1.3.2 1.4-.4.4-2-.6-4-1.1-5.9-.6-1.9-1-4-2.2-5.5-.4-.4-1.2-.3-1.3.3z"/><path fill="#DDB987" d="M205.7 444.2c-.8 3.3-1.2 6.8-1.7 10.2-.5 3-1.3 6.2-1 9.2.1.7 1.3 1.4 1.7.4 1.2-2.6 1.3-5.6 1.7-8.5.5-3.7 1-7.4 1-11.1 0-1-1.4-1.2-1.7-.2z"/><path fill="#F1D5A7" d="M195.5 467.8c-.2 2.1 0 4.3.9 6.3.5 1.5 1.3 3.5 3 3.7.3 0 .7-.2.7-.5.2-1.4-1-2.5-1.5-3.8a14 14 0 01-1.3-5.7c0-1.2-1.7-1.2-1.8 0z"/><path fill="#DDB987" d="M202.2 485c1.9 6 6.3 11.5 10 16.6 2.5 3.6 6 8.4 10.6 9.2 1 .2 2-1 1.1-2-3.7-3.5-7.3-6.2-10.4-10.6-3.3-4.6-6.6-9.1-9.6-14-.6-.8-2-.3-1.7.7z"/><path fill="#F1D5A7" d="M140.8 332.2l5.2 9.6c1.4 2.5 2.5 5.5 5 7.2.6.5 1.3-.3 1.2-1-.4-3-2.9-5.5-4.5-8l-6-8.3c-.3-.6-1.2-.1-.9.5z"/><path fill="#DDB987" d="M152.9 356.7c-.5 8.4-.2 16.7-.8 25-.5 8.4-2.3 16.6-2.8 25 0 1.4 2 1.5 2.4.3 2.7-7.9 3.3-17 3.7-25.2.3-8.3.2-17-1.7-25.2-.1-.5-.8-.3-.8.1zM150.1 416.2c0 6-1.3 11.8-1.6 17.8-.1 1 1.3 1.1 1.7.2 2-5.5 1.7-12.3 1-18 0-.7-1.1-.8-1.1 0z"/><path fill="#F1D5A7" d="M149.2 446c-1 6.3-.6 13-.6 19.4 0 7.1-.3 14.2.2 21.3 0 1.6 2.3 1.5 2.4 0 .5-7 .4-14.2.3-21.3 0-6.4.2-13.1-.9-19.5 0-.7-1.3-.7-1.4 0z"/><path fill="#DDB987" d="M149 494.5c0 3.4-.4 7.3.4 10.6.2.9 1.6 1 1.8 0 .6-3.3-.1-7.2-.3-10.6 0-1.2-2-1.2-2 0z"/><path fill="#4A775F" d="M204 370.9c-4.1 28-10.1 68-9.2 70.2.7 1.6-7.2 1.7-15.4 1.4 1-10 2.4-21.5 4-33 4.2-31.3 11.8-62.5 9.7-75.6-2.2-13.1-29.6-55.3-22-62.5 7.6-7.1 8-29.5-5.9-25.3-11 3.4-36.7 6.7-51.5 3-5.8-25 2.8-56 29-60.8 27.7-5.2 39 9 44.6 26.3.8 2.5 14 84.3 18.6 116.6a178 178 0 011.6 12.6c0 2.2-1.6 13.2-3.6 27z"/><path fill="#82BE9B" d="M207.5 343.8c0 2.2-1.6 13.2-3.6 27-12.4-10-9.2-34.4 2-39.6a178 178 0 011.6 12.6z"/><g><path fill="#1A2D3C" d="M182.8 433.4a.5.5 0 01-.5-.6l10-85.4-26-128.4a.5.5 0 111-.2l26 128.5v.2l-10 85.4c0 .3-.2.5-.5.5z"/><path fill="#1A2D3C" d="M165.5 357.2a.5.5 0 01-.2-1c1-.3 23.4-8 28.3-8.8.3 0 .6.1.6.4 0 .2-.1.5-.4.6-4.9.8-28 8.7-28.2 8.8h-.1zM169.3 359.5a.5.5 0 01-.1-1l24-7a.5.5 0 11.4 1l-24.2 7h-.1zM203.9 336.5c-.2 0-.3 0-.4-.2l-3-3.7a.5.5 0 11.9-.6l2.9 3.7a.5.5 0 01-.4.8zM202 338.1h-.2l-3.2-2.2a.5.5 0 11.5-.8l3.2 2.1a.5.5 0 01-.3 1zM197.5 367a.5.5 0 01-.3-.8l3.2-3.2a.5.5 0 11.7.7l-3.2 3.2-.4.1z"/></g><g><path fill="#8B4D41" d="M168 453.8c.8-4.4 18.9 2.3 18.9 2.3s9.8 39 11.3 41.2a67 67 0 0011 11.7c3.4 2.5 2.6 5-9.8 3.2-12.4-1.7-31.7-31.9-31.7-31.9s-.4-22.1.4-26.5z"/><path fill="#E09433" d="M162.5 516H173c.3-5.9 1.1-16.4 3.8-16.4 3 0 5 12 5.8 16.4h36.1l-17.9-18.5s-1.7 1.6-3.8 1.7c-1.3.2-8-11-14-20.2-3.6-5.3-7-10-9-11-5.3-3.1-10-1-10.8 5.8-.8 7-.6 42.2-.6 42.2z"/><path fill="#C27D33" d="M186 516h32.6l-17.9-18.5s-1.7 1.6-3.8 1.7c-1.3.2-8-11-14-20.2 3.6 9.4 6.7 15.8 7.7 24.7.5 5.2-1.8 9.4-4.6 12.3z"/><g><path fill="#82BE9B" d="M157 436.7l1.2 23 10.7.2 29.8.8 2.3-21 .3-3.6z"/><path fill="#5B8A72" d="M169 460l29.7.7 2.3-21c-5.4.4-19 2.8-19 2.8s-5.3 11.7-13 17.4z"/><path fill="#1A2D3C" d="M185.5 459a.5.5 0 01-.5-.5l2.3-20.5c0-.2.2-.4.5-.4s.5.3.5.5l-2.3 20.5c0 .3-.2.4-.5.4zM180.6 455.6a.5.5 0 01-.5-.5l1.8-15.4c0-.3.2-.5.5-.5s.5.3.5.6l-1.8 15.4c0 .2-.3.4-.5.4z"/></g></g></g><g><path fill="#8B4D41" d="M122.6 68.1l1.6 2c4.5 4.3 9.2 4.7 12.5 2.7 1.6-1 3-2.7 3.6-4.8 1.5-4.2 1.7-11.4-1.6-16.2a10.9 10.9 0 00-6.8-4.5c-12.4-2.8-14.3 13-9.3 20.8z"/><path fill="#1A2D3C" d="M124.2 69v1c4.5 4.4 9.2 4.8 12.5 2.8-3-1-4.5-3.1-5.5-6.4-1.1-4.2-6.6-5.9-7 2.6z"/><path fill="#1A2D3C" d="M144.3 53.6c-1.6-5.3-9-5.5-10-5.5l-.7-.3c-1.3-.6-3-1-4.7-.8a9 9 0 00-1.9.2c-7.3 1.4-8.9 8.5-7.5 14.4.4 2.5 2 4.7 3.1 6.5 4 .8 10.4.3 10.4.3 2-3.4 3.4-9.2 3.4-9.2V59c.3 0 1.2 1.7 1.4 1.8 2 .3 2.4-3.8 2.4-3.8.3.1 5.8 2 4-3.5z"/><path fill="#8B4D41" d="M135 66.2c.9 1 3.4 1.1 3-4s-2.7-4.2-2.7-4.2-1.4 0-1.6 3.7c-.1 3.7 1.2 4.5 1.2 4.5z"/><path fill="#BA233E" d="M125.7 48c3.2 1.1 3 8-2.1 7.6s-3.8-9.8 2.1-7.6z"/><path fill="#1A2D3C" d="M115.8 44.7c11.5 1.8 9.2 10.2 4.4 10.6-9.1.7-.5 12.8-7.7 22.8s-28.7 9.6-33-5.4c0 0 16.4 5.2 19.4-10.5 2.5-13.5 9.3-18.6 17-17.5z"/></g><g><path fill="#8B4D41" d="M133.4 82l1-13.5-10.5-.1-2 13.6z"/><path fill="#BA233E" d="M110.4 89l16 .9 16.1.7s-1.4-6.9-2.4-8.6c-.6-1.2-5-2.2-10.4-2.8a75 75 0 00-9.3-.4c-8.3.1-8.9 3.3-10 10.3z"/><path fill="#8F2429" d="M126.4 89.9l16.1.7s-1.4-6.9-2.4-8.6c-.6-1.2-5-2.2-10.4-2.8.1 4.3-1.3 8-3.3 10.7z"/><path fill="#BA233E" d="M72 221s4.6 10 29 18.4l13.2-21 13.9 24.5c7.6-.8 18-2.5 29-6 12.9-3.9 26.5-10.2 37.7-20.2l-24.4-51.4s14.7-23.4 15-28.4c.3-3.7-4.7-24.8-7.3-35l-1.4-5.7s-24.3-9-52.7-9.6a100 100 0 00-49.7 12.3s2.7 19.8 8.8 41.6c2.5 9 5.5 18.3 9.2 26.8 0 0-18.3 34.4-20.3 53.7z"/><path fill="#DDB987" d="M85.8 89.5c2.9-.3 5.7-.6 8.5-1.1 2.6-.5 5.9-.5 8.2-2 .5-.2.4-.9-.1-1-2.5-.8-5.6.1-8.2.6-3 .6-5.7 1.7-8.5 3-.3 0-.2.6.1.5zM141.7 73.4c-.2 1.1-.5 2-.5 3.2 0 1-.3 2 .5 2.7.3.3.8.4 1.1 0 .7-.7.4-1.6.4-2.5l-.2-1.6c0-.6-.3-1-.3-1.6-.1-.5-.8-.7-1-.2zM143.1 82.6c1 1.2.9 2.7 2.1 3.7 2.3 1.8 8.8 1.3 11.5 1.6 9.4 1 20.1 2 27.6 8.7 1 .9 2.5-.6 1.5-1.5a40 40 0 00-19.4-8.3c-7.2-1-17.4.5-22.7-4.7-.3-.3-.8.1-.6.5z"/><path fill="#FFF" d="M180.2 177.4c2.4 6.6 5.5 13 8.5 19.4 3 6.2 5.6 13.5 10 18.7.7.8 2 0 1.7-1-1.9-6.3-6-12.2-9.2-18-3.4-6.5-6.5-13.2-10.1-19.5-.3-.4-1-.2-.9.4z"/><path fill="#DDB987" d="M199.6 221.7c-1 .6-1.8 1.3-2.7 2-.8.5-1.8 1-2.3 2-.3.5.2 1.2.9 1 1-.2 1.7-1 2.5-1.6l2.6-2.2c.7-.5-.2-1.8-1-1.2z"/><path fill="#8F2429" d="M83 140.5c2.6 9 5.6 18.3 9.3 26.8 0 0 19 4.3 42.2 20 16.7 11.4 21.5 33 22.6 49.7 5.1-1.6 10.4-3.6 15.6-6a88.8 88.8 0 0022-14.3l-24.3-51.4s14.7-23.4 15-28.4c.1-1.2-.4-4.3-1.2-8.4-1.6-8-4.4-19.8-6-26.6-16 3.2-26.2 30.8-35.7 48-9.3 16.8-41.8 9.2-59.4-9.4z"/><path fill="#6D1C20" d="M153.2 170.2c-.3 6.5 13.1 30.8 19.5 60.8a88.8 88.8 0 0022-14.3l-24.3-51.4s14.7-23.4 15-28.4c.1-1.2-.4-4.3-1.2-8.4l-20.9-3.4c-3 11.7-9.8 38.2-10.1 45.1z"/><g><path fill="#1A2D3C" d="M123.8 169.4a.5.5 0 01-.5-.4c-.4-1.5-10.1-38.3-10.9-48.6-.7-10.3 3.3-27.6 3.3-27.7 0-.3.4-.5.6-.4.3 0 .5.3.4.6 0 .2-4 17.2-3.3 27.4.8 10.2 10.8 48 10.9 48.5a.5.5 0 01-.5.6z"/></g><g><path fill="#1A2D3C" d="M115.5 214.4h-.2a.5.5 0 01-.3-.7c3.7-9 9.3-38 9.3-38.3 0-.3.3-.5.6-.4.3 0 .5.3.4.5-.2 1.2-5.6 29.5-9.4 38.6 0 .2-.2.3-.4.3z"/></g><g><path fill="#1A2D3C" d="M130.6 175.2a.5.5 0 010-1 237 237 0 0023.6-8.8.5.5 0 11.4 1 232.2 232.2 0 01-24 8.8z"/></g><g><path fill="#1A2D3C" d="M118.7 175.2c-.2 0-16.4-4.1-24-7.1a.5.5 0 11.5-1c7.4 3 23.5 7 23.7 7.1a.5.5 0 01-.2 1z"/></g></g><g><path fill="#8B4D41" d="M307.2 187a57 57 0 01-4 13c-.9.6-3 .9-3 .9l-13.6-7.6s-5.1 3.8-8 4c-3 .4-8.6-4-8.6-4l-1.5-20.8s17.1-10 19.4-9.4c2.2.6 19.5 21.3 19.3 24z"/><path fill="#733830" d="M304 198.6c-.4.8-.6 1.3-.8 1.4-.9.6-3 .9-3 .9l-13.6-7.6s-5.1 3.8-8 4c-3 .4-8.6-4-8.6-4l-1.5-20.8c8.4 2 12 16.8 12 16.8l8-.7s10.3 9.4 15.5 10z"/><path fill="#1A2D3C" d="M289.3 186.2a.5.5 0 01-.4-.9c1.6-1.5 1.1-2.5.5-3.9-.6-1.2-1.4-2.7 0-4.6 1-1.6.6-2 0-2.6-.7-.6-1.5-1.5-.1-3.3.4-.6.6-1.2.4-1.8-.3-1.4-2.3-2.5-3-2.9a.5.5 0 11.4-.9c.1 0 3 1.5 3.6 3.6a3 3 0 01-.6 2.6c-.9 1.1-.6 1.4 0 2 .7.6 1.7 1.6.1 3.8-1 1.5-.5 2.5 0 3.7.7 1.4 1.5 3-.6 5l-.3.2zM302.9 194.7c-.1 0-.3 0-.4-.2l-8.5-9.2a.5.5 0 01.8-.7l8.5 9.2a.5.5 0 01-.4.9zM304.4 188.3c-.1 0-.2 0-.3-.2l-9.4-10.4a.5.5 0 01.8-.7l9.3 10.4a.5.5 0 01-.4.9z"/><g><path fill="#BA233E" d="M271.6 198.4s-27.4 4.3-41.5 0c-9-2.8-32.7-21.9-50-38.3a103.7 103.7 0 01-19-21.7c-5-11.5-1-44.6 14.5-42.2 12 2 57 62 57 62l36.5 9.8s5.7 5.6 6.5 14.5c.4 4.5-.5 10-4 15.9z"/><path fill="#DDB987" d="M188.3 100.8c1.4 1 2.6 2.1 3.7 3.3 1 1 1.8 2.5 3.1 3 .5.1 1-.3 1-.8.1-1.7-1.7-3.1-2.8-4a17.2 17.2 0 00-4.6-2.5c-.6-.3-1 .7-.4 1zM201.2 113c4.6 8 12.2 14 18 21.2 5.6 6.8 10.2 14.3 16 21 .8 1 2.2-.4 1.4-1.4-5.8-6.7-10.3-14.3-15.9-21.1-5.7-6.9-12-14.8-19.3-20-.1-.1-.3.1-.2.3z"/><path fill="#FFF" d="M240.9 157.7c5.4 2.3 11.6 3.3 17.4 4.6 4.9 1.2 9.9 2.7 15 2.6 1 0 1.4-1.8.2-2-10.7-1.6-21.7-5.5-32.5-6-.5 0-.5.6-.1.8z"/><path fill="#DDB987" d="M276.4 164.2c1.2 0 2.5-.2 3.7-.5 1-.2 2.3-.4 2.7-1.4.1-.3.1-.7-.2-.9-1-.5-1.9 0-2.9.4l-3.4 1.4c-.5.2-.5 1.1.1 1zM286.6 160.8c3.8-.3 7.7 4.3 10.2 6.7l7.5 7c6 5.8 7.6 10.8 5.5 18.8-.3 1.2 1.4 2 2 .9 4.2-6.9.7-15-4.5-20-3.8-3.7-7.6-7.4-11.7-10.6-2.7-2-5.6-4.5-9-3.4-.4 0-.4.7 0 .6zM199.7 186c13.9 13.8 34.7 26.8 55.2 22.5 1.6-.3.9-2.7-.7-2.4-20.3 2.9-38.5-9-53.9-21-.4-.3-1 .5-.6.9zM265 207.2c3-.4 6.5-.5 9.4-1.6.7-.3.7-1.5-.2-1.5-3.2 0-6.4 1.4-9.5 2.1-.6.2-.3 1.1.3 1z"/><path fill="#8F2429" d="M271.6 198.4s-27.4 4.3-41.5 0c-9-2.8-32.7-21.9-50-38.3 10.3 8 32.4 24 47.4 25.7 16.5 1.8 37.2-.4 48.1-3.3.4 4.5-.5 10-4 15.9z"/><path fill="#CE5D79" d="M241.3 186.5c-.6 5-4.6 8.5-11.7 6.2-8.2-2.8-12.2-6.5-13.7-10.2-2.7-6.8 3.6-13.4 8.9-12.8 12 1.5 17.2 10.3 16.5 16.8z"/><path fill="#BA233E" d="M241.3 186.5c-.6 5-4.6 8.5-11.7 6.2-8.2-2.8-12.2-6.5-13.7-10.2 4.1 1.7 8 3 11.6 3.3 4.4.5 9 .7 13.8.7z"/><g><path fill="#1A2D3C" d="M220.8 172.4a.5.5 0 01-.4-.3l-1.1-3.5a.5.5 0 011-.3l1 3.5a.5.5 0 01-.5.6z"/></g><g><path fill="#1A2D3C" d="M222.7 172.2a.5.5 0 01-.5-.5l-.5-3.7a.5.5 0 011-.1l.5 3.7a.5.5 0 01-.5.6z"/></g><g><path fill="#1A2D3C" d="M241 193.5l-.2-.1-3.3-2.1a.5.5 0 11.5-.9l3.3 2.1a.5.5 0 01-.2 1z"/></g><g fill="#1A2D3C"><circle transform="rotate(-72.2 253.8 193.2)" cx="253.8" cy="193.2" r="2.9"/><circle transform="rotate(-72.2 265.4 193.4)" cx="265.4" cy="193.4" r="2.9"/></g></g></g></svg>